<svg width="36" height="36" viewBox="0 0 36 36" fill="none" xmlns="http://www.w3.org/2000/svg">
<g clip-path="url(#clip0_345_772)">
<path d="M36 18.0001C36 23.7088 33.3425 28.7968 29.1969 32.0943C26.1237 34.5396 22.2332 36 18.0001 36C13.767 36 9.87647 34.5396 6.80305 32.0943C2.65764 28.7968 0 23.7088 0 18.0001C0 8.05908 8.05925 0 18.0001 0C27.9409 0 36 8.05908 36 18.0001Z" fill="#DCF5DC"/>
<path d="M18 23.7378C21.8636 23.7378 24.9956 20.6058 24.9956 16.7422C24.9956 12.8786 21.8636 9.74658 18 9.74658C14.1364 9.74658 11.0044 12.8786 11.0044 16.7422C11.0044 20.6058 14.1364 23.7378 18 23.7378Z" fill="#96BA9E"/>
<path d="M29.1971 32.0944C26.1239 34.5398 22.2334 36.0001 18.0003 36.0001C13.7672 36.0001 9.87665 34.5398 6.80322 32.0944C9.05377 28.7883 13.2259 26.5679 18.0003 26.5679C22.7746 26.5679 26.9471 28.7878 29.1971 32.0944Z" fill="#96BA9E"/>
</g>
<defs>
<clipPath id="clip0_345_772">
<rect width="36" height="36" fill="white"/>
</clipPath>
</defs>
</svg>
