<svg width="236" height="289" viewBox="0 0 236 289" fill="none" xmlns="http://www.w3.org/2000/svg">
<ellipse cx="120.902" cy="238.32" rx="115.098" ry="49.8115" fill="#D9D9D9"/>
<g clip-path="url(#clip0_184_337)">
<path d="M118.009 233.078C55.0278 233.078 3.79041 181.841 3.79041 118.877C3.79041 55.9135 55.0278 4.65918 118.009 4.65918C180.989 4.65918 232.227 55.8966 232.227 118.86C232.227 181.824 180.989 233.078 118.009 233.078Z" fill="#90DD83"/>
<path d="M118.008 8.44959C178.992 8.44959 228.419 57.8764 228.419 118.86C228.419 179.844 178.992 229.271 118.008 229.271C57.0244 229.271 7.5807 179.861 7.5807 118.877C7.5807 57.8933 57.0244 8.44959 118.008 8.44959ZM118.008 0.868896C52.9295 0.868896 0 53.7984 0 118.877C0 183.956 52.9295 236.886 118.008 236.886C183.087 236.886 236.017 183.956 236.017 118.877C236.017 53.7984 183.07 0.868896 118.008 0.868896Z" fill="#212820"/>
<path d="M133.305 100.247C133.339 101.516 133.678 102.768 134.304 103.834C136.013 106.744 140.108 107.607 142.527 105.052C143.661 103.851 144.202 102.159 144.169 100.517C144.135 98.1147 143.136 95.4242 140.987 94.172C139.143 93.106 136.926 93.6982 135.403 95.0519C133.948 96.3549 133.271 98.3008 133.322 100.23L133.305 100.247Z" fill="#191919"/>
<path d="M93.6252 99.5192C93.6591 100.788 93.9975 102.04 94.6236 103.106C96.3326 106.017 100.428 106.88 102.847 104.325C103.981 103.123 104.522 101.431 104.489 99.7899C104.455 97.3871 103.456 94.6967 101.307 93.4445C99.4631 92.3785 97.2464 92.9707 95.7235 94.3244C94.2682 95.6273 93.5914 97.5733 93.6422 99.5023L93.6252 99.5192Z" fill="#191919"/>
<path d="M118.99 116.779C114.692 116.779 111.545 114.968 110.056 113.885C108.364 112.667 107.974 110.281 109.21 108.589C110.445 106.897 112.814 106.508 114.506 107.743C115.25 108.284 116.841 109.198 118.99 109.198C121.139 109.198 122.73 108.284 123.474 107.743C125.166 106.508 127.535 106.897 128.77 108.589C130.006 110.281 129.617 112.667 127.924 113.885C126.435 114.968 123.288 116.779 118.99 116.779Z" fill="#191919"/>
<path opacity="0.6" d="M78.0915 124.478C85.6425 124.478 91.7638 118.357 91.7638 110.806C91.7638 103.255 85.6425 97.1335 78.0915 97.1335C70.5405 97.1335 64.4192 103.255 64.4192 110.806C64.4192 118.357 70.5405 124.478 78.0915 124.478Z" fill="#60C172"/>
<path opacity="0.6" d="M160.024 124.478C167.575 124.478 173.696 118.357 173.696 110.806C173.696 103.255 167.575 97.1335 160.024 97.1335C152.473 97.1335 146.351 103.255 146.351 110.806C146.351 118.357 152.473 124.478 160.024 124.478Z" fill="#60C172"/>
</g>
<defs>
<clipPath id="clip0_184_337">
<rect width="236" height="236" fill="white" transform="translate(0 0.868896)"/>
</clipPath>
</defs>
</svg>
