<svg width="108" height="107" viewBox="0 0 108 107" fill="none" xmlns="http://www.w3.org/2000/svg">
<circle cx="54" cy="53.5" r="53.5" fill="#EBF6EB"/>
<path d="M73.0515 33.4285L73.0497 33.4305L47.1855 62.4021L34.7771 49.671C32.6853 47.5248 29.2754 47.5248 27.1837 49.671C25.0989 51.81 25.0989 55.2861 27.1837 57.4251L43.5339 74.2005C43.5347 74.2013 43.5355 74.2021 43.5363 74.203C44.5017 75.2189 45.8212 75.7934 47.1994 75.8259L47.2508 75.8523H47.3716H47.4688V75.8524L47.4783 75.8522C48.936 75.8245 50.3284 75.161 51.3153 74.0664L51.3169 74.0646L80.9645 40.8534L80.9648 40.8531C82.9653 38.609 82.8353 35.1578 80.6421 33.0996C78.4427 31.0357 75.0593 31.2036 73.0515 33.4285Z" fill="#03C75A" stroke="#03C75A"/>
</svg>
