<svg width="72" height="72" viewBox="0 0 72 72" fill="none" xmlns="http://www.w3.org/2000/svg">
<rect x="0.5" y="0.5" width="71" height="71" rx="35.5" stroke="#DADADA"/>
<g clip-path="url(#clip0_207_1162)">
<path d="M35.9998 33.0908V39.2872H44.6106C44.2325 41.2799 43.0978 42.9673 41.3961 44.1018L46.5888 48.1309C49.6142 45.3383 51.3597 41.2364 51.3597 36.3637C51.3597 35.2292 51.2579 34.1382 51.0687 33.091L35.9998 33.0908Z" fill="#4285F4"/>
<path d="M27.0329 39.0454L25.8617 39.9419L21.7162 43.171C24.3489 48.3927 29.7449 52.0001 35.9994 52.0001C40.3193 52.0001 43.941 50.5746 46.5884 48.131L41.3957 44.1019C39.9702 45.0619 38.152 45.6438 35.9994 45.6438C31.8394 45.6438 28.3049 42.8365 27.0394 39.0546L27.0329 39.0454Z" fill="#34A853"/>
<path d="M21.7162 28.8291C20.6254 30.9817 20 33.4109 20 35.9999C20 38.589 20.6254 41.0181 21.7162 43.1707C21.7162 43.1852 27.04 39.0398 27.04 39.0398C26.72 38.0798 26.5308 37.0617 26.5308 35.9997C26.5308 34.9378 26.72 33.9197 27.04 32.9597L21.7162 28.8291Z" fill="#FBBC05"/>
<path d="M35.9997 26.3709C38.3561 26.3709 40.4506 27.1854 42.1233 28.7564L46.7051 24.1746C43.9269 21.5856 40.3198 20 35.9997 20C29.7452 20 24.3489 23.5927 21.7162 28.8291L27.0398 32.96C28.3051 29.1782 31.8397 26.3709 35.9997 26.3709Z" fill="#EA4335"/>
</g>
<defs>
<clipPath id="clip0_207_1162">
<rect width="32" height="32" fill="white" transform="translate(20 20)"/>
</clipPath>
</defs>
</svg>
