<svg width="158" height="86" viewBox="0 0 158 86" fill="none" xmlns="http://www.w3.org/2000/svg">
<path d="M43.187 21.2942H18.813C13.5559 21.2942 9.29419 25.5559 9.29419 30.813V55.187C9.29419 60.4441 13.5559 64.7058 18.813 64.7058H43.187C48.4441 64.7058 52.7058 60.4441 52.7058 55.187V30.813C52.7058 25.5559 48.4441 21.2942 43.187 21.2942Z" fill="white" stroke="#E5E5E5" stroke-width="0.387258" stroke-miterlimit="10"/>
<path d="M25.8919 38.0276H16.408C16.2861 38.0276 16.1873 38.1264 16.1873 38.2483V47.7323C16.1873 47.8542 16.2861 47.953 16.408 47.953H25.8919C26.0139 47.953 26.1127 47.8542 26.1127 47.7323V38.2483C26.1127 38.1264 26.0139 38.0276 25.8919 38.0276Z" fill="#7EE3A1"/>
<path d="M35.8136 47.9763H26.3296C26.2077 47.9763 26.1089 48.0751 26.1089 48.1971V57.681C26.1089 57.8029 26.2077 57.9017 26.3296 57.9017H35.8136C35.9355 57.9017 36.0343 57.8029 36.0343 57.681V48.1971C36.0343 48.0751 35.9355 47.9763 35.8136 47.9763Z" fill="#64C75A"/>
<path d="M45.5918 47.9493H36.1078C35.9878 47.9493 35.8871 47.8486 35.8871 47.7286V38.2446C35.8871 38.1246 35.9878 38.0239 36.1078 38.0239H45.5918C45.7118 38.0239 45.8125 38.1246 45.8125 37.4275V46.9114C45.8125 47.8525 45.7118 47.9493 45.5918 47.9493Z" fill="#88E518"/>
<path d="M35.8136 28.1023H26.3296C26.2077 28.1023 26.1089 28.2011 26.1089 28.323V37.807C26.1089 37.9289 26.2077 38.0277 26.3296 38.0277H35.8136C35.9355 38.0277 36.0343 37.9289 36.0343 37.807V28.323C36.0343 28.2011 35.9355 28.1023 35.8136 28.1023Z" fill="#03C75A"/>
<path d="M83.5392 58.2502C82.8847 58.2502 82.3968 58.0991 81.9979 57.7738C81.6223 57.4369 81.4364 56.9761 81.4364 56.372V29.5388C81.4364 28.9231 81.63 28.1292 82.0057 27.7923C82.3929 27.4748 82.8847 27.3237 83.5392 27.3237C84.1937 27.3237 84.6932 27.4825 85.0805 27.8001C85.4445 28.1292 85.642 28.9231 85.642 29.5388V56.3758C85.642 56.9799 85.4561 57.4408 85.0728 57.7854C84.6932 58.0914 84.1743 58.254 83.5392 58.254V58.2502Z" fill="#03C75A"/>
<path d="M112.828 58.2499C112.022 58.2499 111.422 58.095 110.93 57.762C110.481 57.4251 110.256 56.9681 110.256 56.3717V51.4303H107.208C105.989 51.4303 104.993 50.4351 104.993 49.2152C104.993 47.9953 105.989 47.0001 107.208 47.0001H110.256V29.5386C110.256 28.9306 110.492 28.1406 110.938 27.8076C111.418 27.4823 112.022 27.3274 112.828 27.3274C113.633 27.3274 114.249 27.49 114.725 27.8153C115.167 28.1445 115.399 28.9345 115.399 29.5425V56.3756C115.399 56.972 115.174 57.429 114.717 57.7697C114.249 58.0873 113.61 58.2499 112.828 58.2499Z" fill="#03C75A"/>
<path d="M97.4339 42.1208C95.7765 42.1208 93.4142 41.7761 91.5941 40.1225C91.2417 39.805 90.9241 39.4448 90.6414 39.0576C89.1931 37.0554 88.8949 34.5421 89.8669 32.4974C90.2426 31.6106 90.7963 30.8554 91.567 30.1777C92.2718 29.5697 93.1625 29.0818 94.1384 28.7604C95.1414 28.4312 96.2218 28.2686 97.4339 28.2686C98.646 28.2686 99.7381 28.4351 100.729 28.7604C101.655 29.0663 102.503 29.5271 103.324 30.1739C104.033 30.8516 104.598 31.6145 105.032 32.4974C105.756 34.2711 105.721 36.1996 104.927 37.919C104.122 39.6656 102.592 41.0171 100.729 41.629C99.7381 41.9543 98.6306 42.1208 97.4339 42.1208ZM97.4339 32.1915C96.8685 32.1915 96.3612 32.2534 95.8772 32.3812C95.4124 32.5245 94.9981 32.7298 94.6069 33.0047C94.2003 33.33 93.937 33.6708 93.7821 34.0542C93.2128 35.185 93.5304 36.4978 94.5837 37.3072C95.3544 37.8997 96.3302 38.2133 97.4029 38.2133C98.4757 38.2133 99.5329 37.8958 100.389 37.3226C101.063 36.8696 101.403 36.308 101.403 35.6574C101.403 35.1037 101.31 34.5886 101.121 34.0774C100.877 33.6282 100.625 33.3107 100.296 33.0163C99.8388 32.722 99.4283 32.5206 99.0101 32.3812C98.5105 32.2573 97.9683 32.1954 97.4301 32.1954L97.4339 32.1915Z" fill="#03C75A"/>
<path d="M129.948 42.1209C128.496 42.1209 127.342 41.9118 126.416 41.4819C125.448 41.0792 124.682 40.5177 124.066 39.7625C123.458 39.0461 123.036 38.2522 122.78 37.3228C122.707 37.0943 122.645 36.9278 122.59 36.7806C122.428 36.343 122.354 36.1455 122.354 35.3788C122.354 34.3486 122.494 33.4037 122.78 32.4859C123.043 31.572 123.473 30.7433 124.066 30.0191C124.654 29.3298 125.425 28.776 126.42 28.3307C127.4 27.9085 128.589 27.6956 129.948 27.6956H137.035C138.379 27.6956 139.533 27.9047 140.559 28.3307C141.578 28.8031 142.352 29.3569 142.918 30.0191C143.498 30.7317 143.932 31.541 144.238 32.4898C144.501 33.4386 144.633 34.3912 144.633 35.3826C144.633 36.1107 144.567 36.312 144.42 36.7496C144.37 36.9046 144.308 37.0904 144.238 37.3305C143.944 38.2754 143.51 39.0771 142.918 39.7741C142.329 40.4983 141.539 41.0753 140.563 41.4936C139.606 41.9195 138.456 42.1287 137.035 42.1287H129.948V42.1209ZM127.063 35.9132C127.063 35.9132 127.086 35.9674 127.102 36.0371C127.226 36.5057 127.439 36.92 127.745 37.2724C128.074 37.652 128.481 37.923 128.953 38.0857C129.437 38.2871 130.033 38.3839 130.82 38.3839H136.168C136.938 38.3839 137.558 38.2871 138.057 38.0896C138.514 37.923 138.913 37.6481 139.242 37.2763C139.545 36.9278 139.761 36.5134 139.885 36.041C139.905 35.9713 139.916 35.9364 139.924 35.917C140.071 35.8202 140.071 35.6576 140.071 35.3826C140.071 34.8288 140.009 34.2906 139.881 33.7794C139.761 33.3108 139.545 32.8964 139.242 32.5479C138.948 32.211 138.561 31.9438 138.054 31.7308C137.473 31.5333 136.841 31.4365 136.168 31.4365H130.82C130.13 31.4365 129.503 31.5372 128.957 31.7347C128.43 31.9438 128.047 32.1994 127.745 32.5479C127.443 32.8964 127.226 33.3108 127.102 33.7794C126.978 34.2906 126.912 34.8288 126.912 35.3788C126.912 35.6576 126.912 35.8164 127.059 35.9132H127.063Z" fill="#03C75A"/>
<path d="M140.009 58.6722C138.785 58.6722 137.794 57.6769 137.794 56.4571V49.5174H133.004L131.509 53.6921C131.346 54.2149 130.8 55.9536 130.796 55.9769C130.444 57.1115 129.174 57.5143 128.101 57.5143C127.729 57.5143 127.354 57.4678 127.021 57.3788C126.424 57.2161 126.041 56.976 125.851 56.643C125.665 56.3177 125.657 55.8956 125.82 55.3069L125.851 55.1946C125.959 54.8422 126.103 54.4976 126.234 54.1878H126.238L126.316 54.0483L128.116 49.5136H122.393C121.603 49.5136 120.972 49.3044 120.573 48.9056C120.135 48.5106 119.93 47.9878 119.93 47.3023C119.93 46.6169 120.154 46.0786 120.58 45.6913C120.972 45.3002 121.611 45.0911 122.393 45.0911H145.775C146.999 45.0911 147.991 46.0863 147.991 47.3062C147.991 48.526 146.995 49.5213 145.775 49.5213H142.22V56.461C142.22 57.6847 141.225 58.6761 140.005 58.6761L140.009 58.6722Z" fill="#03C75A"/>
<path d="M98.4293 57.4368C98.0575 57.4368 97.6819 57.3903 97.3527 57.3013C96.3381 57.0263 95.9702 56.4454 96.16 55.4114L96.2103 55.1326H96.2026L96.2684 54.9622C96.3962 54.5324 96.5743 54.1064 96.7138 53.7772L98.6501 48.9249H90.9707C89.7509 48.9249 88.7556 47.9296 88.7556 46.7097C88.7556 45.4899 89.7509 44.4946 90.9707 44.4946H101.806C103.026 44.4946 104.021 45.4899 104.021 46.7097C104.021 47.0118 103.959 47.3022 103.843 47.5811L101.748 53.7849H101.795L101.132 55.9032C100.78 57.0379 99.5059 57.4407 98.4371 57.4407L98.4293 57.4368Z" fill="#03C75A"/>
<path d="M69.8574 56.6779C69.1603 56.6779 68.4671 56.3603 68.045 55.8453C67.8166 55.5664 67.5687 55.1095 67.6888 54.5054L69.323 45.0408H62.3097C61.0899 45.0408 60.0946 44.0455 60.0946 42.8257C60.0946 41.6058 61.0899 40.6105 62.3097 40.6105H70.0859L71.2205 34.0272H61.8915C60.6716 34.0272 59.6764 33.0319 59.6764 31.812C59.6764 30.5922 60.6716 29.5969 61.8915 29.5969H73.9159C75.1822 29.5969 76.2162 30.627 76.2162 31.8972L76.038 34.2479L72.5566 54.424C72.3126 55.6671 71.1005 56.6817 69.8535 56.6817L69.8574 56.6779Z" fill="#03C75A"/>
</svg>
