<svg width="32" height="32" viewBox="0 0 32 32" fill="none" xmlns="http://www.w3.org/2000/svg">
<path d="M2.91409 14.6665C2.28997 14.6665 2.00804 13.8856 2.4882 13.4869L14.2975 3.681C15.2851 2.86089 16.7169 2.86089 17.7045 3.681L29.5137 13.4869C29.9939 13.8856 29.712 14.6665 29.0879 14.6665H26.6676V26.6665C26.6676 27.4028 26.0707 27.9998 25.3343 27.9998H20.0009C19.2647 27.9998 18.6676 27.4028 18.6676 26.6665V19.9998C18.6676 19.2634 18.0707 18.6665 17.3343 18.6665H14.6676C13.9312 18.6665 13.3343 19.2634 13.3343 19.9998V26.6665C13.3343 27.4028 12.7374 27.9998 12.001 27.9998H6.66764C5.93127 27.9998 5.33431 27.4028 5.33431 26.6665V14.6665H2.91409Z" fill="#03C75A"/>
</svg>
