<svg width="242" height="212" viewBox="0 0 242 212" fill="none" xmlns="http://www.w3.org/2000/svg">
<path d="M177.945 146.751C206.427 146.751 231.139 127.444 238.05 99.8131C242.044 83.7636 239.561 67.1014 231.035 52.9348C222.508 38.7533 208.97 28.7261 192.904 24.7212C187.968 23.4809 182.897 22.8682 177.841 22.8682C149.359 22.8682 124.647 42.1754 117.751 69.8062C113.742 85.8557 116.225 102.503 124.752 116.685C133.278 130.866 146.816 140.878 162.882 144.883C167.818 146.109 172.889 146.736 177.945 146.736V146.751Z" fill="#90DD83"/>
<path d="M177.856 24.7359C150.915 24.7359 126.397 42.9672 119.576 70.2693C111.528 102.458 131.139 135.05 163.346 143.09C168.237 144.315 173.129 144.898 177.945 144.898C204.886 144.898 229.404 126.667 236.225 99.3646C244.258 67.1759 224.662 34.5689 192.456 26.5441C187.564 25.3187 182.672 24.7359 177.856 24.7359ZM177.856 21C183.061 21 188.267 21.6426 193.368 22.9128C227.519 31.4307 248.372 66.1299 239.845 100.261C232.725 128.729 207.265 148.619 177.93 148.619C172.725 148.619 167.504 147.976 162.418 146.706C145.873 142.582 131.917 132.256 123.136 117.656C114.355 103.041 111.797 85.9004 115.926 69.3577C123.046 40.89 148.506 21 177.856 21Z" fill="#212820"/>
<path d="M169.389 71.8386C169.21 72.4961 168.866 73.1237 168.387 73.6019C167.1 74.917 164.827 74.8273 163.884 73.1685C163.435 72.3915 163.391 71.4201 163.615 70.5534C163.944 69.2832 164.827 67.998 166.128 67.6244C167.25 67.2957 168.342 67.9084 168.955 68.8349C169.554 69.7166 169.658 70.8224 169.374 71.8386H169.389Z" fill="#191919"/>
<path d="M193.234 78.1896C193.054 78.8472 192.71 79.4748 192.231 79.953C190.945 81.268 188.671 81.1784 187.729 79.5196C187.28 78.7425 187.235 77.7712 187.459 76.9045C187.789 75.6343 188.671 74.3491 189.973 73.9755C191.094 73.6468 192.186 74.2594 192.8 75.186C193.398 76.0676 193.503 77.1735 193.219 78.1896H193.234Z" fill="#191919"/>
<g opacity="0.6">
<path d="M205.904 101.517C200.525 101.517 196.165 97.1612 196.165 91.7884C196.165 86.4156 200.525 82.0601 205.904 82.0601C211.282 82.0601 215.642 86.4156 215.642 91.7884C215.642 97.1612 211.282 101.517 205.904 101.517Z" fill="#60C172"/>
</g>
<g opacity="0.6">
<path d="M145.335 86.4235C139.957 86.4235 135.597 82.0679 135.597 76.6951C135.597 71.3223 139.957 66.9668 145.335 66.9668C150.713 66.9668 155.073 71.3223 155.073 76.6951C155.073 82.0679 150.713 86.4235 145.335 86.4235Z" fill="#60C172"/>
</g>
<path d="M200.234 98.662C208.671 98.662 216.375 92.9386 218.514 84.4058C219.726 79.5341 218.978 74.4682 216.39 70.1644C213.802 65.8607 209.688 62.8122 204.812 61.6017C194.729 59.0912 184.498 65.233 181.984 75.3051C180.773 80.1767 181.521 85.2426 184.109 89.5464C186.696 93.8502 190.81 96.8987 195.687 98.1091C197.213 98.4827 198.738 98.677 200.249 98.677L200.234 98.662ZM200.234 64.0226C201.506 64.0226 202.792 64.172 204.064 64.5008C208.163 65.517 211.633 68.0873 213.802 71.7036C215.986 75.335 216.614 79.579 215.597 83.6885C213.488 92.1615 204.857 97.332 196.39 95.21C192.291 94.1939 188.821 91.6236 186.652 88.0072C184.468 84.3908 183.839 80.1319 184.857 76.0224C186.652 68.8345 193.129 64.0226 200.234 64.0226Z" fill="#191919"/>
<path d="M157.272 87.9628C165.709 87.9628 173.413 82.2394 175.552 73.7065C176.764 68.8349 176.016 63.769 173.428 59.4652C170.84 55.1615 166.726 52.1129 161.85 50.9025C151.768 48.392 141.536 54.5338 139.023 64.6059C137.811 69.4775 138.559 74.5434 141.147 78.8472C143.735 83.1509 147.848 86.1995 152.725 87.4099C154.251 87.7835 155.777 87.9778 157.287 87.9778L157.272 87.9628ZM157.272 53.3234C158.544 53.3234 159.83 53.4728 161.102 53.8016C165.201 54.8177 168.671 57.3881 170.84 61.0044C173.024 64.6357 173.652 68.8797 172.635 72.9893C170.526 81.4623 161.895 86.6328 153.428 84.5108C149.329 83.4947 145.859 80.9243 143.69 77.308C141.506 73.6767 140.877 69.4327 141.895 65.3231C143.69 58.1352 150.167 53.3234 157.272 53.3234Z" fill="#191919"/>
<path d="M181.595 76.9344L183.914 75.0514C183.346 74.3491 181.536 72.8248 178.783 72.1374C176.24 71.5098 173.607 72.1823 173.488 72.2122L174.251 75.0963C174.251 75.0963 176.27 74.5882 178.05 75.0365C180.384 75.6193 181.58 76.9194 181.595 76.9344Z" fill="#191919"/>
<path d="M174.071 97.5267C170.172 97.5267 167.011 94.3688 167.011 90.4733C167.011 86.5778 170.172 83.4199 174.071 83.4199C177.971 83.4199 181.132 86.5778 181.132 90.4733C181.132 94.3688 177.971 97.5267 174.071 97.5267Z" fill="#F1FFFF"/>
<path d="M174.071 99.0358C177.916 99.0358 181.416 96.4356 182.373 92.5503C182.927 90.3386 182.583 88.0373 181.401 86.0797C180.219 84.1221 178.349 82.7323 176.135 82.1794C173.922 81.6265 171.618 81.9702 169.658 83.1507C167.699 84.3313 166.307 86.1992 165.754 88.4109C165.201 90.6226 165.545 92.9239 166.726 94.8815C167.908 96.8391 169.778 98.2289 171.992 98.7818C172.68 98.9611 173.383 99.0358 174.071 99.0358ZM174.071 84.9141C174.52 84.9141 174.984 84.9738 175.432 85.0785C176.868 85.4371 178.095 86.3337 178.858 87.6189C179.621 88.8891 179.845 90.3835 179.486 91.833C178.738 94.8068 175.717 96.6299 172.725 95.8827C171.289 95.5241 170.062 94.6275 169.299 93.3423C168.536 92.0721 168.312 90.5777 168.671 89.1282C169.03 87.6787 169.928 86.4682 171.214 85.7061C172.097 85.1831 173.069 84.9141 174.071 84.9141Z" fill="#212820"/>
<path d="M120.701 55.5039C120.791 55.1453 120.417 46.7619 112.758 48.0171C104.516 49.377 107.882 55.9672 107.882 55.9672L120.701 55.5039Z" fill="#B0CBDB"/>
<path d="M107.882 57.4617C107.882 57.4617 107.912 57.4617 107.942 57.4617L120.761 56.9984C121.435 56.9685 122.018 56.5053 122.168 55.8478C122.317 55.2351 122.108 51.2302 119.684 48.6449C118.473 47.3597 116.259 45.9401 112.534 46.5528C109.437 47.0609 107.358 48.3311 106.356 50.3036C104.875 53.2476 106.506 56.5202 106.58 56.6547C106.835 57.1478 107.358 57.4617 107.912 57.4617H107.882ZM119.056 54.0695L108.899 54.4281C108.69 53.6809 108.525 52.5601 109.004 51.6336C109.557 50.5577 110.903 49.8404 112.998 49.4967C114.793 49.2128 116.169 49.4967 117.186 50.4083C118.308 51.3945 118.832 52.9636 119.056 54.0844V54.0695Z" fill="#212820"/>
<path d="M18.4573 67.489L118.787 54.9662C122.676 54.488 126.296 57.0135 127.164 60.8241L154.898 181.584C155.915 186.037 152.818 190.386 148.271 190.864L48.9436 201.414C45.144 201.818 41.6287 199.337 40.7311 195.631L11.9951 76.8437C10.933 72.4204 13.9397 68.0569 18.4573 67.489Z" fill="#FFF183"/>
<path d="M48.1358 203.312C48.4649 203.312 48.794 203.297 49.1381 203.252L148.465 192.702C151.158 192.418 153.611 190.984 155.197 188.772C156.782 186.56 157.321 183.781 156.723 181.151L128.989 60.3907C127.897 55.6237 123.409 52.4855 118.562 53.0982L18.233 65.621C15.5553 65.9498 13.132 67.4292 11.6062 69.6409C10.0804 71.8525 9.55681 74.6321 10.1851 77.2621L38.9211 196.049C39.9533 200.323 43.8277 203.312 48.1508 203.312H48.1358ZM119.759 56.7594C122.407 56.7594 124.74 58.5826 125.354 61.2276L153.088 181.987C153.462 183.586 153.117 185.275 152.16 186.605C151.203 187.95 149.722 188.817 148.076 188.981L48.7492 199.531C45.892 199.83 43.2293 197.962 42.5412 195.168L13.8051 76.3805C13.4162 74.7964 13.7303 73.1078 14.6578 71.7629C15.5853 70.4179 17.0512 69.5213 18.6817 69.3271L119.011 56.8043C119.251 56.7744 119.505 56.7594 119.744 56.7594H119.759Z" fill="#191919"/>
<path d="M145.444 183.004C145.578 183.004 145.713 183.004 145.847 182.959C146.85 182.735 147.493 181.748 147.269 180.732C147.029 179.641 123.215 70.971 122.123 66.1442C121.749 64.5004 120.821 63.2301 119.445 62.483C116.378 60.8242 112.115 62.3485 111.651 62.5278C110.679 62.8864 110.2 63.9624 110.559 64.9337C110.918 65.9051 111.995 66.3833 112.968 66.0246C113.761 65.7257 116.348 65.0533 117.68 65.7706C117.964 65.92 118.308 66.2039 118.488 66.9661C119.58 71.7779 143.394 180.433 143.634 181.524C143.828 182.391 144.606 182.989 145.459 182.989L145.444 183.004Z" fill="#EFCF64"/>
<path d="M115.406 47.8682C115.406 47.8682 26.4155 60.1967 12.8179 61.7807C0.940506 63.1705 4.29131 73.5713 4.29131 73.5713L26.1463 176.548C26.4754 178.072 27.8965 179.089 29.4372 178.894L125.159 167.119C126.954 166.895 128.151 165.146 127.687 163.398C123.604 147.797 119.699 132.15 116.169 116.415C114.209 107.673 112.145 98.5721 110.455 89.6208C108.749 80.55 106.58 71.1205 108.076 61.9003C108.6 58.7023 110.889 47.8831 115.406 47.8831V47.8682Z" fill="#F1FFFF"/>
<path d="M29.0483 180.777C29.2428 180.777 29.4522 180.777 29.6617 180.732L125.384 168.957C126.775 168.792 128.031 168.03 128.809 166.864C129.602 165.699 129.841 164.264 129.497 162.904C124.965 145.6 121.195 130.252 117.994 115.981L117.59 114.218C115.75 106.029 113.85 97.5706 112.295 89.2619L111.786 86.5721C110.23 78.5174 108.63 70.1789 109.931 62.184C110.948 55.8628 113.222 50.4682 115.047 49.7957C115.421 49.7509 115.631 49.721 115.675 49.706C116.648 49.5715 117.351 48.7048 117.291 47.7335C117.231 46.7621 116.408 46 115.421 46C115.032 46 114.658 46.0448 114.299 46.1345C105.04 47.4196 25.3236 58.4331 12.6235 59.9275C8.36016 60.4206 5.30853 62.0495 3.55833 64.7543C1.0602 68.6247 2.25692 73.2573 2.49626 74.0343L24.3363 176.936C24.8149 179.223 26.8045 180.792 29.0783 180.792L29.0483 180.777ZM109.617 50.5429C107.583 54.3236 106.58 59.4045 106.236 61.5713C104.83 70.2237 106.506 78.8761 108.121 87.2595L108.63 89.9344C110.2 98.3029 112.115 106.806 113.955 115.025L114.359 116.788C117.575 131.104 121.345 146.496 125.892 163.846C125.997 164.279 125.847 164.608 125.743 164.757C125.638 164.922 125.399 165.191 124.95 165.236L29.2278 177.011C28.6594 177.071 28.1059 176.697 27.9862 176.13L6.13126 73.1527C6.13126 73.1527 6.10135 73.0331 6.08639 72.9733C6.08639 72.9434 4.99438 69.3719 6.71466 66.7269C7.83658 65.0084 9.96076 63.9623 13.0423 63.6036C24.426 62.2737 89.3477 53.3224 109.617 50.5279V50.5429Z" fill="#212820"/>
<g opacity="0.5">
<path d="M12.5635 72.8984C12.6532 72.8984 12.728 72.8984 12.8177 72.8834L103.214 60.7193C104.232 60.5848 104.95 59.6433 104.815 58.6122C104.68 57.596 103.738 56.8937 102.706 57.0132L12.3092 69.1774C11.2919 69.3119 10.5739 70.2533 10.7086 71.2844C10.8282 72.2259 11.636 72.8984 12.5635 72.8984Z" fill="#B0CBDB"/>
</g>
<path d="M187.49 169.628L185.477 181.107C185.316 183.986 188.242 186.039 190.886 184.922L201.02 179.16C201.702 178.876 202.269 178.413 202.703 177.81L239.591 124.965C239.806 122.629 240.094 120.26 236.1 117.424L233.047 115.713C229.038 112.888 227.506 113.585 225.929 114.633L188.191 167.574C187.772 168.166 187.517 168.876 187.478 169.613L187.49 169.628Z" fill="white"/>
<path d="M184.759 184.904C185.113 185.362 185.528 185.772 186.034 186.112C187.686 187.273 189.787 187.502 191.645 186.723L191.852 186.613L201.894 180.922C202.856 180.495 203.67 179.817 204.29 178.948L241.464 125.687L241.514 125.185C241.757 122.632 242.069 119.319 237.202 115.889L237.023 115.784L234.061 114.125C229.681 111.074 227.285 111.44 224.849 113.078L224.575 113.29L186.625 166.493C186.006 167.362 185.659 168.362 185.578 169.424L183.563 181.026C183.492 182.446 183.921 183.82 184.759 184.904ZM190.061 183.194C189.44 183.43 188.78 183.332 188.238 182.946C187.696 182.56 187.386 181.971 187.4 181.326L189.412 169.752C189.433 169.369 189.559 169.028 189.762 168.725L227.281 116.098C228.191 115.542 229.07 115.325 231.934 117.329L232.113 117.434L235.076 119.093C237.847 121.071 237.894 122.424 237.722 124.312L201.122 176.74C200.918 177.044 200.629 177.268 200.268 177.4L200.062 177.511L190.046 183.206L190.061 183.194Z" fill="#BCC4C9"/>
<g opacity="0.66">
<path d="M201.141 175.946C196.084 174.004 193.898 172.72 189.842 168.859L201.141 175.946Z" fill="white"/>
<path d="M188.71 169.758C188.71 169.758 188.805 169.88 188.852 169.941C193.154 174.026 195.553 175.365 200.622 177.322C201.355 177.609 202.213 177.238 202.487 176.49C202.788 175.745 202.401 174.898 201.653 174.623C196.833 172.767 194.831 171.657 190.837 167.846C190.262 167.291 189.337 167.323 188.783 167.898C188.289 168.425 188.255 169.232 188.68 169.781L188.71 169.758Z" fill="#D3DFE5"/>
</g>
</svg>
