<svg width="260" height="210" viewBox="0 0 260 210" fill="none" xmlns="http://www.w3.org/2000/svg">
<path d="M118.298 59.7446H60.0547V117.687H118.298V59.7446Z" fill="#03C75A"/>
<path d="M119.022 118.408H59.3301V59.0239H119.022V118.408ZM60.7793 116.966H117.573V60.4656H60.7793V116.966Z" fill="#A2BAA2"/>
<path d="M118.298 1.80176H167.266C172.382 1.80176 176.541 5.93948 176.541 11.0287V59.7442H118.298V1.80176Z" fill="#EBF6EB"/>
<path d="M177.266 60.4652H117.573V1.08105H167.266C172.773 1.08105 177.266 5.53595 177.266 11.0289V60.4652ZM119.022 59.0235H175.816V11.0289C175.816 6.34331 171.976 2.52277 167.266 2.52277H119.022V59.0235Z" fill="#A2BAA2"/>
<path d="M11.0864 1.80176H60.0546V59.7442H1.81152V11.0287C1.81152 5.93948 5.97071 1.80176 11.0864 1.80176Z" fill="#FFF5D1"/>
<path d="M60.7792 60.4652H1.08691V11.0289C1.08691 5.53595 5.56493 1.08105 11.0864 1.08105H60.7792V60.4652ZM2.53611 59.0235H59.33V2.52277H11.0864C6.37647 2.52277 2.53611 6.34331 2.53611 11.0289V59.0235Z" fill="#A2BAA2"/>
<path d="M60.0546 59.7446H1.81152V117.687H60.0546V59.7446Z" fill="#EBF6EB"/>
<path d="M60.7792 118.408H1.08691V59.0239H60.7792V118.408ZM2.53611 116.966H59.33V60.4656H2.53611V116.966Z" fill="#A2BAA2"/>
<path d="M1.81152 117.687H60.0546V175.629H11.0864C5.97071 175.629 1.81152 171.492 1.81152 166.403V117.687Z" fill="#EBF6EB"/>
<path d="M60.7792 176.35H11.0864C5.57942 176.35 1.08691 171.896 1.08691 166.403V116.966H60.7792V176.35ZM2.53611 118.408V166.403C2.53611 171.088 6.37647 174.909 11.0864 174.909H59.33V118.408H2.53611Z" fill="#A2BAA2"/>
<path d="M118.298 117.687H60.0547V175.629H118.298V117.687Z" fill="#EBF6EB"/>
<path d="M119.022 176.35H59.3301V116.966H119.022V176.35ZM60.7793 174.909H117.573V118.408H60.7793V174.909Z" fill="#A2BAA2"/>
<path d="M176.541 117.687H118.298V175.629H176.541V117.687Z" fill="#FFF5D1"/>
<path d="M177.266 176.35H117.573V116.966H177.266V176.35ZM119.022 174.909H175.816V118.408H119.022V174.909Z" fill="#A2BAA2"/>
<path d="M176.541 59.7446H118.298V117.687H176.541V59.7446Z" fill="#EBF6EB"/>
<path d="M177.266 118.408H117.573V59.0239H177.266V118.408ZM119.022 116.966H175.816V60.4656H119.022V116.966Z" fill="#A2BAA2"/>
<path d="M118.298 1.80176H60.0547V59.7442H118.298V1.80176Z" fill="#EBF6EB"/>
<path d="M119.022 60.4652H59.3301V1.08105H119.022V60.4652ZM60.7793 59.0235H117.573V2.52277H60.7793V59.0235Z" fill="#A2BAA2"/>
<path d="M176.541 61.1862H1.8115C1.01444 61.1862 0.362305 60.5374 0.362305 59.7444C0.362305 58.9515 1.01444 58.3027 1.8115 58.3027H176.541C177.338 58.3027 177.99 58.9515 177.99 59.7444C177.99 60.5374 177.338 61.1862 176.541 61.1862Z" fill="#A2BAA2"/>
<path d="M176.541 119.129H1.8115C1.01444 119.129 0.362305 118.48 0.362305 117.687C0.362305 116.894 1.01444 116.245 1.8115 116.245H176.541C177.338 116.245 177.99 116.894 177.99 117.687C177.99 118.48 177.338 119.129 176.541 119.129Z" fill="#A2BAA2"/>
<path d="M60.0547 177.071C59.2576 177.071 58.6055 176.422 58.6055 175.629V1.80207C58.6055 1.00912 59.2576 0.360352 60.0547 0.360352C60.8517 0.360352 61.5039 1.00912 61.5039 1.80207V175.629C61.5039 176.422 60.8517 177.071 60.0547 177.071Z" fill="#A2BAA2"/>
<path d="M118.298 177.071C117.501 177.071 116.849 176.422 116.849 175.629V1.80207C116.849 1.00912 117.501 0.360352 118.298 0.360352C119.095 0.360352 119.747 1.00912 119.747 1.80207V175.629C119.747 176.422 119.095 177.071 118.298 177.071Z" fill="#A2BAA2"/>
<path d="M169.295 177.432H9.05747C4.05774 177.432 0 173.395 0 168.421V9.01071C0 4.0368 4.05774 0 9.05747 0H169.295C174.295 0 178.352 4.0368 178.352 9.01071V168.421C178.352 173.395 174.295 177.432 169.295 177.432ZM9.05747 3.60428C6.05763 3.60428 3.62299 6.02636 3.62299 9.01071V168.421C3.62299 171.405 6.05763 173.827 9.05747 173.827H169.295C172.295 173.827 174.729 171.405 174.729 168.421V9.01071C174.729 6.02636 172.295 3.60428 169.295 3.60428H9.05747Z" fill="#191919"/>
<path d="M115.718 119.129H62.6196C60.4023 119.129 58.5908 117.327 58.5908 115.121V62.2965C58.5908 60.0907 60.4023 58.2886 62.6196 58.2886H115.718C117.935 58.2886 119.747 60.0907 119.747 62.2965V115.121C119.747 117.327 117.935 119.129 115.718 119.129ZM62.6196 61.1864C61.9964 61.1864 61.4892 61.691 61.4892 62.311V115.135C61.4892 115.755 61.9964 116.26 62.6196 116.26H115.718C116.341 116.26 116.848 115.755 116.848 115.135V62.2965C116.848 61.6766 116.341 61.172 115.718 61.172H62.6196V61.1864Z" fill="#191919"/>
<path d="M85.2126 100.848C84.4445 100.848 83.7054 100.545 83.1692 99.9973L73.4161 90.2946C72.2858 89.17 72.2858 87.3391 73.4161 86.2145C74.5465 85.09 76.387 85.09 77.5174 86.2145L85.1401 93.7979L100.777 76.8145C101.864 75.6468 103.69 75.5603 104.878 76.6415C106.066 77.7228 106.139 79.5394 105.052 80.7216L87.3719 99.9252C86.8357 100.502 86.0821 100.848 85.2995 100.862H85.2416L85.2126 100.848Z" fill="white"/>
<path d="M198.526 200.308C167.064 200.308 141.471 174.847 141.471 143.548C141.471 112.248 167.064 86.7876 198.526 86.7876C229.988 86.7876 255.581 112.248 255.581 143.548C255.581 174.847 229.988 200.308 198.526 200.308Z" fill="#90DD83"/>
<path d="M198.526 88.6043C229.031 88.6043 253.769 113.214 253.769 143.562C253.769 173.91 229.031 198.521 198.526 198.521C168.02 198.521 143.283 173.91 143.283 143.562C143.283 113.214 168.02 88.6043 198.526 88.6043ZM198.526 85C166.064 85 139.66 111.268 139.66 143.562C139.66 175.857 166.064 202.125 198.526 202.125C230.988 202.125 257.392 175.857 257.392 143.562C257.392 111.268 230.988 85 198.526 85Z" fill="#212820"/>
<g opacity="0.6">
<path d="M161.803 147.152C166.189 147.152 169.745 143.615 169.745 139.252C169.745 134.888 166.189 131.351 161.803 131.351C157.417 131.351 153.862 134.888 153.862 139.252C153.862 143.615 157.417 147.152 161.803 147.152Z" fill="#60C172"/>
</g>
<path d="M154.398 130.183C154.21 130.789 154.166 131.423 154.282 132.029C154.615 133.672 156.412 134.739 157.977 133.932C158.702 133.557 159.238 132.836 159.485 132.057C159.861 130.918 159.818 129.491 159.006 128.554C158.311 127.747 157.166 127.675 156.224 128.064C155.325 128.439 154.688 129.246 154.398 130.169V130.183Z" fill="#191919"/>
<path d="M98.4973 142.029L89.949 136.907C88.0018 135.397 88.2988 132.392 90.5266 131.292L99.933 127.992C100.494 127.713 101.121 127.598 101.748 127.664L139.836 132.047C141.469 133.213 143.169 134.346 142.74 138.499L142.146 141.405C141.717 145.559 140.413 146.15 138.846 146.593L100.214 142.702C99.5864 142.636 98.9923 142.407 98.4973 142.013V142.029Z" fill="white"/>
<path d="M138.978 148.251L100.032 144.327C99.1407 144.245 98.2826 143.917 97.5565 143.375L88.9258 138.204C87.5561 137.153 86.8465 135.495 87.028 133.787C87.2095 132.08 88.2327 130.586 89.7839 129.831L89.9654 129.749L99.2893 126.465C100.098 126.088 101.006 125.94 101.897 126.022L140.446 130.455L140.793 130.701C142.575 131.965 144.885 133.623 144.39 138.663L144.357 138.827L143.78 141.651C143.301 146.182 141.7 147.496 139.291 148.169L138.994 148.251H138.978ZM90.8895 135.56L99.5038 140.732C99.7513 140.929 100.048 141.044 100.362 141.077L138.68 144.935C139.555 144.672 140.182 144.212 140.479 141.257L140.512 141.093L141.09 138.269C141.37 135.396 140.529 134.592 139.192 133.64L101.517 129.305C101.22 129.273 100.907 129.338 100.626 129.47L100.444 129.535L91.1371 132.802C90.642 133.065 90.3285 133.541 90.279 134.099C90.2294 134.657 90.4275 135.183 90.8565 135.544L90.8895 135.56Z" fill="#BCC4C9"/>
<g opacity="0.66">
<path d="M102.078 129.716C100.494 134.05 100.098 136.168 100.312 140.929L102.078 129.716Z" fill="white"/>
<path d="M100.312 142.16C99.6521 142.16 99.1076 141.651 99.0746 140.978C98.8435 135.938 99.3386 133.64 100.906 129.289C101.137 128.649 101.847 128.321 102.491 128.55C103.134 128.78 103.464 129.486 103.233 130.126C101.731 134.264 101.319 136.168 101.533 140.863C101.566 141.536 101.038 142.111 100.362 142.144C100.345 142.144 100.329 142.144 100.312 142.144V142.16Z" fill="#D3DFE5"/>
</g>
<path d="M139.863 148.305L139.732 144.701C140.037 144.701 140.312 144.644 140.558 144.586C142.587 144.038 143.21 141.27 143.152 139.064C143.123 138.141 142.819 135.085 140.138 134.465L140.949 130.947C144.413 131.74 146.645 134.811 146.775 138.949C146.891 142.64 145.572 146.979 141.515 148.075C140.993 148.219 140.442 148.291 139.877 148.32L139.863 148.305Z" fill="#191919"/>
</svg>
