<svg width="345" height="178" viewBox="0 0 345 178" fill="none" xmlns="http://www.w3.org/2000/svg">
<g clip-path="url(#clip0_301_1520)">
<path d="M177.017 111.331L198.498 89.8081C199.011 89.3885 199.011 88.5959 198.498 88.1763L177.017 66.6532C176.334 66.0938 175.308 66.5755 175.308 67.4613V79.7691H145.667V98.1997H175.308V110.508C175.308 111.393 176.334 111.875 177.017 111.316V111.331Z" fill="#FF6233"/>
<path d="M66.1503 152.817C101.221 152.817 129.652 124.391 129.652 89.3262C129.652 54.2612 101.221 25.8354 66.1503 25.8354C31.0792 25.8354 2.64844 54.2612 2.64844 89.3262C2.64844 124.391 31.0792 152.817 66.1503 152.817Z" fill="#90DD83"/>
<path d="M66.1503 27.6708C100.207 27.6708 127.816 55.2755 127.816 89.3262C127.816 123.377 100.207 150.981 66.1503 150.981C32.0937 150.981 4.48422 123.377 4.48422 89.3262C4.48422 55.2755 32.0937 27.6708 66.1503 27.6708ZM66.1503 24C30.1258 24 0.812744 53.3079 0.812744 89.3262C0.812744 125.344 30.1258 154.652 66.1503 154.652C102.175 154.652 131.488 125.344 131.488 89.3262C131.488 53.3079 102.175 24 66.1503 24Z" fill="#212820"/>
<path d="M74.6973 78.9302C74.712 79.635 74.9029 80.3398 75.2553 80.9418C76.2099 82.5569 78.5009 83.0562 79.852 81.6319C80.4835 80.9565 80.7772 80.0167 80.7772 79.0917C80.7625 77.7555 80.2045 76.2578 79.0002 75.553C77.9722 74.951 76.7239 75.2887 75.8868 76.0522C75.0791 76.7717 74.6973 77.8583 74.7266 78.9448L74.6973 78.9302Z" fill="#191919"/>
<path d="M52.5364 78.5337C52.5511 79.2385 52.742 79.9433 53.0944 80.5453C54.049 82.1605 56.34 82.6597 57.6911 81.2354C58.3226 80.56 58.6163 79.6202 58.6163 78.6952C58.6017 77.359 58.0436 75.8613 56.8393 75.1565C55.8113 74.5545 54.563 74.8922 53.7259 75.6557C52.9182 76.3752 52.5364 77.4618 52.5657 78.5484L52.5364 78.5337Z" fill="#191919"/>
<path d="M66.6936 87.5051C64.476 87.5051 62.8459 86.5654 62.0822 86.0074C61.4213 85.5375 61.2745 84.6125 61.7591 83.9517C62.2291 83.291 63.1543 83.1441 63.8151 83.6287C64.2998 83.9811 65.3131 84.5684 66.7083 84.5684C68.1034 84.5684 69.1167 83.9811 69.6014 83.6287C70.2622 83.1441 71.1728 83.3057 71.6574 83.9517C72.1274 84.6125 71.9805 85.5228 71.3343 86.0074C70.556 86.5654 68.9405 87.5051 66.7229 87.5051H66.6936Z" fill="#191919"/>
<g opacity="0.6">
<path d="M43.8718 92.4538C48.0894 92.4538 51.5084 89.0353 51.5084 84.8184C51.5084 80.6016 48.0894 77.1831 43.8718 77.1831C39.6542 77.1831 36.2351 80.6016 36.2351 84.8184C36.2351 89.0353 39.6542 92.4538 43.8718 92.4538Z" fill="#60C172"/>
</g>
<g opacity="0.6">
<path d="M89.6184 92.4538C93.836 92.4538 97.255 89.0353 97.255 84.8184C97.255 80.6016 93.836 77.1831 89.6184 77.1831C85.4007 77.1831 81.9817 80.6016 81.9817 84.8184C81.9817 89.0353 85.4007 92.4538 89.6184 92.4538Z" fill="#60C172"/>
</g>
<path d="M274.5 178C313.436 178 345 138.153 345 89C345 39.8467 313.436 0 274.5 0C235.564 0 204 39.8467 204 89C204 138.153 235.564 178 274.5 178Z" fill="#F0F6F7"/>
<g opacity="0.12">
<path d="M274.487 153.927C302.789 153.927 325.732 124.858 325.732 89C325.732 53.142 302.789 24.0732 274.487 24.0732C246.185 24.0732 223.242 53.142 223.242 89C223.242 124.858 246.185 153.927 274.487 153.927Z" fill="#97B2AD"/>
</g>
<g opacity="0.65">
<path d="M282.631 100.795H266.125V99.1479C266.125 96.3506 266.436 94.0662 267.073 92.3102C267.71 90.5542 268.658 88.9535 269.917 87.5083C271.176 86.0631 274.005 83.5145 278.404 79.8625C280.751 77.9511 281.916 76.1951 281.916 74.61C281.916 73.0249 281.45 71.7816 280.502 70.8959C279.554 70.0101 278.139 69.5749 276.228 69.5749C274.176 69.5749 272.466 70.2587 271.13 71.6107C269.777 72.9782 268.922 75.3403 268.549 78.7281L251.701 76.6457C252.276 70.4607 254.53 65.4723 258.447 61.6961C262.363 57.9198 268.378 56.0239 276.492 56.0239C282.802 56.0239 287.9 57.3448 291.77 59.9711C297.039 63.5298 299.666 68.2851 299.666 74.2059C299.666 76.6613 298.982 79.0389 297.63 81.3233C296.262 83.6077 293.496 86.4049 289.299 89.6995C286.377 92.0149 284.527 93.8798 283.766 95.2784C283.004 96.677 282.616 98.5107 282.616 100.764L282.631 100.795ZM265.565 105.177H283.237V120.764H265.565V105.177Z" fill="#7DA7A0"/>
</g>
</g>
<defs>
<clipPath id="clip0_301_1520">
<rect width="345" height="178" fill="white"/>
</clipPath>
</defs>
</svg>
