<svg width="40" height="40" viewBox="0 0 40 40" fill="none" xmlns="http://www.w3.org/2000/svg">
<path d="M20 27.0832C21.1507 27.0832 22.0833 26.1505 22.0833 24.9998C22.0833 23.8492 21.1507 22.9165 20 22.9165C18.8493 22.9165 17.9167 23.8492 17.9167 24.9998C17.9167 26.1505 18.8493 27.0832 20 27.0832Z" fill="#191919"/>
<path fill-rule="evenodd" clip-rule="evenodd" d="M28.3333 14.9998V9.99984C28.3333 5.39747 24.6023 1.6665 20 1.6665C15.3976 1.6665 11.6667 5.39747 11.6667 9.99984V14.9998H8.33333C6.49238 14.9998 5 16.4922 5 18.3332V31.6665C5 33.5075 6.49238 34.9998 8.33333 34.9998H31.6667C33.5077 34.9998 35 33.5075 35 31.6665V18.3332C35 16.4922 33.5077 14.9998 31.6667 14.9998H28.3333ZM20 4.1665C16.7783 4.1665 14.1667 6.77817 14.1667 9.99984V14.9998H25.8333V9.99984C25.8333 6.77817 23.2217 4.1665 20 4.1665ZM7.5 18.3332C7.5 17.873 7.8731 17.4998 8.33333 17.4998H31.6667C32.1268 17.4998 32.5 17.873 32.5 18.3332V31.6665C32.5 32.1267 32.1268 32.4998 31.6667 32.4998H8.33333C7.8731 32.4998 7.5 32.1267 7.5 31.6665V18.3332Z" fill="#191919"/>
</svg>
