<svg width="150" height="136" viewBox="0 0 150 136" fill="none" xmlns="http://www.w3.org/2000/svg">
<g filter="url(#filter0_d_341_1639)">
<g clip-path="url(#clip0_341_1639)">
<path d="M132 64.0003C132 84.2981 122.551 102.389 107.811 114.113C96.8842 122.808 83.0513 128 68.0003 128C52.9493 128 39.1163 122.808 28.1886 114.113C13.4494 102.389 4 84.2981 4 64.0003C4 28.6545 32.6551 0 68.0003 0C103.345 0 132 28.6545 132 64.0003Z" fill="#DCF5DC"/>
<path d="M67.9998 84.4019C81.7369 84.4019 92.8731 73.2657 92.8731 59.5286C92.8731 45.7914 81.7369 34.6553 67.9998 34.6553C54.2626 34.6553 43.1265 45.7914 43.1265 59.5286C43.1265 73.2657 54.2626 84.4019 67.9998 84.4019Z" fill="#96BA9E"/>
<path d="M107.811 114.113C96.8844 122.807 83.0514 128 68.0004 128C52.9494 128 39.1165 122.807 28.1887 114.113C36.1906 102.358 51.0249 94.4629 68.0004 94.4629C84.9759 94.4629 99.8114 102.356 107.811 114.113Z" fill="#96BA9E"/>
</g>
<rect x="104" y="86" width="42" height="42" rx="21" fill="#03C75A"/>
<path fill-rule="evenodd" clip-rule="evenodd" d="M125 111C127.209 111 129 109.209 129 107C129 104.791 127.209 103 125 103C122.791 103 121 104.791 121 107C121 109.209 122.791 111 125 111ZM125 109.5C126.381 109.5 127.5 108.381 127.5 107C127.5 105.619 126.381 104.5 125 104.5C123.62 104.5 122.5 105.619 122.5 107C122.5 108.381 123.62 109.5 125 109.5Z" fill="white"/>
<path fill-rule="evenodd" clip-rule="evenodd" d="M128.118 96.8649L128.52 99.8141C128.847 99.9746 129.162 100.157 129.462 100.359L132.218 99.2322C132.681 99.043 133.213 99.2248 133.463 99.6579L135.59 103.342C135.84 103.775 135.732 104.326 135.336 104.633L132.982 106.457C132.994 106.636 133 106.817 133 107C133 107.183 132.994 107.364 132.982 107.543L135.336 109.367C135.732 109.674 135.84 110.225 135.59 110.658L133.463 114.342C133.213 114.775 132.681 114.957 132.218 114.768L129.462 113.641C129.162 113.843 128.847 114.025 128.52 114.186L128.118 117.135C128.051 117.631 127.627 118 127.127 118H122.873C122.373 118 121.95 117.631 121.882 117.135L121.48 114.186C121.153 114.025 120.838 113.843 120.538 113.641L117.782 114.768C117.319 114.957 116.788 114.775 116.538 114.342L114.41 110.658C114.16 110.225 114.269 109.674 114.664 109.367L117.018 107.543C117.006 107.364 117 107.183 117 107C117 106.817 117.006 106.636 117.018 106.457L114.664 104.633C114.269 104.326 114.16 103.775 114.41 103.342L116.538 99.6579C116.788 99.2248 117.319 99.043 117.782 99.2322L120.538 100.359C120.838 100.157 121.153 99.9746 121.48 99.8141L121.882 96.8649C121.95 96.3694 122.373 96 122.873 96H127.127C127.627 96 128.051 96.3694 128.118 96.8649ZM127.142 100.809L127.859 101.161C128.125 101.291 128.381 101.439 128.625 101.603L129.289 102.05L132.382 100.786L134.073 103.714L131.432 105.76L131.485 106.557C131.495 106.703 131.5 106.851 131.5 107C131.5 107.149 131.495 107.297 131.485 107.443L131.432 108.24L134.073 110.286L132.382 113.214L129.289 111.95L128.625 112.397C128.381 112.561 128.125 112.709 127.859 112.839L127.142 113.191L126.691 116.5H123.31L122.858 113.191L122.141 112.839C121.875 112.709 121.62 112.561 121.376 112.397L120.712 111.95L117.618 113.214L115.928 110.286L118.568 108.24L118.515 107.443C118.505 107.297 118.5 107.149 118.5 107C118.5 106.851 118.505 106.703 118.515 106.557L118.568 105.76L115.928 103.714L117.618 100.786L120.712 102.05L121.376 101.603C121.62 101.439 121.875 101.291 122.141 101.161L122.858 100.809L123.31 97.5H126.691L127.142 100.809Z" fill="white"/>
</g>
<defs>
<filter id="filter0_d_341_1639" x="0" y="0" width="150" height="136" filterUnits="userSpaceOnUse" color-interpolation-filters="sRGB">
<feFlood flood-opacity="0" result="BackgroundImageFix"/>
<feColorMatrix in="SourceAlpha" type="matrix" values="0 0 0 0 0 0 0 0 0 0 0 0 0 0 0 0 0 0 127 0" result="hardAlpha"/>
<feOffset dy="4"/>
<feGaussianBlur stdDeviation="2"/>
<feComposite in2="hardAlpha" operator="out"/>
<feColorMatrix type="matrix" values="0 0 0 0 0 0 0 0 0 0 0 0 0 0 0 0 0 0 0.25 0"/>
<feBlend mode="normal" in2="BackgroundImageFix" result="effect1_dropShadow_341_1639"/>
<feBlend mode="normal" in="SourceGraphic" in2="effect1_dropShadow_341_1639" result="shape"/>
</filter>
<clipPath id="clip0_341_1639">
<rect width="128" height="128" fill="white" transform="translate(4)"/>
</clipPath>
</defs>
</svg>
