<svg width="32" height="32" viewBox="0 0 32 32" fill="none" xmlns="http://www.w3.org/2000/svg">
<path d="M16.0002 14.6667C18.9456 14.6667 21.3335 12.2789 21.3335 9.33333C21.3335 6.38781 18.9456 4 16.0002 4C13.0546 4 10.6668 6.38781 10.6668 9.33333C10.6668 12.2789 13.0546 14.6667 16.0002 14.6667Z" fill="#D9D9D9"/>
<path d="M26.1088 21.972C26.4858 22.4099 26.6668 22.9777 26.6668 23.5555V25.3333C26.6668 26.8061 25.473 28 24.0002 28H8.00016C6.5274 28 5.3335 26.8061 5.3335 25.3333V23.5555C5.3335 22.9777 5.51451 22.4099 5.89146 21.972C8.33663 19.1317 11.9584 17.3333 16.0002 17.3333C20.0419 17.3333 23.6636 19.1317 26.1088 21.972Z" fill="#D9D9D9"/>
</svg>
