<svg width="24" height="20" viewBox="0 0 24 20" fill="none" xmlns="http://www.w3.org/2000/svg">
<path d="M19.2922 1.79926L19.2904 1.80126L9.30152 12.9607L4.63189 8.18225C3.68788 7.21625 2.14731 7.21625 1.20329 8.18225C0.265569 9.14182 0.265568 10.6982 1.20329 11.6578L7.65379 18.2585C8.074 18.6988 8.64188 18.9548 9.23833 18.9868L9.26416 19H9.38466H9.42301V19.0001L9.43249 18.9999C10.0951 18.9874 10.7224 18.6872 11.165 18.1976L11.1666 18.1957L22.8639 5.12707L22.8642 5.12681C23.7619 4.12248 23.7052 2.57596 22.718 1.65195C21.7253 0.722878 20.1965 0.799824 19.2922 1.79926Z" fill="#03C75A" stroke="#03C75A"/>
</svg>
