<svg width="40" height="40" viewBox="0 0 40 40" fill="none" xmlns="http://www.w3.org/2000/svg">
<circle cx="20" cy="20" r="15" fill="white"/>
<path d="M27.5002 15.0001C27.9883 15.4883 27.9883 16.2797 27.5002 16.7678L19.2173 25.0507C18.7292 25.5388 17.9378 25.5388 17.4497 25.0507L13.3335 20.9345C12.8454 20.4463 12.8454 19.655 13.3335 19.1668C13.8217 18.6787 14.6131 18.6787 15.1013 19.1668L18.3335 22.399L25.7323 15.0001C26.2205 14.512 27.012 14.512 27.5002 15.0001Z" fill="#96BA9E"/>
<path fill-rule="evenodd" clip-rule="evenodd" d="M36.6667 20.0002C36.6667 29.2048 29.2047 36.6668 20 36.6668C10.7953 36.6668 3.33334 29.2048 3.33334 20.0002C3.33334 10.7954 10.7953 3.3335 20 3.3335C29.2047 3.3335 36.6667 10.7954 36.6667 20.0002ZM34.1667 20.0002C34.1667 27.8242 27.824 34.1668 20 34.1668C12.176 34.1668 5.83334 27.8242 5.83334 20.0002C5.83334 12.1761 12.176 5.8335 20 5.8335C27.824 5.8335 34.1667 12.1761 34.1667 20.0002Z" fill="#96BA9E"/>
</svg>
