<svg width="26" height="26" viewBox="0 0 32 32" fill="none" xmlns="http://www.w3.org/2000/svg">
<path d="M24.0161 6.57121C24.4067 6.18069 25.0397 6.18069 25.4303 6.57121C25.8208 6.96174 25.8208 7.5949 25.4303 7.98542L17.4164 15.9993L25.4303 24.0131C25.8208 24.4037 25.8208 25.0369 25.4303 25.4274C25.0397 25.8179 24.4067 25.8179 24.0161 25.4274L16.0021 17.4135L7.98836 25.4273C7.93955 25.4762 7.88694 25.5189 7.83148 25.5555C7.44334 25.8118 6.91586 25.769 6.57415 25.4273C6.18362 25.0369 6.18362 24.4037 6.57415 24.0131L14.588 15.9993L6.57415 7.98549C6.18363 7.59497 6.18363 6.9618 6.57415 6.57128C6.96467 6.18076 7.59784 6.18076 7.98836 6.57128L16.0021 14.5851L24.0161 6.57121Z" fill="black"/>
</svg>
