<svg width="32" height="32" viewBox="0 0 32 32" fill="none" xmlns="http://www.w3.org/2000/svg">
<g clip-path="url(#clip0_240_759)">
<path d="M25.3333 5.33317H24V2.6665H21.3333V5.33317H10.6667V2.6665H8V5.33317H6.66667C5.18667 5.33317 4.01333 6.53317 4.01333 7.99984L4 26.6665C4 28.1332 5.18667 29.3332 6.66667 29.3332H25.3333C26.8 29.3332 28 28.1332 28 26.6665V7.99984C28 6.53317 26.8 5.33317 25.3333 5.33317ZM25.3333 26.6665H6.66667V13.3332H25.3333V26.6665ZM25.3333 10.6665H6.66667V7.99984H25.3333V10.6665ZM12 18.6665H9.33333V15.9998H12V18.6665ZM17.3333 18.6665H14.6667V15.9998H17.3333V18.6665ZM22.6667 18.6665H20V15.9998H22.6667V18.6665ZM12 23.9998H9.33333V21.3332H12V23.9998ZM17.3333 23.9998H14.6667V21.3332H17.3333V23.9998ZM22.6667 23.9998H20V21.3332H22.6667V23.9998Z" fill="#959595"/>
</g>
<defs>
<clipPath id="clip0_240_759">
<rect width="32" height="32" fill="white"/>
</clipPath>
</defs>
</svg>
