<svg width="32" height="32" viewBox="0 0 32 32" fill="none" xmlns="http://www.w3.org/2000/svg">
<path d="M16 5.3335C14.8955 5.3335 14 6.22892 14 7.3335C14 8.43807 14.8955 9.3335 16 9.3335C17.1045 9.3335 18 8.43807 18 7.3335C18 6.22892 17.1045 5.3335 16 5.3335Z" fill="#D9D9D9"/>
<path d="M14 16.0002C14 14.8956 14.8955 14.0002 16 14.0002C17.1045 14.0002 18 14.8956 18 16.0002C18 17.1047 17.1045 18.0002 16 18.0002C14.8955 18.0002 14 17.1047 14 16.0002Z" fill="#D9D9D9"/>
<path d="M14 24.6668C14 23.5623 14.8955 22.6668 16 22.6668C17.1045 22.6668 18 23.5623 18 24.6668C18 25.7714 17.1045 26.6668 16 26.6668C14.8955 26.6668 14 25.7714 14 24.6668Z" fill="#D9D9D9"/>
</svg>
