<svg width="22" height="22" viewBox="0 0 22 22" fill="none" xmlns="http://www.w3.org/2000/svg">
<path fill-rule="evenodd" clip-rule="evenodd" d="M21.3084 6.52505L7.01675 20.8167C6.57917 21.2543 5.98567 21.5001 5.36684 21.5001H1.66667C1.02233 21.5001 0.5 20.9778 0.5 20.3335V16.6333C0.5 16.0145 0.745833 15.421 1.18342 14.9834L15.4751 0.691718C16.3863 -0.219506 17.8637 -0.219504 18.7749 0.691719L21.3084 3.22522C22.2196 4.13645 22.2196 5.61383 21.3084 6.52505ZM13.7902 4.85148L17.1487 8.20994L5.77931 19.5793C5.66992 19.6887 5.52155 19.7501 5.36684 19.7501H2.25V16.6333C2.25 16.4786 2.31146 16.3302 2.42085 16.2208L13.7902 4.85148ZM15.0276 3.61404L18.3861 6.9725L20.071 5.28761C20.2988 5.05981 20.2988 4.69047 20.071 4.46266L17.5375 1.92916C17.3097 1.70135 16.9403 1.70135 16.7125 1.92915L15.0276 3.61404Z" fill="#9B9B9B"/>
</svg>
