<svg width="308" height="493" viewBox="0 0 308 493" fill="none" xmlns="http://www.w3.org/2000/svg">
<g clip-path="url(#clip0_267_829)">
<ellipse cx="154" cy="401" rx="119" ry="28" fill="#D9D9D9" fill-opacity="0.6"/>
<path d="M59.6699 232.029C38.8199 232.029 20.7799 221.299 11.3999 203.329C-0.660078 180.229 -0.830078 150.619 10.9799 127.889C21.7399 107.169 41.3999 93.9389 66.3399 90.6389C67.4599 90.4889 68.6099 90.4189 69.7599 90.4189C82.1999 90.4189 96.5899 99.389 108.25 114.409C123.27 133.759 130.05 157.729 125.51 175.469C121.01 193.079 111.81 207.219 97.3999 218.689C86.5999 227.289 73.1999 232.019 59.6699 232.019V232.029Z" fill="#FFF183"/>
<path d="M69.76 92.6692C98.17 92.6692 131.89 141.489 123.34 174.929C119 191.909 110.23 205.629 96.01 216.949C85.18 225.569 72.27 229.789 59.68 229.789C40.92 229.789 22.86 220.429 13.39 202.299C-7.35004 162.569 7.11996 100.749 66.64 92.8792C67.67 92.7392 68.72 92.6792 69.77 92.6792M69.77 88.1992C68.52 88.1992 67.27 88.2792 66.05 88.4392C40.37 91.8392 20.1 105.489 8.99996 126.879C-3.13004 150.229 -2.97004 180.659 9.41996 204.389C19.19 223.109 37.98 234.289 59.68 234.289C73.72 234.289 87.62 229.379 98.81 220.469C113.62 208.679 123.06 194.149 127.69 176.049C132.39 157.659 125.46 132.929 110.03 113.059C97.76 97.2592 83.09 88.1992 69.77 88.1992Z" fill="#212820"/>
<path d="M251.78 229.69C237.72 229.69 223.4 224.44 211.44 214.92C197.83 204.08 186.18 193.63 181.53 175.48C176.99 157.74 183.77 133.77 198.79 114.42C210.45 99.3997 224.85 90.4297 237.28 90.4297C238.43 90.4297 239.58 90.4997 240.7 90.6497C265.64 93.9497 285.3 107.18 296.06 127.9C307.86 150.63 307.7 180.24 295.64 203.34C286.9 220.09 270.91 229.7 251.78 229.7V229.69Z" fill="#FFF183"/>
<path d="M237.28 92.6699C238.33 92.6699 239.38 92.7399 240.41 92.8699C299.92 100.74 314.4 162.56 293.66 202.29C284.76 219.35 268.82 227.44 251.78 227.44C238.53 227.44 224.62 222.54 212.83 213.16C198.61 201.84 188.04 191.89 183.7 174.92C175.15 141.48 208.86 92.6599 237.28 92.6599M237.28 88.1799C223.96 88.1799 209.28 97.2399 197.01 113.04C181.58 132.92 174.65 157.64 179.35 176.03C184.17 194.86 196.09 205.57 210.03 216.67C222.39 226.51 237.21 231.92 251.77 231.92C271.77 231.92 288.48 221.87 297.62 204.36C310.01 180.63 310.17 150.21 298.04 126.85C286.93 105.46 266.67 91.8099 240.99 88.4099C239.77 88.2499 238.52 88.1699 237.27 88.1699L237.28 88.1799Z" fill="#212820"/>
<path d="M26.6997 200.261C22.9497 208.751 26.2997 218.831 34.5797 223.961L84.6297 252.401L101.44 208.571L49.5197 190.141C40.1597 187.471 30.4497 191.781 26.6997 200.271V200.261Z" fill="#90DD83"/>
<path d="M85.7898 255.641L33.4698 225.911C24.2398 220.201 20.4798 208.811 24.6498 199.361C28.8198 189.921 39.7898 185.031 50.1398 187.981L104.36 207.221L85.7898 255.641ZM28.7498 201.171C25.4798 208.581 28.4898 217.561 35.7598 222.051L83.4698 249.161L98.5198 209.911L48.7698 192.251C40.6898 189.951 32.0198 193.771 28.7498 201.171Z" fill="#212820"/>
<path d="M51.0698 199.47C48.1798 195.45 48.2798 190.44 51.2998 188.27C54.3198 186.1 59.1098 187.6 61.9998 191.61L66.1698 197.41" fill="#90DD83"/>
<path d="M51.0699 201.71C50.3699 201.71 49.6899 201.39 49.2499 200.78C47.5699 198.45 46.6699 195.73 46.7299 193.13C46.7899 190.33 47.9799 187.9 49.9899 186.45C52.0099 185 54.6999 184.65 57.3599 185.48C59.8399 186.26 62.1299 187.97 63.8099 190.3L67.9799 196.1C68.6999 197.1 68.4699 198.51 67.4699 199.23C66.4599 199.95 65.0599 199.72 64.3399 198.72L60.1699 192.92C59.0699 191.39 57.5599 190.24 56.0199 189.76C55.2499 189.52 53.7799 189.24 52.5999 190.09C51.4199 190.94 51.2199 192.42 51.1999 193.23C51.1699 194.84 51.7799 196.64 52.8799 198.17C53.5999 199.17 53.3699 200.58 52.3699 201.3C51.9699 201.58 51.5199 201.72 51.0599 201.72L51.0699 201.71Z" fill="#212820"/>
<path d="M279.43 200.26C283.18 208.75 279.83 218.83 271.55 223.96L221.5 252.4L204.69 208.57L256.61 190.14C265.97 187.47 275.68 191.78 279.43 200.27V200.26Z" fill="#90DD83"/>
<path d="M220.34 255.641L201.77 207.221L255.85 188.021C266.35 185.021 277.3 189.911 281.47 199.351C285.64 208.791 281.88 220.191 272.72 225.861L220.33 255.631L220.34 255.641ZM207.6 209.911L222.65 249.161L270.43 222.011C277.63 217.551 280.64 208.581 277.37 201.171C274.1 193.761 265.43 189.941 257.21 192.291L207.59 209.911H207.6Z" fill="#212820"/>
<path d="M255.05 199.47C257.94 195.45 257.84 190.44 254.82 188.27C251.8 186.1 247.01 187.6 244.12 191.61L239.95 197.41" fill="#90DD83"/>
<path d="M255.05 201.71C254.6 201.71 254.14 201.57 253.74 201.29C252.74 200.57 252.51 199.17 253.23 198.16C254.33 196.63 254.94 194.83 254.91 193.22C254.89 192.41 254.69 190.93 253.51 190.08C251.53 188.66 248.07 189.96 245.94 192.92L241.77 198.72C241.05 199.72 239.65 199.95 238.64 199.23C237.64 198.51 237.41 197.11 238.13 196.1L242.3 190.3C245.91 185.29 252.11 183.55 256.12 186.44C258.14 187.89 259.33 190.32 259.38 193.12C259.43 195.72 258.54 198.44 256.86 200.77C256.42 201.38 255.74 201.7 255.04 201.7L255.05 201.71Z" fill="#212820"/>
<path d="M106.958 398.637L110.905 398.955C125.984 400.171 139.192 388.933 140.408 373.855L142.59 346.793C143.806 331.715 132.568 318.506 117.49 317.29L113.543 316.972C98.465 315.756 85.2562 326.993 84.0404 342.072L81.8582 369.134C80.6424 384.212 91.8801 397.421 106.958 398.637Z" fill="#90DD83"/>
<path d="M113.15 401.289C112.34 401.289 111.53 401.259 110.72 401.189L106.77 400.869C98.8798 400.229 91.7098 396.559 86.5798 390.539C81.4498 384.509 78.9798 376.849 79.6198 368.959L81.7998 341.899C83.1098 325.619 97.4398 313.479 113.71 314.749L117.66 315.069C133.94 316.389 146.12 330.699 144.81 346.979L142.63 374.039C142 381.929 138.32 389.099 132.3 394.229C126.89 398.829 120.17 401.289 113.15 401.289ZM111.32 319.129C98.3598 319.129 87.3298 329.119 86.2698 342.249L84.0898 369.309C83.5498 376.009 85.6498 382.509 89.9998 387.629C94.3498 392.739 100.44 395.859 107.13 396.399L111.08 396.719C117.77 397.269 124.28 395.159 129.39 390.809C134.51 386.459 137.62 380.369 138.16 373.679L140.34 346.619C141.45 332.799 131.12 320.649 117.3 319.539L113.35 319.219C112.67 319.169 111.98 319.139 111.31 319.139L111.32 319.129Z" fill="#212820"/>
<path d="M195.217 316.979L191.27 317.298C176.192 318.513 164.954 331.722 166.17 346.8L168.352 373.863C169.568 388.941 182.776 400.178 197.855 398.963L201.802 398.644C216.88 397.428 228.118 384.22 226.902 369.141L224.72 342.079C223.504 327.001 210.295 315.764 195.217 316.979Z" fill="#90DD83"/>
<path d="M195.59 401.29C188.57 401.29 181.85 398.83 176.44 394.23C170.41 389.1 166.74 381.93 166.11 374.04L163.93 346.98C162.62 330.7 174.8 316.38 191.08 315.07L195.03 314.75C211.3 313.46 225.63 325.62 226.94 341.9L229.12 368.96C229.76 376.85 227.28 384.51 222.15 390.54C217.02 396.57 209.85 400.24 201.96 400.87L198.01 401.19C197.2 401.26 196.39 401.29 195.58 401.29H195.59ZM197.42 319.13C196.74 319.13 196.06 319.16 195.38 319.21L191.43 319.53C177.61 320.64 167.27 332.8 168.39 346.61L170.57 373.67C171.11 380.36 174.22 386.45 179.34 390.8C184.46 395.15 190.97 397.27 197.65 396.71L201.6 396.39C208.3 395.85 214.38 392.74 218.73 387.62C223.08 382.51 225.18 376 224.64 369.3L222.46 342.24C221.4 329.11 210.37 319.12 197.41 319.12L197.42 319.13Z" fill="#212820"/>
<path fill-rule="evenodd" clip-rule="evenodd" d="M208.2 203.27H97.3901C95.1801 203.27 93.1601 204.82 92.6001 206.95L57.2601 330.59C56.3101 334.22 58.4401 337.56 61.7201 337.56C83.1201 345.51 115.93 354.39 156.99 353.74C193.9 353.16 223.62 345.08 243.86 337.56C244.17 337.56 246.35 337.52 247.68 335.43C248.5 334.14 248.8 332.4 248.32 330.59L212.98 206.95C212.43 204.82 210.4 203.27 208.19 203.27H208.2Z" fill="#785536"/>
<path d="M152.7 356.02C121.15 356.02 90.4101 350.57 61.2801 339.79C59.3501 339.67 57.5901 338.73 56.3801 337.17C54.9001 335.26 54.4101 332.58 55.0801 330.02L90.4401 206.33C91.2301 203.28 94.1601 201.02 97.3901 201.02H208.2C211.42 201.02 214.35 203.28 215.16 206.38L250.49 329.97C251.11 332.35 250.78 334.76 249.58 336.63C248.21 338.78 246.04 339.65 244.32 339.78C216.55 350.06 187.18 355.51 157.03 355.98C155.59 356 154.15 356.01 152.71 356.01L152.7 356.02ZM97.3901 205.51C96.1901 205.51 95.0701 206.37 94.7701 207.52L59.4101 331.21C59.1001 332.39 59.2901 333.61 59.9301 334.44C60.2401 334.85 60.8101 335.33 61.7201 335.33H62.1201L62.5001 335.47C92.5401 346.63 124.29 352 156.95 351.51C186.71 351.04 215.69 345.64 243.08 335.47L243.46 335.33H243.86C244.07 335.33 245.13 335.28 245.79 334.24C246.32 333.42 246.45 332.3 246.15 331.17L210.82 207.58C210.51 206.39 209.38 205.52 208.19 205.52H97.3901V205.51Z" fill="#212820"/>
<path d="M152.72 230.24C204.038 230.24 245.64 190.648 245.64 141.81C245.64 92.9713 204.038 53.3799 152.72 53.3799C101.402 53.3799 59.7998 92.9713 59.7998 141.81C59.7998 190.648 101.402 230.24 152.72 230.24Z" fill="#90DD83"/>
<path d="M152.72 232.48C100.25 232.48 57.5498 191.81 57.5498 141.81C57.5498 91.8096 100.25 51.1396 152.72 51.1396C205.19 51.1396 247.88 91.8096 247.88 141.81C247.88 191.81 205.19 232.48 152.72 232.48ZM152.72 55.6196C102.72 55.6196 62.0398 94.2796 62.0398 141.81C62.0398 189.34 102.72 228 152.72 228C202.72 228 243.4 189.34 243.4 141.81C243.4 94.2796 202.72 55.6196 152.72 55.6196Z" fill="#212820"/>
<path d="M152.07 10.0095C232.93 -21.0405 300.54 71.0995 252.7 119.449C226.54 145.879 172.81 133.869 150.26 107.839C127.7 133.869 75.12 147.429 50.79 119.449C5.72995 67.6295 75.19 -25.3105 152.07 10.0095Z" fill="#FFF183"/>
<path d="M88.6898 137.199C72.0499 137.199 58.3598 131.569 49.0998 120.919C25.7398 94.0593 33.0998 58.2493 50.7498 34.6793C71.0498 7.57928 110.2 -11.2007 152.15 7.58928C198.53 -9.74072 239.7 13.0193 258.42 41.6893C276.39 69.1993 274.77 100.339 254.29 121.029C243.84 131.589 228.09 137.089 209.97 136.479C187.24 135.729 164.12 125.879 150.25 111.189C135.57 126.809 111.21 137.189 88.7398 137.199H88.6798H88.6898ZM117.88 4.50928C91.2398 4.50928 68.1698 18.8993 54.3298 37.3693C37.7598 59.4993 30.7598 92.9993 52.4698 117.969C63.0598 130.149 77.9998 132.709 88.6798 132.709H88.7299C110.52 132.689 135.12 121.859 148.55 106.369C149.4 105.389 151.09 105.389 151.94 106.369C164.59 120.969 187.97 131.259 210.11 131.989C227 132.569 241.53 127.529 251.09 117.869C270.02 98.7393 271.42 69.7993 254.65 44.1293C236.76 16.7493 197.28 -4.95072 152.86 12.0993C152.3 12.3093 151.67 12.2993 151.12 12.0393C139.71 6.79928 128.5 4.49928 117.86 4.49928L117.88 4.50928Z" fill="#212820"/>
<path d="M131.01 152.219C130.98 153.299 130.7 154.379 130.16 155.299C128.7 157.789 125.18 158.539 123.11 156.349C122.14 155.319 121.68 153.869 121.7 152.449C121.73 150.389 122.58 148.089 124.44 147.009C126.03 146.089 127.93 146.599 129.23 147.769C130.48 148.889 131.06 150.549 131.02 152.209L131.01 152.219Z" fill="#212820"/>
<path d="M182.97 152.219C182.94 153.299 182.66 154.379 182.12 155.299C180.66 157.789 177.14 158.539 175.07 156.349C174.1 155.319 173.64 153.869 173.66 152.449C173.69 150.389 174.54 148.089 176.4 147.009C177.99 146.089 179.89 146.599 181.19 147.769C182.44 148.889 183.02 150.549 182.98 152.209L182.97 152.219Z" fill="#212820"/>
<path d="M162.72 160.18C165.9 160.18 167.55 163.07 167.55 166.25C167.55 174.98 162.44 181.7 152.73 181.7C143.02 181.7 137.91 176.06 137.91 166.25C137.91 163.07 139.55 160.18 142.74 160.18H162.73H162.72Z" fill="white"/>
<path d="M152.72 183.939C141.88 183.939 135.65 177.489 135.65 166.249C135.65 161.349 138.56 157.939 142.72 157.939H162.71C166.87 157.939 169.78 161.359 169.78 166.249C169.78 176.999 163.08 183.939 152.71 183.939H152.72ZM142.72 162.419C140.21 162.419 140.13 165.859 140.13 166.249C140.13 175.139 144.25 179.449 152.71 179.449C161.99 179.449 165.29 172.629 165.29 166.249C165.29 165.859 165.22 162.419 162.7 162.419H142.71H142.72Z" fill="black"/>
<path d="M150.25 110.08C149.74 110.08 149.23 109.91 148.81 109.56C147.38 108.36 143.72 104.2 141.51 98.9802C141.03 97.8402 141.56 96.5302 142.7 96.0402C143.84 95.5602 145.16 96.0902 145.64 97.2302C147.54 101.74 150.74 105.32 151.69 106.12C152.64 106.91 152.76 108.33 151.97 109.28C151.53 109.81 150.89 110.08 150.25 110.08Z" fill="#212820"/>
<g opacity="0.6">
<path d="M197.23 182.67C205.106 182.67 211.49 176.286 211.49 168.41C211.49 160.535 205.106 154.15 197.23 154.15C189.355 154.15 182.97 160.535 182.97 168.41C182.97 176.286 189.355 182.67 197.23 182.67Z" fill="#60C172"/>
</g>
<g opacity="0.6">
<path d="M109.9 182.67C117.776 182.67 124.16 176.286 124.16 168.41C124.16 160.535 117.776 154.15 109.9 154.15C102.025 154.15 95.6401 160.535 95.6401 168.41C95.6401 176.286 102.025 182.67 109.9 182.67Z" fill="#60C172"/>
</g>
<path fill-rule="evenodd" clip-rule="evenodd" d="M246.82 91.9096C250.27 89.4496 252.47 85.3696 252.3 80.8196C252.04 73.6296 246 67.9996 238.81 68.2596C234.26 68.4196 230.34 70.8996 228.14 74.5196C225.68 71.0696 221.6 68.8696 217.05 69.0396C209.86 69.2996 204.23 75.3396 204.49 82.5296C204.65 87.0796 207.13 90.9996 210.75 93.1996C207.3 95.6596 205.1 99.7396 205.27 104.29C205.53 111.48 211.57 117.11 218.76 116.85C223.31 116.69 227.23 114.21 229.43 110.59C231.89 114.04 235.97 116.24 240.52 116.07C247.71 115.81 253.34 109.77 253.08 102.58C252.92 98.0296 250.44 94.1096 246.82 91.9096ZM228.92 96.2796C227.89 94.8296 226.58 93.6096 225.06 92.6896C226.51 91.6596 227.73 90.3496 228.65 88.8296C229.68 90.2796 230.99 91.4996 232.51 92.4196C231.06 93.4496 229.84 94.7596 228.92 96.2796Z" fill="#FFA969"/>
<path d="M218.29 119.1C214.42 119.1 210.75 117.66 207.9 115.01C204.91 112.23 203.19 108.45 203.04 104.38C202.89 100.24 204.42 96.2796 207.21 93.3396C204.21 90.5996 202.41 86.7696 202.26 82.6296C202.11 78.5496 203.56 74.6596 206.35 71.6796C209.13 68.6896 212.91 66.9696 216.98 66.8196C221.14 66.6596 225.07 68.1996 228.02 70.9896C230.76 67.9896 234.6 66.1896 238.74 66.0396C242.82 65.8996 246.71 67.3396 249.69 70.1196C252.68 72.8996 254.4 76.6796 254.55 80.7496C254.7 84.8896 253.17 88.8496 250.38 91.7896C253.38 94.5296 255.18 98.3696 255.33 102.5C255.63 110.92 249.03 118.01 240.61 118.31C236.47 118.46 232.51 116.93 229.57 114.14C226.83 117.14 222.99 118.94 218.85 119.09C218.66 119.09 218.47 119.1 218.29 119.1ZM217.53 71.2796C217.4 71.2796 217.27 71.2796 217.14 71.2796C214.26 71.3796 211.59 72.5996 209.63 74.7096C207.67 76.8196 206.64 79.5696 206.74 82.4496C206.87 86.0796 208.81 89.3896 211.93 91.2796C212.57 91.6696 212.98 92.3596 213.01 93.1096C213.04 93.8596 212.68 94.5796 212.07 95.0196C209.1 97.1396 207.4 100.57 207.53 104.2C207.63 107.08 208.85 109.75 210.96 111.71C213.07 113.68 215.83 114.72 218.7 114.6C222.33 114.47 225.64 112.53 227.53 109.41C227.92 108.76 228.61 108.36 229.36 108.33C230.11 108.27 230.83 108.66 231.27 109.27C233.39 112.25 236.84 113.93 240.45 113.81C246.4 113.6 251.06 108.58 250.85 102.64C250.72 99.0096 248.78 95.7096 245.66 93.8096C245.02 93.4196 244.61 92.7296 244.58 91.9796C244.55 91.2296 244.91 90.5096 245.52 90.0696C248.49 87.9496 250.19 84.5196 250.06 80.8896C249.96 78.0096 248.74 75.3396 246.63 73.3796C244.52 71.4096 241.77 70.4096 238.89 70.4896C235.26 70.6196 231.95 72.5596 230.05 75.6796C229.66 76.3296 228.97 76.7296 228.22 76.7596C227.48 76.8496 226.75 76.4296 226.31 75.8196C224.27 72.9496 221.01 71.2696 217.52 71.2696L217.53 71.2796ZM228.93 98.5296C228.21 98.5296 227.52 98.1796 227.1 97.5896C226.24 96.3796 225.17 95.3796 223.9 94.6096C223.26 94.2196 222.85 93.5296 222.82 92.7796C222.79 92.0296 223.15 91.3096 223.76 90.8696C224.97 90.0096 225.97 88.9296 226.74 87.6696C227.13 87.0296 227.82 86.6196 228.57 86.5896C229.35 86.5396 230.04 86.9196 230.48 87.5296C231.34 88.7396 232.42 89.7396 233.68 90.5096C234.32 90.8996 234.73 91.5896 234.76 92.3496C234.79 93.0996 234.43 93.8196 233.82 94.2596C232.61 95.1196 231.61 96.1896 230.84 97.4596C230.45 98.0996 229.76 98.5096 229 98.5396C228.97 98.5396 228.95 98.5396 228.92 98.5396L228.93 98.5296ZM228.62 92.5696C228.68 92.6296 228.74 92.6796 228.8 92.7396C228.86 92.6796 228.91 92.6196 228.97 92.5596C228.91 92.4996 228.85 92.4496 228.79 92.3896C228.73 92.4496 228.68 92.5096 228.62 92.5696Z" fill="#212820"/>
<path d="M228.27 101.31C233.235 101.31 237.26 97.2851 237.26 92.3201C237.26 87.355 233.235 83.3301 228.27 83.3301C223.305 83.3301 219.28 87.355 219.28 92.3201C219.28 97.2851 223.305 101.31 228.27 101.31Z" fill="white"/>
<path d="M228.27 103.55C222.26 103.55 217.27 98.7696 217.05 92.7296C216.94 89.7296 218.01 86.8696 220.05 84.6796C222.09 82.4896 224.87 81.2196 227.87 81.1096C230.87 80.9896 233.73 82.0696 235.92 84.1096C238.12 86.1596 239.38 88.9296 239.49 91.9296C239.6 94.9296 238.53 97.7896 236.49 99.9796C234.45 102.17 231.67 103.44 228.67 103.55C228.53 103.55 228.4 103.55 228.26 103.55H228.27ZM228.28 85.5796C228.2 85.5796 228.11 85.5796 228.03 85.5796C226.23 85.6496 224.56 86.4096 223.33 87.7296C222.1 89.0496 221.46 90.7596 221.53 92.5596C221.66 96.2796 224.76 99.1796 228.51 99.0596C230.31 98.9896 231.98 98.2296 233.2 96.9096C234.42 95.5896 235.07 93.8796 235 92.0796C234.94 90.2796 234.17 88.6096 232.86 87.3796C231.6 86.2096 229.98 85.5696 228.27 85.5696L228.28 85.5796Z" fill="#212820"/>
<path fill-rule="evenodd" clip-rule="evenodd" d="M107.82 46.6489C111.27 44.1889 113.47 40.1089 113.3 35.5589C113.04 28.3689 107 22.7389 99.8099 22.9989C95.2599 23.1589 91.3399 25.6389 89.1399 29.2589C86.6799 25.8089 82.5999 23.6089 78.0499 23.7789C70.8599 24.0389 65.2299 30.0789 65.4899 37.2689C65.6499 41.8189 68.1299 45.7389 71.7499 47.9389C68.2999 50.3989 66.0999 54.4789 66.2699 59.0289C66.5299 66.2189 72.5699 71.8489 79.7599 71.5889C84.3099 71.4289 88.2299 68.9489 90.4299 65.3289C92.8899 68.7789 96.9699 70.9789 101.52 70.8089C108.71 70.5489 114.34 64.5089 114.08 57.3189C113.92 52.7689 111.44 48.8489 107.82 46.6489ZM89.9199 51.0189C88.8899 49.5689 87.5799 48.3489 86.0599 47.4289C87.5099 46.3989 88.7299 45.0889 89.6499 43.5689C90.6799 45.0189 91.9899 46.2389 93.5099 47.1589C92.0599 48.1889 90.8399 49.4989 89.9199 51.0189Z" fill="#6DC6F7"/>
<path d="M79.2898 73.8391C75.4198 73.8391 71.7498 72.3991 68.8998 69.7491C65.9098 66.9691 64.1898 63.1891 64.0398 59.1191C63.8898 54.9791 65.4198 51.0191 68.2098 48.0791C65.2098 45.3391 63.4098 41.4991 63.2598 37.3591C62.9598 28.9391 69.5598 21.8491 77.9798 21.5491C82.1198 21.3891 86.0698 22.9291 89.0198 25.7191C91.7598 22.7191 95.5998 20.9191 99.7398 20.7691C103.83 20.5991 107.71 22.0691 110.69 24.8491C113.68 27.6291 115.4 31.4091 115.55 35.4791C115.7 39.6191 114.17 43.5791 111.38 46.5191C114.38 49.2591 116.18 53.0991 116.33 57.2391C116.63 65.6591 110.03 72.7491 101.61 73.0491C97.4698 73.2091 93.5098 71.6691 90.5698 68.8791C87.8298 71.8791 83.9998 73.6791 79.8498 73.8291C79.6598 73.8291 79.4698 73.8391 79.2898 73.8391ZM78.5298 26.0191C78.3998 26.0191 78.2698 26.0191 78.1398 26.0191C72.1898 26.2291 67.5298 31.2391 67.7398 37.1891C67.8698 40.8191 69.8098 44.1291 72.9298 46.0191C73.5698 46.4091 73.9798 47.0991 74.0098 47.8591C74.0398 48.6091 73.6798 49.3291 73.0698 49.7691C70.0998 51.8791 68.3998 55.3191 68.5298 58.9491C68.6298 61.8291 69.8498 64.4991 71.9598 66.4591C74.0698 68.4191 76.8398 69.4691 79.6998 69.3491C83.3398 69.2191 86.6398 67.2791 88.5398 64.1591C88.9298 63.5091 89.6198 63.1091 90.3698 63.0791C91.1098 63.0391 91.8398 63.4091 92.2798 64.0191C94.3998 66.9991 97.8498 68.6791 101.46 68.5591C107.41 68.3491 112.07 63.3391 111.86 57.3891C111.73 53.7591 109.79 50.4491 106.67 48.5591C106.03 48.1691 105.62 47.4791 105.59 46.7191C105.56 45.9691 105.92 45.2491 106.53 44.8091C109.5 42.6991 111.2 39.2591 111.07 35.6291C110.97 32.7491 109.75 30.0791 107.64 28.1191C105.53 26.1491 102.78 25.1491 99.8998 25.2291C96.2698 25.3591 92.9598 27.2991 91.0698 30.4191C90.6798 31.0691 89.9898 31.4691 89.2398 31.4991C88.4898 31.5391 87.7698 31.1691 87.3298 30.5591C85.2898 27.6891 82.0298 26.0091 78.5398 26.0091L78.5298 26.0191ZM89.9298 53.2691C89.2098 53.2691 88.5198 52.9191 88.0998 52.3291C87.2398 51.1191 86.1698 50.1191 84.8998 49.3491C84.2598 48.9591 83.8498 48.2691 83.8198 47.5091C83.7898 46.7591 84.1498 46.0391 84.7598 45.5991C85.9698 44.7391 86.9698 43.6691 87.7398 42.3991C88.1298 41.7591 88.8198 41.3491 89.5798 41.3191C90.3398 41.2691 91.0498 41.6491 91.4898 42.2591C92.3498 43.4691 93.4198 44.4691 94.6898 45.2391C95.3298 45.6291 95.7398 46.3191 95.7698 47.0791C95.7998 47.8291 95.4398 48.5491 94.8298 48.9891C93.6198 49.8491 92.6198 50.9191 91.8498 52.1891C91.4598 52.8291 90.7698 53.2391 90.0098 53.2691C89.9798 53.2691 89.9598 53.2691 89.9298 53.2691ZM89.6198 47.3091C89.6798 47.3691 89.7398 47.4191 89.8098 47.4791C89.8698 47.4191 89.9198 47.3591 89.9798 47.2991C89.9198 47.2391 89.8598 47.1891 89.7898 47.1291C89.7298 47.1891 89.6798 47.2491 89.6198 47.3091Z" fill="#212820"/>
<path d="M89.2698 56.0493C94.2348 56.0493 98.2598 52.0244 98.2598 47.0593C98.2598 42.0943 94.2348 38.0693 89.2698 38.0693C84.3047 38.0693 80.2798 42.0943 80.2798 47.0593C80.2798 52.0244 84.3047 56.0493 89.2698 56.0493Z" fill="white"/>
<path d="M89.2597 58.2891C86.4197 58.2891 83.7197 57.2291 81.6297 55.2791C79.4297 53.2291 78.1697 50.4591 78.0597 47.4591C77.9497 44.4591 79.0197 41.5991 81.0597 39.4091C83.0997 37.2191 85.8797 35.9491 88.8797 35.8391C91.8597 35.7191 94.7397 36.7991 96.9297 38.8391C99.1297 40.8791 100.39 43.6591 100.5 46.6491C100.61 49.6491 99.5397 52.5091 97.4997 54.6991C95.4597 56.8891 92.6797 58.1591 89.6797 58.2691C89.5397 58.2691 89.3997 58.2691 89.2597 58.2691V58.2891ZM89.2797 40.3191C89.1997 40.3191 89.1197 40.3191 89.0297 40.3191C87.2297 40.3891 85.5597 41.1491 84.3397 42.4691C83.1097 43.7891 82.4697 45.4991 82.5397 47.2991C82.5997 49.0991 83.3697 50.7691 84.6797 51.9991C85.9997 53.2291 87.7197 53.8491 89.5197 53.7991C91.3197 53.7291 92.9897 52.9691 94.2197 51.6491C95.4497 50.3291 96.0897 48.6191 96.0197 46.8191C95.9597 45.0191 95.1897 43.3491 93.8797 42.1291C92.6197 40.9591 90.9997 40.3191 89.2897 40.3191H89.2797Z" fill="#212820"/>
<rect x="82.02" y="453.013" width="82.8174" height="39.9739" rx="19.987" fill="#CFEDCA"/>
<path d="M101.259 481.5V464.531H104.306V478.922H111.806V481.5H101.259ZM114.437 464.531L118.844 477.914H119.031L123.461 464.531H126.812L120.812 481.5H117.062L111.086 464.531H114.437ZM139.786 481.734C136.387 481.734 133.903 479.719 133.809 476.906H136.786C136.879 478.289 138.169 479.273 139.786 479.273C141.684 479.273 143.044 477.891 143.044 476.016C143.044 474.07 141.637 472.688 139.692 472.688C138.379 472.664 137.419 473.133 136.879 474.141H134.044L135.075 464.531H145.106V467.086H137.583L137.067 471.586H137.231C137.887 470.836 139.129 470.297 140.512 470.297C143.676 470.297 145.997 472.664 145.997 475.922C145.997 479.32 143.442 481.734 139.786 481.734Z" fill="#3B8A72"/>
<path d="M200.612 469.643V472.689H196.833V486.137H193.083V459.535H196.833V469.643H200.612ZM180.368 462.084V476.527C183.781 476.483 187.443 476.161 191.296 475.385L191.677 478.49C187.223 479.398 182.887 479.633 178.962 479.633H176.647V462.084H180.368ZM225.802 474.447V477.436H215.372V486.166H211.681V477.436H201.398V474.447H225.802ZM222.872 460.824V471.576H204.269V460.824H222.872ZM207.96 463.783V468.646H219.152V463.783H207.96Z" fill="#191919"/>
</g>
<defs>
<clipPath id="clip0_267_829">
<rect width="308" height="493" fill="white"/>
</clipPath>
</defs>
</svg>
