<svg width="194" height="408" viewBox="0 0 194 408" fill="none" xmlns="http://www.w3.org/2000/svg">
<g clip-path="url(#clip0_267_520)">
<ellipse cx="97" cy="316" rx="84" ry="28" fill="#D9D9D9" fill-opacity="0.6"/>
<path d="M178.38 194.58C178.05 185.82 177.68 177.07 177.47 168.35C177.08 151.59 177.56 132.1 169.89 116.74C160.09 97.0998 141.56 82.7498 120.57 76.8098L115.2 53.5898H81.0903L75.8103 76.3198C75.7603 76.6198 71.3603 77.5998 70.8503 77.7698C69.1603 78.3198 67.4903 78.9198 65.8403 79.5798C62.5803 80.8798 59.4003 82.3798 56.3303 84.0898C50.3203 87.4298 44.7303 91.5298 39.7703 96.2898C27.4603 108.12 19.7403 123.57 17.7603 140.51C14.2003 171.07 9.8403 201.8 14.0803 232.57C16.8503 252.71 25.8703 275.73 46.9803 282.86V290.89C46.9803 303.41 57.1303 313.57 69.6603 313.57C82.1903 313.57 92.3403 303.42 92.3403 290.89V285.64C94.3603 285.68 106.88 285.73 108.9 285.78V290.89C108.9 303.41 119.05 313.57 131.58 313.57C144.11 313.57 154.26 303.42 154.26 290.89C154.26 288.78 153.38 283.73 154.49 281.9C154.71 281.54 155.06 281.27 155.39 281.01C162.72 275.39 168.99 270.46 173.15 261.99C176.69 254.78 178.71 246.16 178.71 238.11C179.35 223.65 178.92 209.1 178.37 194.57L178.38 194.58Z" fill="#90DD83"/>
<path d="M131.58 315.8C117.84 315.8 106.66 304.62 106.66 290.88V287.99C104.88 287.97 102.37 287.96 99.9302 287.94C97.9602 287.93 96.0402 287.91 94.5902 287.9V290.88C94.5902 304.62 83.4102 315.8 69.6702 315.8C55.9302 315.8 44.7502 304.62 44.7502 290.88V284.43C33.9202 280.26 16.7302 268.12 11.8802 232.88C7.95024 204.37 11.3602 175.63 14.6602 147.83L15.5502 140.25C17.5902 122.73 25.4402 106.97 38.2302 94.6696C43.2902 89.7996 49.0202 85.5896 55.2502 82.1296C58.3802 80.3896 61.6602 78.8296 65.0202 77.4996C66.7102 76.8296 68.4502 76.1996 70.1702 75.6396C70.3302 75.5896 70.8102 75.4596 71.4302 75.3096C72.0102 75.1696 73.1302 74.8896 73.9202 74.6596C74.4302 72.4096 75.7102 66.8996 78.9202 53.0796C79.1602 52.0596 80.0602 51.3496 81.1002 51.3496H115.2C116.24 51.3496 117.15 52.0696 117.38 53.0896L122.45 75.0296C144.23 81.5496 162.2 96.3296 171.89 115.75C179.01 130.01 179.33 147.63 179.6 163.17C179.63 164.9 179.66 166.62 179.7 168.3C179.86 175.25 180.14 182.35 180.4 189.22L180.6 194.49C181.13 208.54 181.59 223.49 180.94 238.21C180.94 246.43 178.83 255.49 175.15 262.98C170.66 272.13 163.9 277.31 156.74 282.79C156.62 282.88 156.42 283.04 156.36 283.1C155.96 283.84 156.22 287.08 156.34 288.47C156.42 289.42 156.48 290.27 156.48 290.89C156.48 304.63 145.3 315.81 131.56 315.81L131.58 315.8ZM92.3502 283.39H92.4002C93.3402 283.41 96.5802 283.43 99.9602 283.45C103.83 283.47 107.89 283.5 108.96 283.53C110.18 283.56 111.14 284.56 111.14 285.77V290.88C111.14 302.15 120.31 311.31 131.57 311.31C142.83 311.31 152 302.14 152 290.88C152 290.36 151.94 289.64 151.87 288.83C151.59 285.35 151.46 282.54 152.56 280.73C153 280 153.61 279.53 154.01 279.23C160.74 274.08 167.09 269.21 171.13 261C174.52 254.11 176.46 245.76 176.46 238.11C177.11 223.46 176.65 208.61 176.12 194.66L175.92 189.39C175.65 182.51 175.38 175.39 175.21 168.4C175.17 166.71 175.14 164.99 175.11 163.25C174.84 148.18 174.54 131.1 167.87 117.75C158.56 99.0896 141.09 84.9596 119.95 78.9696C119.16 78.7496 118.56 78.1096 118.38 77.3196L113.42 55.8296H82.8802C81.6502 61.1096 78.0502 76.6096 78.0102 76.8196C77.7302 78.3596 76.6302 78.6396 72.5102 79.6596C72.0502 79.7696 71.6902 79.8596 71.5402 79.9096C69.9302 80.4396 68.2802 81.0296 66.6802 81.6696C63.5102 82.9296 60.4002 84.4096 57.4302 86.0496C51.5402 89.3196 46.1202 93.3096 41.3402 97.9096C29.3002 109.47 21.9202 124.3 20.0002 140.77L19.1102 148.35C15.8502 175.87 12.4702 204.32 16.3202 232.26C18.3602 247.09 25.1602 273.11 47.7102 280.73C48.6202 281.04 49.2302 281.89 49.2302 282.85V290.88C49.2302 302.15 58.4002 311.31 69.6602 311.31C80.9202 311.31 90.0902 302.14 90.0902 290.88V285.63C90.0902 285.03 90.3302 284.45 90.7602 284.03C91.1802 283.62 91.7402 283.39 92.3302 283.39H92.3502ZM73.7302 75.5396C73.6902 75.6596 73.6502 75.7896 73.6202 75.9196H73.6402C73.6602 75.8296 73.6902 75.6996 73.7202 75.5396H73.7302Z" fill="#212820"/>
<path d="M138.3 69.4702C122.39 69.4702 106.76 63.1602 96.0799 58.1702L95.6199 58.4002C80.7899 65.6702 67.5999 69.2002 55.3099 69.2002C47.0099 69.2002 38.9999 67.5402 31.5099 64.2702C14.5899 56.8902 0.239939 41.1202 6.30994 22.5402C10.3399 10.2102 24.1499 2.24023 41.4999 2.24023C47.9399 2.24023 54.4899 3.31023 60.9499 5.42023C76.3599 10.4502 88.9599 28.0002 96.0599 40.0402C103.16 28.0002 115.76 10.4502 131.17 5.42023C137.63 3.31023 144.18 2.24023 150.62 2.24023C167.97 2.24023 181.78 10.2102 185.81 22.5402C188.11 29.5702 187.4 36.9802 183.76 43.9702C178.42 54.2402 166.89 63.3302 154.39 67.1402C149.33 68.6802 143.91 69.4602 138.3 69.4602V69.4702Z" fill="#FFF183"/>
<path d="M150.62 4.48C166.53 4.48 179.82 11.42 183.68 23.23C190.01 42.61 170.49 59.89 153.74 64.99C148.64 66.54 143.47 67.22 138.31 67.22C123.66 67.22 109.04 61.8 96.0699 55.67C96.0099 55.67 95.3299 56.04 95.3299 56.04C95.0999 56.15 94.8799 56.26 94.6499 56.37C82.0099 62.56 68.7199 66.95 55.3099 66.95C47.6799 66.95 40.0099 65.53 32.4099 62.21C17.2099 55.58 2.5799 41.17 8.4399 23.24C12.2999 11.42 25.5899 4.48 41.4999 4.48C47.4999 4.48 53.8699 5.47 60.2599 7.55C76.4299 12.83 89.5499 32.81 96.0599 44.56C102.58 32.82 115.7 12.84 131.86 7.55C138.24 5.46 144.61 4.48 150.62 4.48ZM150.62 0C143.94 0 137.16 1.11 130.47 3.29C123.52 5.56 110.29 12.78 96.0599 35.7C81.8299 12.79 68.5999 5.56 61.6499 3.29C54.9599 1.11 48.1799 0 41.4999 0C23.1699 0 8.5199 8.57 4.1799 21.85C-2.3301 41.76 12.7699 58.54 30.6099 66.33C38.3799 69.73 46.6899 71.45 55.3099 71.45C67.8099 71.45 81.1599 67.92 96.1099 60.66C106.9 65.64 122.41 71.72 138.3 71.72C144.13 71.72 149.77 70.9 155.04 69.3C168.09 65.33 180.14 55.79 185.75 45.02C189.67 37.48 190.43 29.47 187.94 21.86C183.61 8.58 168.96 0 150.62 0Z" fill="#212820"/>
<g opacity="0.6">
<path d="M128.4 179.48C136.474 179.48 143.02 172.935 143.02 164.86C143.02 156.786 136.474 150.24 128.4 150.24C120.325 150.24 113.78 156.786 113.78 164.86C113.78 172.935 120.325 179.48 128.4 179.48Z" fill="#60C172"/>
</g>
<g opacity="0.6">
<path d="M55.0502 179.48C63.1246 179.48 69.6702 172.935 69.6702 164.86C69.6702 156.786 63.1246 150.24 55.0502 150.24C46.9758 150.24 40.4302 156.786 40.4302 164.86C40.4302 172.935 46.9758 179.48 55.0502 179.48Z" fill="#60C172"/>
</g>
<path d="M73.2402 151.04C73.2202 151.87 73.0002 152.69 72.5902 153.4C71.4702 155.31 68.7802 155.88 67.1902 154.2C66.4402 153.41 66.0902 152.3 66.1102 151.22C66.1302 149.64 66.7802 147.88 68.2002 147.06C69.4102 146.36 70.8702 146.75 71.8702 147.64C72.8202 148.49 73.2702 149.77 73.2402 151.04Z" fill="#191919"/>
<path d="M115.86 151.04C115.84 151.87 115.62 152.69 115.21 153.4C114.09 155.31 111.4 155.88 109.81 154.2C109.06 153.41 108.71 152.3 108.73 151.22C108.75 149.64 109.4 147.88 110.82 147.06C112.03 146.36 113.49 146.75 114.49 147.64C115.44 148.49 115.89 149.77 115.86 151.04Z" fill="#191919"/>
<path d="M99.5901 156.391C102.41 156.391 103.86 158.941 103.86 161.761C103.86 169.491 99.3401 175.431 90.7401 175.431C82.1401 175.431 77.6201 170.441 77.6201 161.761C77.6201 158.941 79.0701 156.391 81.8901 156.391H99.5801H99.5901Z" fill="white"/>
<path d="M90.7501 177.67C80.9901 177.67 75.3901 171.87 75.3901 161.76C75.3901 157.35 78.1301 154.15 81.9001 154.15H99.5901C103.36 154.15 106.1 157.35 106.1 161.76C106.1 171.28 99.9301 177.67 90.7401 177.67H90.7501ZM81.9101 158.63C79.9401 158.63 79.8801 161.44 79.8801 161.76C79.8801 169.45 83.4401 173.18 90.7501 173.18C97.5601 173.18 101.62 168.91 101.62 161.76C101.62 161.44 101.56 158.63 99.5901 158.63H81.9001H81.9101Z" fill="black"/>
<path d="M11.1099 211.611C5.94988 207.411 2.95988 202.221 3.25988 196.021C3.52988 190.461 6.17988 185.551 9.30988 181.211C14.2199 174.411 23.9799 167.061 33.9999 169.951C45.4999 173.271 49.0299 187.131 46.0399 196.001C41.9699 208.091 25.8399 222.631 11.1099 211.611Z" fill="#90DD83"/>
<path d="M22.2099 217.76C17.8599 217.76 13.6399 216.3 9.76988 213.41L9.69988 213.35C3.62988 208.4 0.709882 202.53 1.01988 195.9C1.33988 189.13 4.86988 183.52 7.48988 179.88C13.4099 171.67 24.0999 164.74 34.6199 167.78C39.7499 169.26 43.8399 172.68 46.4599 177.68C49.4999 183.49 50.1599 190.78 48.1699 196.7C45.6499 204.19 38.3799 213.67 28.3799 216.78C26.3099 217.43 24.2399 217.75 22.1999 217.75L22.2099 217.76ZM12.4999 209.84C17.0299 213.21 21.9199 214.11 27.0599 212.51C35.1799 209.98 41.6899 201.93 43.9299 195.28C45.5199 190.56 44.9599 184.47 42.4999 179.78C41.0799 177.07 38.3499 173.54 33.3899 172.11C23.7499 169.33 14.8699 177.35 11.1399 182.52C7.49988 187.56 5.70988 191.89 5.50988 196.13C5.25988 201.24 7.61988 205.86 12.4999 209.85V209.84Z" fill="#212820"/>
<path d="M174.45 175.13C183.9 186.31 193.97 197.7 190.17 213.39C188.37 220.81 181.85 225.32 174.37 225.68C161.9 226.27 152.7 215.55 149.47 204.55" fill="#90DD83"/>
<path d="M172.87 176.72C180.88 186.2 190.56 197.06 188.48 210.48C187.59 216.19 184.36 220.84 178.7 222.65C173.04 224.46 167.05 223.13 162.28 219.74C157.03 216.01 153.46 210.05 151.63 203.96C150.8 201.2 146.47 202.38 147.31 205.15C151.21 218.17 162.72 230.06 177.29 227.6C183.89 226.49 189.53 222.02 191.82 215.7C194.38 208.64 193.32 200.64 190.39 193.9C187.06 186.25 181.37 179.86 176.04 173.55C174.17 171.34 171.02 174.53 172.87 176.72Z" fill="#212820"/>
<path d="M90.6198 287.91C87.8198 287.91 82.4898 287.66 78.1398 285.96C76.9898 285.51 76.4198 284.21 76.8698 283.06C77.3198 281.91 78.6198 281.33 79.7698 281.79C83.8098 283.36 89.4998 283.55 92.2298 283.4C93.4498 283.32 94.5198 284.29 94.5898 285.52C94.6598 286.76 93.7098 287.81 92.4698 287.88C92.2498 287.89 91.5898 287.92 90.6198 287.92V287.91Z" fill="#212820"/>
<rect x="25.6324" y="368.013" width="82.8174" height="39.9739" rx="19.987" fill="#CFEDCA"/>
<path d="M44.6958 396.5V379.531H47.7427V393.922H55.2427V396.5H44.6958ZM57.8739 379.531L62.2802 392.914H62.4677L66.8974 379.531H70.2489L64.2489 396.5H60.4989L54.5224 379.531H57.8739ZM83.363 396.734C79.7302 396.734 77.1521 394.766 77.0818 391.906H80.1521C80.2458 393.266 81.6052 394.156 83.363 394.156C85.238 394.156 86.574 393.125 86.574 391.625C86.574 390.102 85.2615 389 83.0583 389H81.5349V386.656H83.0583C84.863 386.656 86.1286 385.648 86.1052 384.172C86.1286 382.742 85.0505 381.781 83.3865 381.781C81.7927 381.781 80.4099 382.672 80.363 384.102H77.4333C77.5036 381.242 80.0818 379.297 83.4099 379.297C86.8552 379.297 89.0818 381.406 89.0583 384.008C89.0818 385.906 87.8161 387.289 85.9646 387.664V387.805C88.3552 388.133 89.7146 389.656 89.6911 391.789C89.7146 394.648 87.0427 396.734 83.363 396.734Z" fill="#3B8A72"/>
<path d="M143.727 385.141V388.07H133.414V389.799H140.768V396.625H125.914V398.207H141.471V401.02H122.252V394.018H137.076V392.582H122.223V389.799H129.693V388.07H119.41V385.141H143.727ZM141.529 375.297V378.168H134.059C134.938 379.779 137.735 381.259 142.672 381.596L141.5 384.408C136.564 384.042 133.15 382.489 131.539 380.248C129.942 382.475 126.559 384.042 121.666 384.408L120.494 381.596C125.401 381.259 128.17 379.794 129.049 378.168H121.637V375.297H141.529ZM167.452 374.535V401.195H163.672V374.535H167.452ZM159.454 377.318C159.454 385.404 156.612 392.113 147.09 396.625L145.127 393.637C152.012 390.385 155.044 386.166 155.645 380.248H146.563V377.318H159.454Z" fill="#191919"/>
</g>
<defs>
<clipPath id="clip0_267_520">
<rect width="194" height="408" fill="white"/>
</clipPath>
</defs>
</svg>
