<svg width="272" height="461" viewBox="0 0 272 461" fill="none" xmlns="http://www.w3.org/2000/svg">
<g clip-path="url(#clip0_249_2979)">
<ellipse cx="135.5" cy="369" rx="104" ry="28" fill="#D9D9D9" fill-opacity="0.6"/>
<path d="M105.9 295.907L101.026 295.514C85.9474 294.298 72.7385 305.536 71.5227 320.614L70.2255 336.702C69.0097 351.78 80.2473 364.989 95.3255 366.204L100.2 366.597C115.278 367.813 128.487 356.576 129.702 341.498L131 325.41C132.215 310.332 120.978 297.123 105.9 295.907Z" fill="#90DD83"/>
<path d="M102.43 368.93C101.63 368.93 100.83 368.9 100.03 368.83L95.1498 368.44C78.8698 367.13 66.6898 352.81 67.9998 336.53L69.2998 320.44C69.9398 312.55 73.6098 305.38 79.6298 300.25C85.6598 295.12 93.3098 292.65 101.21 293.29L106.09 293.68C122.37 295 134.55 309.31 133.24 325.59L131.94 341.68C130.69 357.16 117.7 368.93 102.43 368.93ZM100.39 364.36C114.2 365.44 126.36 355.14 127.47 341.32L128.77 325.23C129.88 311.41 119.55 299.26 105.73 298.15L100.85 297.76C94.1598 297.21 87.6498 299.32 82.5398 303.67C77.4198 308.02 74.3098 314.11 73.7698 320.8L72.4698 336.89C71.9298 343.59 74.0298 350.09 78.3798 355.21C82.7298 360.32 88.8198 363.44 95.5098 363.98L100.39 364.37V364.36Z" fill="#212820"/>
<path d="M172.043 366.589L176.917 366.196C191.996 364.98 203.233 351.771 202.017 336.693L200.72 320.605C199.504 305.527 186.295 294.289 171.217 295.505L166.343 295.898C151.265 297.114 140.027 310.323 141.243 325.401L142.54 341.489C143.756 356.567 156.965 367.804 172.043 366.589Z" fill="#90DD83"/>
<path d="M169.83 368.93C154.56 368.93 141.57 357.16 140.32 341.68L139.02 325.59C137.71 309.31 149.89 294.99 166.17 293.68L171.05 293.29C178.94 292.66 186.6 295.13 192.63 300.25C198.66 305.38 202.33 312.55 202.96 320.44L204.26 336.53C204.9 344.42 202.42 352.08 197.3 358.11C192.17 364.14 185 367.81 177.11 368.44L172.23 368.83C171.42 368.89 170.62 368.93 169.83 368.93ZM173.48 297.67C172.79 297.67 172.11 297.7 171.42 297.75L166.54 298.14C152.72 299.25 142.38 311.41 143.5 325.22L144.8 341.31C145.91 355.13 158.07 365.43 171.88 364.35L176.76 363.96C183.46 363.42 189.54 360.31 193.89 355.19C198.24 350.07 200.34 343.57 199.8 336.87L198.5 320.78C197.96 314.09 194.85 308 189.73 303.65C185.14 299.75 179.44 297.66 173.48 297.66V297.67Z" fill="#212820"/>
<path d="M226.38 202.87C234.73 211.08 243.92 219.57 248.23 230.74C253.62 244.73 249.25 261.17 233.35 264.96C226.11 266.69 217.91 264.85 212.2 260.04C205.11 254.06 201.33 244.98 197.87 236.62C196.47 233.24 195.18 229.82 193.95 226.37" fill="#90DD83"/>
<path d="M224.8 204.45C236.22 215.67 251.63 229.87 247.62 247.73C246.11 254.45 241.6 259.93 235 262.16C226.21 265.13 216.88 262.32 210.75 255.51C207.28 251.65 204.82 246.96 202.69 242.26C200.25 236.88 198.1 231.36 196.11 225.79C195.14 223.09 190.81 224.26 191.79 226.98C193.74 232.42 195.86 237.79 198.18 243.08C200.23 247.74 202.54 252.3 205.66 256.35C208.85 260.49 212.75 263.84 217.61 265.84C222.35 267.79 227.62 268.29 232.66 267.39C241.01 265.9 247.82 260.3 250.88 252.42C253.85 244.77 252.91 236.02 249.76 228.59C245.13 217.68 236.26 209.43 227.96 201.27C225.9 199.25 222.73 202.41 224.79 204.44L224.8 204.45Z" fill="#212820"/>
<path d="M76.8998 222.62C65.7698 218.97 54.0198 214.69 42.1098 215.98C27.1998 217.6 14.5998 229.03 18.5198 244.9C20.2998 252.12 25.6898 258.57 32.5898 261.44C41.1598 265 50.9598 264.2 59.9698 263.44C63.6098 263.13 67.2498 262.71 70.8698 262.23" fill="#90DD83"/>
<path d="M77.4998 220.46C66.9298 216.99 56.0398 213.05 44.7398 213.54C36.4798 213.9 28.1098 216.83 22.2698 222.87C16.5098 228.83 14.4198 237.05 16.2698 245.09C18.3698 254.25 25.4598 261.6 34.3298 264.45C40.0298 266.29 46.1698 266.51 52.1098 266.23C58.3898 265.94 64.6598 265.28 70.8898 264.46C72.0898 264.3 73.1298 263.54 73.1298 262.22C73.1298 261.13 72.0998 259.82 70.8898 259.98C65.7198 260.67 60.5398 261.2 55.3398 261.56C50.5198 261.9 45.5898 262.1 40.7998 261.36C36.4598 260.69 32.1698 259.3 28.6798 256.56C25.5598 254.11 23.0098 250.77 21.5698 247.06C19.0298 240.5 19.6898 233.02 24.1798 227.46C28.5798 222.02 35.5098 218.89 42.3898 218.18C54.0898 216.99 65.3998 221.17 76.3198 224.77C79.0698 225.67 80.2498 221.34 77.5098 220.45L77.4998 220.46Z" fill="#212820"/>
<path fill-rule="evenodd" clip-rule="evenodd" d="M190.13 199.32H80.9601C78.9601 199.32 77.1301 200.82 76.6301 202.88L49.1501 315.8C48.2901 319.31 50.2201 322.55 53.1901 322.55C72.5401 330.24 102.22 338.84 139.34 338.21C172.72 337.65 199.59 329.83 217.9 322.55C218.18 322.55 220.15 322.51 221.36 320.49C222.1 319.24 222.37 317.56 221.94 315.81L194.46 202.89C193.96 200.83 192.13 199.33 190.13 199.33V199.32Z" fill="#785536"/>
<path d="M135.46 340.48C106.9 340.48 79.0902 335.2 52.7202 324.77C50.9902 324.64 49.4402 323.8 48.3202 322.38C46.8502 320.51 46.3502 317.85 46.9702 315.27L74.4502 202.35C75.1902 199.29 77.9302 197.08 80.9602 197.08H190.13C193.16 197.08 195.89 199.3 196.64 202.35L224.12 315.27C224.67 317.51 224.36 319.83 223.29 321.63C222.03 323.74 220.02 324.62 218.39 324.77C193.25 334.72 166.67 339.99 139.38 340.45C138.07 340.47 136.77 340.48 135.46 340.48ZM80.9602 201.56C79.9902 201.56 79.0602 202.35 78.8102 203.41L51.3302 316.33C51.0302 317.57 51.2302 318.82 51.8402 319.61C52.2002 320.07 52.6602 320.31 53.1902 320.31H53.6202L54.0202 320.47C81.1502 331.26 109.83 336.51 139.31 335.97C166.18 335.52 192.35 330.3 217.08 320.47L217.48 320.31H217.91C218.07 320.31 218.89 320.26 219.44 319.34C219.92 318.54 220.04 317.44 219.77 316.33L192.29 203.41C192.03 202.36 191.11 201.56 190.14 201.56H80.9602Z" fill="#212820"/>
<path d="M183.41 260.55C168.35 260.55 153.79 253.93 143.47 242.4C140.25 238.8 137.51 234.77 135.32 230.42C134.25 232.55 133.07 234.57 131.78 236.34C120.97 251.22 104.53 259.76 86.6799 259.76C68.8299 259.76 53.3699 251.74 42.7199 237.76C29.7799 220.77 28.5299 197.59 39.5199 178.7C41.9499 174.52 44.9399 170.66 48.3999 167.24C46.0399 166.89 43.7499 166.38 41.6699 165.7C24.4099 160.09 11.2799 147.31 5.65989 130.63C0.0498931 114.01 2.65989 96.0805 12.8099 81.4305C22.7399 67.1005 38.5899 58.8805 56.3199 58.8805C60.2299 58.8805 64.1599 59.3005 67.9999 60.1305C72.7199 61.1505 77.3099 62.8005 81.6399 65.0305C81.2499 62.6805 81.0199 60.3405 81.0199 58.1505C81.0199 26.8005 105.14 2.23047 135.94 2.23047C141.41 2.23047 146.89 3.04047 152.24 4.65047C172.69 10.7905 187.34 28.8105 189.55 50.5505C190.04 55.3605 189.89 60.2405 189.1 65.0405C191.21 63.9505 193.36 63.0105 195.45 62.3305C201.37 60.4105 207.42 59.4305 213.44 59.4305C243.54 59.4305 267.66 83.1905 268.34 113.53C268.82 134.88 256.21 154.37 236.22 163.2C231.79 165.15 227.11 166.51 222.3 167.25C223.99 168.92 225.55 170.67 226.84 172.45C237.51 187.13 240.61 205.19 235.36 221.99C230.13 238.73 217.48 251.7 200.66 257.59C195.07 259.55 189.27 260.54 183.44 260.54L183.41 260.55ZM115.76 111.71C117.07 119.1 116.72 126.03 114.69 132.29C112.71 138.38 108.88 144.08 103.29 149.21C110.75 150.2 117.24 152.68 122.57 156.55C127.75 160.32 131.98 165.72 135.14 172.61C138.39 165.82 142.75 160.42 148.08 156.54C153.26 152.77 159.71 150.42 167.24 149.55C161.79 144.37 158 138.55 155.96 132.28C153.98 126.19 153.74 119.33 155.23 111.89C148.62 115.47 141.91 117.28 135.31 117.28C128.71 117.28 122.34 115.4 115.74 111.7L115.76 111.71Z" fill="#FFF183"/>
<path d="M135.92 4.48C141.06 4.48 146.32 5.23 151.58 6.81C172.16 12.99 185.28 30.95 187.3 50.79C187.77 55.36 187.63 60.04 186.87 64.69C186.63 66.15 187.77 67.37 189.07 67.37C189.41 67.37 189.77 67.29 190.11 67.1C192.12 66.01 194.13 65.12 196.12 64.48C201.96 62.58 207.77 61.69 213.41 61.69C241.6 61.69 265.4 83.93 266.07 113.6C266.55 135.09 253.53 153.11 235.28 161.16C231.07 163.02 226.59 164.33 221.93 165.04C220.08 165.32 219.28 167.58 220.64 168.87C222.3 170.44 223.76 172.08 224.99 173.77C246.65 203.58 233.5 243.71 199.89 255.48C194.4 257.4 188.85 258.3 183.41 258.3C168.73 258.3 154.84 251.74 145.14 240.89C142.08 237.46 139.44 233.61 137.32 229.39C136.89 228.54 136.07 228.11 135.25 228.11C134.43 228.11 133.67 228.52 133.28 229.35C132.3 231.42 131.19 233.31 129.96 235C119.01 250.07 102.81 257.49 86.6698 257.49C70.5298 257.49 55.1598 250.38 44.4898 236.37C31.4698 219.27 31.4098 197.03 41.4398 179.79C43.7498 175.82 46.6098 172.12 49.9598 168.8C51.2898 167.48 50.6098 165.19 48.7498 164.94C46.4798 164.64 44.3298 164.18 42.3498 163.53C7.30979 152.17 -5.65021 111.98 14.6298 82.7C24.5498 68.38 40.2998 61.12 56.2998 61.12C60.0398 61.12 63.7998 61.52 67.4998 62.32C71.9898 63.29 76.3998 64.86 80.5798 67.02C80.9298 67.2 81.2998 67.28 81.6498 67.28C82.9698 67.28 84.1398 66.13 83.8698 64.67C83.4498 62.42 83.2298 60.24 83.2298 58.15C83.2298 26.98 107.72 4.48 135.91 4.48M135.13 174.84C135.93 174.84 136.74 174.43 137.14 173.59C140.08 167.49 144.13 162.19 149.4 158.36C154.51 154.65 160.76 152.56 167.51 151.78C169.36 151.57 170.14 149.24 168.79 147.95C163.9 143.27 160.11 137.78 158.1 131.58C156.15 125.58 156.1 118.98 157.44 112.33C157.73 110.88 156.55 109.66 155.23 109.66C154.89 109.66 154.53 109.74 154.19 109.92C148.23 113.13 141.83 115.03 135.32 115.03C128.81 115.03 122.72 113.04 116.81 109.71C116.46 109.51 116.1 109.43 115.74 109.43C114.44 109.43 113.26 110.62 113.52 112.06C114.73 118.72 114.56 125.39 112.55 131.59C110.6 137.59 106.76 142.96 101.77 147.55C100.4 148.81 101.13 151.15 102.98 151.4C109.69 152.31 115.98 154.53 121.25 158.36C126.36 162.07 130.27 167.38 133.1 173.55C133.49 174.4 134.31 174.83 135.13 174.83M135.92 0C120.83 0 106.6 5.84 95.8598 16.44C84.8298 27.33 78.7598 42.14 78.7598 58.16C78.7598 59.17 78.8098 60.21 78.8998 61.27C75.5298 59.83 72.0298 58.71 68.4598 57.94C64.4698 57.08 60.3898 56.64 56.3098 56.64C37.8398 56.64 21.3098 65.21 10.9598 80.15C0.38979 95.39 -2.32021 114.04 3.51979 131.34C9.37979 148.7 23.0298 162 40.9698 167.83C41.9298 168.14 42.9298 168.42 43.9698 168.66C41.5598 171.42 39.4098 174.4 37.5698 177.56C26.1198 197.24 27.4398 221.4 40.9298 239.11C52.0098 253.66 68.6798 262 86.6798 262C104.68 262 122.36 253.13 133.6 237.66C134.19 236.84 134.77 235.97 135.32 235.06C137.2 238.21 139.37 241.17 141.81 243.89C152.55 255.9 167.72 262.79 183.42 262.79C189.51 262.79 195.56 261.76 201.38 259.72C218.88 253.6 232.03 240.09 237.48 222.67C242.95 205.18 239.72 186.4 228.63 171.14C228.04 170.32 227.39 169.51 226.69 168.7C230.27 167.89 233.75 166.73 237.1 165.26C257.93 156.07 271.06 135.75 270.56 113.49C269.85 81.92 244.75 57.2 213.42 57.2C207.17 57.2 200.88 58.21 194.74 60.21C193.78 60.52 192.8 60.89 191.82 61.3C192.15 57.65 192.13 53.98 191.76 50.34C189.46 27.69 174.19 8.92 152.87 2.52C147.3 0.85 141.6 0 135.92 0ZM107.94 147.74C112.14 143.17 115.12 138.23 116.82 132.98C118.57 127.61 119.14 121.79 118.55 115.64C124.19 118.22 129.82 119.53 135.33 119.53C140.84 119.53 146.69 118.28 152.35 115.82C151.64 121.98 152.13 127.74 153.84 132.98C155.58 138.35 158.54 143.39 162.63 148.02C156.55 149.25 151.23 151.5 146.77 154.74C142.2 158.06 138.32 162.42 135.18 167.75C132.14 162.35 128.35 157.98 123.89 154.74C119.32 151.42 113.97 149.07 107.93 147.74H107.94Z" fill="#212820"/>
<path d="M135.54 227.321C183.395 227.321 222.19 188.526 222.19 140.671C222.19 92.815 183.395 54.0205 135.54 54.0205C87.6844 54.0205 48.8899 92.815 48.8899 140.671C48.8899 188.526 87.6844 227.321 135.54 227.321Z" fill="#90DD83"/>
<path d="M135.54 229.57C86.5299 229.57 46.6499 189.69 46.6499 140.68C46.6499 91.6703 86.5299 51.7803 135.54 51.7803C184.55 51.7803 224.43 91.6603 224.43 140.67C224.43 189.68 184.55 229.56 135.54 229.56V229.57ZM135.54 56.2703C88.9999 56.2703 51.1299 94.1303 51.1299 140.68C51.1299 187.23 88.9899 225.09 135.54 225.09C182.09 225.09 219.95 187.22 219.95 140.68C219.95 94.1403 182.09 56.2703 135.54 56.2703Z" fill="#212820"/>
<path d="M113.17 131.51C113.15 132.47 112.89 133.42 112.41 134.24C111.12 136.44 108.01 137.11 106.17 135.17C105.31 134.26 104.9 132.98 104.92 131.72C104.95 129.89 105.7 127.86 107.34 126.9C108.74 126.08 110.43 126.54 111.58 127.57C112.68 128.56 113.2 130.03 113.16 131.5L113.17 131.51Z" fill="#212820"/>
<path d="M166.65 131.51C166.63 132.47 166.37 133.42 165.89 134.24C164.6 136.44 161.49 137.11 159.65 135.17C158.79 134.26 158.38 132.98 158.4 131.72C158.43 129.89 159.18 127.86 160.82 126.9C162.22 126.08 163.91 126.54 165.06 127.57C166.16 128.56 166.68 130.03 166.64 131.5L166.65 131.51Z" fill="#212820"/>
<path d="M136.18 151.81C127.56 151.81 121.48 147.45 119.2 145.51C118.26 144.71 118.15 143.29 118.95 142.35C119.75 141.41 121.17 141.29 122.11 142.1C124.09 143.79 129.52 147.71 137.19 147.31C143.58 147.01 148.09 143.92 150.21 142.11C151.15 141.31 152.56 141.41 153.37 142.36C154.18 143.3 154.07 144.72 153.13 145.52C150.58 147.71 145.14 151.43 137.41 151.8C137 151.82 136.59 151.83 136.18 151.83V151.81Z" fill="#212820"/>
<g opacity="0.6">
<path d="M184.49 164.53C194.343 164.53 202.33 156.542 202.33 146.69C202.33 136.837 194.343 128.85 184.49 128.85C174.637 128.85 166.65 136.837 166.65 146.69C166.65 156.542 174.637 164.53 184.49 164.53Z" fill="#60C172"/>
</g>
<g opacity="0.6">
<path d="M87.09 164.53C96.9428 164.53 104.93 156.542 104.93 146.69C104.93 136.837 96.9428 128.85 87.09 128.85C77.2372 128.85 69.25 136.837 69.25 146.69C69.25 156.542 77.2372 164.53 87.09 164.53Z" fill="#60C172"/>
</g>
<rect x="64.0369" y="421.013" width="83.8174" height="39.9739" rx="19.987" fill="#CFEDCA"/>
<path d="M83.4362 449.5V432.531H86.4831V446.922H93.9831V449.5H83.4362ZM96.6143 432.531L101.021 445.914H101.208L105.638 432.531H108.989L102.989 449.5H99.2393L93.2627 432.531H96.6143ZM115.635 446.336V443.898L122.971 432.531H126.767V443.828H128.994V446.336H126.767V449.5H123.861V446.336H115.635ZM118.752 443.828H123.908V436H123.721L118.752 443.711V443.828Z" fill="#3B8A72"/>
<path d="M180.543 428.414V429.879C180.543 431.578 180.543 434.068 179.723 437.145L176.119 436.734C176.691 434.479 176.852 432.794 176.91 431.402H170.934V428.414H180.543ZM182.887 438.287V441.305H158.688V438.287H169.41V434.449H173.102V438.287H182.887ZM168.942 428.414V429.791C168.942 431.49 168.942 434.068 167.535 437.203L163.903 436.646C164.855 434.361 165.148 432.721 165.25 431.402H160.621V428.414H168.942ZM179.899 444.293V447.135H172.809C173.395 449.01 176.075 450.841 181.012 451.295L179.752 454.078C175.46 453.639 172.384 452.13 170.787 450.006C169.176 452.115 166.115 453.639 161.823 454.078L160.592 451.295C165.426 450.841 168.136 449.01 168.766 447.135H161.647V444.293H168.883V442.066H172.662V444.293H179.899Z" fill="#191919"/>
</g>
<defs>
<clipPath id="clip0_249_2979">
<rect width="271" height="461" fill="white" transform="translate(0.5)"/>
</clipPath>
</defs>
</svg>
