<svg width="174" height="340" viewBox="0 0 174 340" fill="none" xmlns="http://www.w3.org/2000/svg">
<path opacity="0.6" d="M120.53 144.93C126.997 144.93 132.24 139.687 132.24 133.22C132.24 126.753 126.997 121.51 120.53 121.51C114.063 121.51 108.82 126.753 108.82 133.22C108.82 139.687 114.063 144.93 120.53 144.93Z" fill="#60C172"/>
<path opacity="0.6" d="M55.33 144.93C61.7973 144.93 67.04 139.687 67.04 133.22C67.04 126.753 61.7973 121.51 55.33 121.51C48.8627 121.51 43.62 126.753 43.62 133.22C43.62 139.687 48.8627 144.93 55.33 144.93Z" fill="#60C172"/>
<ellipse cx="85.2852" cy="245" rx="79" ry="28" fill="#D9D9D9" fill-opacity="0.6"/>
<path d="M73.89 79.27C73.26 79.27 72.66 79.01 72.24 78.54C71.82 78.08 71.6 77.45 71.66 76.83L75.65 31.68C74.92 31.72 74.21 31.73 73.51 31.73C68.66 31.73 64.96 30.89 62.5 29.22C56.18 24.94 53.71 17.51 57 12.65C58.72 10.11 61.76 8.65 65.34 8.65C68.39 8.65 71.62 9.7 74.43 11.61C76.67 13.13 78.54 15.18 79.95 17.66C82.59 13.13 86.44 8.49 91.13 6.05C94.65 4.22 98.44 3.25 102.09 3.25C107.97 3.25 112.8 5.8 115.03 10.07C118.75 17.21 114.09 27.03 104.63 31.96C102.13 33.26 98.82 33.92 94.79 33.92C93.7 33.92 92.54 33.87 91.34 33.78L95.14 76.83C95.2 77.46 94.98 78.08 94.56 78.54C94.14 79 93.54 79.27 92.91 79.27H73.91H73.89Z" fill="#FFF183"/>
<path d="M102.09 5.48023C106.95 5.48023 111.13 7.43023 113.04 11.1002C116.2 17.1602 111.96 25.6102 103.59 29.9702C101.16 31.2302 98.02 31.6802 94.78 31.6802C92.8 31.6802 90.78 31.5102 88.86 31.2602L92.9 77.0202H73.9L78.12 29.2402C76.85 29.3702 75.24 29.4802 73.51 29.4802C70.09 29.4802 66.24 29.0302 63.76 27.3602C58.45 23.7702 56.26 17.7402 58.85 13.9002C60.21 11.9002 62.6 10.8902 65.33 10.8902C67.84 10.8902 70.63 11.7402 73.17 13.4602C76.51 15.7202 78.65 19.1802 79.78 22.9702C81.97 17.7802 86.39 11.0302 92.16 8.03023C95.46 6.31024 98.92 5.48023 102.09 5.48023ZM102.09 1.00023C98.08 1.00023 93.93 2.06023 90.09 4.06023C85.66 6.37023 82.28 10.1102 79.87 13.5902C78.65 12.1002 77.25 10.8102 75.68 9.75023C72.5 7.60023 68.82 6.41023 65.33 6.41023C61 6.41023 57.28 8.23023 55.14 11.4002C53.08 14.4402 52.72 18.4002 54.13 22.2702C55.38 25.6902 57.9 28.8202 61.25 31.0802C64.03 32.9602 68.05 33.9302 73.2 33.9702L69.43 76.6302C69.32 77.8802 69.74 79.1202 70.59 80.0502C71.44 80.9802 72.64 81.5102 73.9 81.5102H92.9C94.16 81.5102 95.36 80.9802 96.21 80.0502C97.06 79.1202 97.48 77.8802 97.37 76.6302L93.8 36.1502C94.13 36.1502 94.46 36.1602 94.79 36.1602C99.18 36.1602 102.84 35.4102 105.67 33.9402C116.4 28.3502 121.39 17.4002 117.03 9.02024C114.41 3.99023 108.83 0.990234 102.1 0.990234L102.09 1.00023Z" fill="#212820"/>
<path d="M117.177 199.158L117.167 199.159C109.022 199.497 102.694 206.374 103.032 214.519L103.532 226.528C103.87 234.673 110.747 241.001 118.892 240.663L118.902 240.662C127.047 240.324 133.375 233.447 133.036 225.302L132.537 213.292C132.198 205.148 125.322 198.82 117.177 199.158Z" fill="#70BF83"/>
<path d="M118.25 242.931C113.98 242.931 109.92 241.351 106.75 238.441C103.41 235.371 101.46 231.171 101.28 226.631L100.78 214.631C100.39 205.261 107.7 197.321 117.06 196.931C126.45 196.471 134.37 203.851 134.75 213.221L135.25 225.221C135.44 229.761 133.85 234.101 130.77 237.441C127.69 240.781 123.5 242.731 118.96 242.911C118.72 242.921 118.48 242.931 118.24 242.931H118.25ZM117.78 201.401C117.61 201.401 117.43 201.401 117.26 201.411C110.36 201.701 104.98 207.541 105.27 214.441L105.77 226.441C105.91 229.781 107.34 232.871 109.8 235.131C112.26 237.391 115.46 238.551 118.8 238.431C122.14 238.291 125.23 236.861 127.49 234.401C129.76 231.941 130.93 228.741 130.79 225.401L130.29 213.401C130.01 206.681 124.45 201.401 117.79 201.401H117.78Z" fill="#212820"/>
<path d="M64.22 242.93C55.44 242.93 48.29 235.78 48.29 227V221.96C19.85 207.42 2.23999 178.7 2.23999 146.69C2.23999 114.68 19.4 86.7804 47.12 72.0304C48.61 61.0904 58.1 52.6904 69.26 52.6904C75.25 52.6904 80.88 55.0504 85.06 59.2504C89.24 55.0504 94.87 52.6904 100.86 52.6904C111.4 52.6904 120.38 59.9604 122.65 70.1404C152.25 84.0404 171.32 113.95 171.32 146.69C171.32 193.31 133.39 231.24 86.78 231.24C85.2 231.24 83.54 231.19 81.76 231.07C79.95 237.96 73.67 242.93 66.37 242.93H64.22Z" fill="#90DD83"/>
<path d="M100.87 54.9304C110.84 54.9304 119.09 62.1804 120.69 71.6904C149.23 84.6104 169.1 113.32 169.1 146.68C169.1 192.13 132.25 228.98 86.8 228.98C84.49 228.98 82.22 228.86 79.96 228.67C79.13 235.43 73.38 240.67 66.39 240.67H64.24C56.68 240.67 50.55 234.54 50.55 226.98V220.56C23.28 207.15 4.5 179.11 4.5 146.67C4.5 114.23 22.68 87.1004 49.24 73.4504C50.05 63.0804 58.7 54.9204 69.28 54.9204C75.7 54.9204 81.4 57.9404 85.08 62.6104C88.76 57.9304 94.47 54.9204 100.88 54.9204M100.88 50.4404C95.01 50.4404 89.47 52.5004 85.08 56.2004C80.69 52.5004 75.14 50.4404 69.28 50.4404C57.39 50.4404 47.22 59.1004 45.1 70.5804C17.21 85.8704 0 114.81 0 146.69C0 178.57 17.57 208.2 46.05 223.33V227.01C46.05 237.03 54.2 245.18 64.22 245.18H66.37C74.07 245.18 80.77 240.34 83.37 233.4C84.55 233.45 85.68 233.48 86.78 233.48C134.63 233.48 173.57 194.55 173.57 146.69C173.57 113.44 154.42 83.0304 124.58 68.5704C121.71 57.9304 112.09 50.4504 100.86 50.4504L100.88 50.4404Z" fill="#212820"/>
<path d="M107.41 126.271C107.39 127.021 107.19 127.781 106.81 128.421C105.79 130.161 103.34 130.681 101.89 129.151C101.21 128.431 100.89 127.421 100.91 126.431C100.93 124.991 101.53 123.391 102.82 122.641C103.93 122.001 105.25 122.361 106.16 123.171C107.03 123.951 107.44 125.111 107.41 126.271Z" fill="#212820"/>
<path d="M75.76 126.271C75.74 127.021 75.54 127.781 75.16 128.421C74.14 130.161 71.69 130.681 70.24 129.151C69.56 128.431 69.24 127.421 69.26 126.431C69.28 124.991 69.88 123.391 71.17 122.641C72.28 122.001 73.6 122.361 74.51 123.171C75.38 123.951 75.79 125.111 75.76 126.271Z" fill="#212820"/>
<path d="M86.85 138.68C84.95 138.68 83.06 138.41 81.23 137.86C80.04 137.51 79.37 136.26 79.72 135.07C80.07 133.88 81.32 133.21 82.51 133.56C84.11 134.04 86.65 134.49 89.61 133.93C91.74 133.53 93.81 132.65 95.59 131.38C96.6 130.66 98 130.9 98.72 131.91C99.44 132.92 99.2 134.32 98.19 135.04C95.89 136.68 93.2 137.82 90.43 138.34C89.25 138.56 88.05 138.67 86.84 138.67L86.85 138.68Z" fill="#212820"/>
<path d="M98.6201 118.6C97.8501 118.6 97.1001 118.2 96.6801 117.48C96.0601 116.41 96.42 115.04 97.49 114.41L103.03 111.19C104.1 110.57 105.47 110.93 106.09 112C106.71 113.07 106.35 114.44 105.28 115.07L99.74 118.29C99.39 118.5 99.0001 118.59 98.6201 118.59V118.6Z" fill="#212820"/>
<rect x="15.285" y="297.013" width="82.8174" height="39.9739" rx="19.987" fill="#CFEDCA"/>
<path d="M34.7 325.5V308.531H37.7468V322.922H45.2468V325.5H34.7ZM47.8781 308.531L52.2843 321.914H52.4718L56.9015 308.531H60.2531L54.2531 325.5H50.5031L44.5265 308.531H47.8781ZM67.2031 325.5V323.297L73.2031 317.508C74.914 315.797 75.8047 314.789 75.8047 313.359C75.8047 311.789 74.5625 310.781 72.8984 310.781C71.1406 310.781 70.0156 311.883 70.039 313.594H67.1328C67.1094 310.383 69.5234 308.297 72.9219 308.297C76.3906 308.297 78.7344 310.359 78.7344 313.219C78.7344 315.141 77.7969 316.688 74.4687 319.828L71.4453 322.828V322.945H78.9922V325.5H67.2031Z" fill="#3B8A72"/>
<path d="M117.735 310.156C117.735 314.727 118.994 319.062 122.744 321.055L120.547 324.014C118.233 322.754 116.739 320.601 115.86 317.949C114.908 320.894 113.311 323.354 110.908 324.805L108.565 322.08C112.578 319.678 114.073 314.932 114.102 310.42V305.82H117.735V310.156ZM132.178 303.535V330.195H128.604V316.924H126.289V328.965H122.774V303.916H126.289V313.936H128.604V303.535H132.178ZM141.606 306.729C141.606 309.028 141.928 311.768 143.452 313.848C144.946 311.782 145.239 309.072 145.239 306.729V305.059H148.755V306.729C148.755 310.039 149.604 313.555 152.71 315.43L150.659 318.037C148.842 316.982 147.715 315.298 147.055 313.32C146.382 315.386 145.283 317.217 143.452 318.359C141.592 317.188 140.478 315.312 139.848 313.203C139.16 315.225 138.032 316.953 136.216 318.037L134.194 315.43C137.27 313.496 138.091 309.893 138.091 306.729V305.059H141.606V306.729ZM156.606 303.535V309.805H159.36V312.91H156.606V319.15H152.885V303.535H156.606ZM156.606 320.322V330.195H152.885V323.281H137.915V320.322H156.606Z" fill="#191919"/>
</svg>
