<svg width="50" height="80" viewBox="0 0 50 80" fill="none" xmlns="http://www.w3.org/2000/svg">
<g clip-path="url(#clip0_100_5436)">
<path d="M21.2854 25.6444C21.1039 25.6444 20.931 25.5592 20.81 25.4052C20.6891 25.2545 20.6257 25.0481 20.643 24.845L21.7924 10.052C21.5821 10.0651 21.3775 10.0684 21.1759 10.0684C19.7788 10.0684 18.7129 9.79317 18.0043 9.24601C16.1837 7.84371 15.4721 5.40934 16.4199 3.817C16.9154 2.9848 17.7911 2.50644 18.8224 2.50644C19.701 2.50644 20.6314 2.85046 21.4409 3.47626C22.0862 3.97427 22.6249 4.64593 23.031 5.45848C23.7915 3.97427 24.9006 2.45402 26.2517 1.65458C27.2657 1.05499 28.3574 0.737183 29.4089 0.737183C31.1027 0.737183 32.4941 1.57267 33.1365 2.97169C34.2081 5.31105 32.8657 8.52848 30.1406 10.1437C29.4204 10.5697 28.4669 10.7859 27.306 10.7859C26.992 10.7859 26.6578 10.7695 26.3121 10.74L27.4068 24.845C27.4241 25.0514 27.3607 25.2545 27.2397 25.4052C27.1187 25.556 26.9459 25.6444 26.7644 25.6444H21.2911H21.2854Z" fill="#FFF183"/>
<path d="M29.4089 1.46769C30.8089 1.46769 32.013 2.10659 32.5632 3.30903C33.4735 5.29453 32.2521 8.06309 29.841 9.49161C29.141 9.90443 28.2365 10.0519 27.3031 10.0519C26.7327 10.0519 26.1508 9.99617 25.5978 9.91426L26.7615 24.9071H21.2883L22.5039 9.25243C22.1381 9.29502 21.6743 9.33106 21.1759 9.33106C20.1907 9.33106 19.0817 9.18362 18.3672 8.63646C16.8376 7.46023 16.2067 5.48456 16.9528 4.22642C17.3446 3.57114 18.0331 3.24022 18.8195 3.24022C19.5426 3.24022 20.3463 3.51872 21.078 4.08226C22.0401 4.82273 22.6566 5.95636 22.9821 7.19812C23.613 5.49767 24.8862 3.28609 26.5484 2.30317C27.499 1.73963 28.4957 1.46769 29.4089 1.46769ZM29.4089 -0.000141563C28.2537 -0.000141563 27.0583 0.347157 25.9521 1.00244C24.6759 1.75929 23.7023 2.98466 23.008 4.12485C22.6566 3.63667 22.2533 3.21401 21.801 2.86671C20.885 2.16229 19.8249 1.77239 18.8195 1.77239C17.5722 1.77239 16.5006 2.3687 15.8841 3.40732C15.2907 4.40335 15.187 5.7008 15.5931 6.96877C15.9532 8.0893 16.6792 9.11482 17.6442 9.85529C18.445 10.4713 19.6031 10.7891 21.0866 10.8022L20.0006 24.7793C19.9689 25.1889 20.0899 25.5951 20.3347 25.8998C20.5796 26.2046 20.9253 26.3782 21.2883 26.3782H26.7615C27.1245 26.3782 27.4702 26.2046 27.7151 25.8998C27.9599 25.5951 28.0809 25.1889 28.0492 24.7793L27.0208 11.5164C27.1159 11.5164 27.2109 11.5197 27.306 11.5197C28.5706 11.5197 29.6249 11.274 30.4402 10.7923C33.5312 8.96083 34.9686 5.37316 33.7126 2.62754C32.9579 0.979504 31.3505 -0.00341797 29.4118 -0.00341797L29.4089 -0.000141563Z" fill="#212820"/>
<path d="M33.7549 64.9244L33.752 64.9245C31.4058 65.0355 29.5828 67.2886 29.6804 69.9572L29.8241 73.892C29.9217 76.5605 31.9027 78.6339 34.2489 78.523L34.2518 78.5229C36.598 78.4119 38.421 76.1588 38.3235 73.4902L38.1797 69.5554C38.0821 66.8869 36.1011 64.8135 33.7549 64.9244Z" fill="#70BF83"/>
<path d="M34.0641 79.266C32.834 79.266 31.6645 78.7483 30.7513 77.7949C29.7891 76.7891 29.2274 75.413 29.1756 73.9255L29.0315 69.9938C28.9192 66.9238 31.0249 64.3223 33.7213 64.1945C36.4262 64.0438 38.7077 66.4618 38.8172 69.5318L38.9612 73.4635C39.016 74.951 38.5579 76.373 37.6707 77.4673C36.7834 78.5616 35.5764 79.2005 34.2686 79.2595C34.1995 79.2627 34.1303 79.266 34.0612 79.266H34.0641ZM33.9287 65.6591C33.8797 65.6591 33.8279 65.6591 33.7789 65.6624C31.7912 65.7574 30.2414 67.6708 30.3249 69.9315L30.469 73.8632C30.5093 74.9575 30.9212 75.97 31.6299 76.7104C32.3385 77.4509 33.2604 77.8309 34.2225 77.7916C35.1847 77.7458 36.0748 77.2772 36.7258 76.4712C37.3797 75.6652 37.7168 74.6168 37.6764 73.5225L37.5324 69.5908C37.4517 67.389 35.8501 65.6591 33.9316 65.6591H33.9287Z" fill="#212820"/>
<path d="M18.4997 79.266C15.9705 79.266 13.9108 76.9234 13.9108 74.0467V72.3954C5.71814 67.6315 0.645264 58.2217 0.645264 47.7339C0.645264 37.2461 5.58851 28.1049 13.5738 23.2722C14.003 19.6878 16.7368 16.9357 19.9516 16.9357C21.6771 16.9357 23.2989 17.7089 24.5031 19.085C25.7072 17.7089 27.329 16.9357 29.0546 16.9357C32.0908 16.9357 34.6776 19.3176 35.3316 22.653C43.8584 27.2072 49.3518 37.0069 49.3518 47.7339C49.3518 63.0085 38.4254 75.4359 24.9986 75.4359C24.5434 75.4359 24.0652 75.4195 23.5524 75.3802C23.031 77.6376 21.222 79.266 19.1191 79.266H18.4997Z" fill="#90DD83"/>
<path d="M29.0574 17.6696C31.9295 17.6696 34.306 20.045 34.767 23.1608C42.9884 27.394 48.7123 36.8005 48.7123 47.7306C48.7123 62.6219 38.097 74.6954 25.0043 74.6954C24.3389 74.6954 23.685 74.6561 23.0339 74.5939C22.7948 76.8087 21.1384 78.5256 19.1248 78.5256H18.5055C16.3277 78.5256 14.5618 76.5171 14.5618 74.0401V71.9367C6.70623 67.543 1.29631 58.356 1.29631 47.7273C1.29631 37.0987 6.53339 28.2098 14.1845 23.7375C14.4178 20.3399 16.9096 17.6663 19.9574 17.6663C21.8068 17.6663 23.4488 18.6558 24.5088 20.1859C25.5689 18.6525 27.2138 17.6663 29.0603 17.6663M29.0603 16.1985C27.3694 16.1985 25.7735 16.8734 24.5088 18.0857C23.2442 16.8734 21.6454 16.1985 19.9574 16.1985C16.5322 16.1985 13.6026 19.0359 12.9919 22.7972C4.95765 27.8068 0 37.2887 0 47.7339C0 58.1791 5.06136 67.8871 13.2655 72.8443V74.05C13.2655 77.3329 15.6133 80.0032 18.4997 80.0032H19.1191C21.3372 80.0032 23.2673 78.4174 24.0162 76.1436C24.3562 76.16 24.6817 76.1698 24.9986 76.1698C38.7826 76.1698 50 63.4148 50 47.7339C50 36.8398 44.4835 26.8763 35.8875 22.1386C35.0608 18.6525 32.2896 16.2018 29.0546 16.2018L29.0603 16.1985Z" fill="#212820"/>
<path d="M30.9414 41.0435C30.9357 41.2893 30.878 41.5383 30.7686 41.748C30.4748 42.3181 29.769 42.4884 29.3513 41.9872C29.1554 41.7513 29.0632 41.4203 29.069 41.096C29.0747 40.6242 29.2476 40.0999 29.6192 39.8542C29.9389 39.6445 30.3192 39.7625 30.5813 40.0279C30.832 40.2834 30.9501 40.6635 30.9414 41.0435Z" fill="#212820"/>
<path d="M21.8241 41.0435C21.8183 41.2893 21.7607 41.5383 21.6512 41.748C21.3574 42.3181 20.6516 42.4884 20.2339 41.9872C20.038 41.7513 19.9458 41.4203 19.9516 41.096C19.9574 40.6242 20.1302 40.0999 20.5018 39.8542C20.8216 39.6445 21.2018 39.7625 21.464 40.0279C21.7146 40.2834 21.8327 40.6635 21.8241 41.0435Z" fill="#212820"/>
<path d="M25.0187 45.1095C24.4714 45.1095 23.9269 45.021 23.3998 44.8408C23.057 44.7262 22.864 44.3166 22.9648 43.9267C23.0656 43.5368 23.4257 43.3173 23.7685 43.432C24.2294 43.5892 24.9611 43.7367 25.8138 43.5532C26.4274 43.4221 27.0237 43.1338 27.5364 42.7177C27.8274 42.4818 28.2307 42.5605 28.4381 42.8914C28.6455 43.2223 28.5763 43.681 28.2854 43.9169C27.6228 44.4542 26.8479 44.8277 26.05 44.9981C25.7101 45.0702 25.3644 45.1062 25.0158 45.1062L25.0187 45.1095Z" fill="#212820"/>
<path d="M28.4093 38.5305C28.1875 38.5305 27.9714 38.3994 27.8504 38.1635C27.6718 37.813 27.7755 37.3641 28.0838 37.1577L29.6797 36.1027C29.9879 35.8995 30.3826 36.0175 30.5612 36.3681C30.7398 36.7186 30.6361 37.1675 30.3278 37.3739L28.7319 38.4289C28.6311 38.4977 28.5188 38.5272 28.4093 38.5272V38.5305Z" fill="#212820"/>
<path opacity="0.6" d="M34.7209 47.1573C36.5839 47.1573 38.0942 45.4396 38.0942 43.3207C38.0942 41.2017 36.5839 39.484 34.7209 39.484C32.8579 39.484 31.3476 41.2017 31.3476 43.3207C31.3476 45.4396 32.8579 47.1573 34.7209 47.1573Z" fill="#60C172"/>
<path opacity="0.6" d="M15.9388 47.1573C17.8018 47.1573 19.3121 45.4396 19.3121 43.3207C19.3121 41.2017 17.8018 39.484 15.9388 39.484C14.0758 39.484 12.5656 41.2017 12.5656 43.3207C12.5656 45.4396 14.0758 47.1573 15.9388 47.1573Z" fill="#60C172"/>
</g>
<defs>
<clipPath id="clip0_100_5436">
<rect width="50" height="80" fill="white"/>
</clipPath>
</defs>
</svg>
