<svg width="130" height="146" viewBox="0 0 130 146" fill="none" xmlns="http://www.w3.org/2000/svg">
<ellipse cx="65" cy="129" rx="58.5" ry="17" fill="#D9D9D9" fill-opacity="0.6"/>
<g clip-path="url(#clip0_399_1850)">
<path d="M65.0047 126.928C30.5788 126.928 2.5719 98.9212 2.5719 64.5046C2.5719 30.0879 30.5788 2.07178 65.0047 2.07178C99.4306 2.07178 127.437 30.0787 127.437 64.4953C127.437 98.912 99.4306 126.928 65.0047 126.928Z" fill="#90DD83"/>
<path d="M65.0046 4.14369C98.3391 4.14369 125.356 31.1609 125.356 64.4954C125.356 97.8298 98.3391 124.847 65.0046 124.847C31.6701 124.847 4.64369 97.8391 4.64369 64.5046C4.64369 31.1701 31.6701 4.14369 65.0046 4.14369ZM65.0046 0C29.4318 0 0.5 28.9318 0.5 64.5046C0.5 100.077 29.4318 129.009 65.0046 129.009C100.577 129.009 129.509 100.077 129.509 64.5046C129.509 28.9318 100.568 0 65.0046 0Z" fill="#212820"/>
<path d="M73.366 54.321C73.3845 55.0147 73.5695 55.6991 73.9117 56.2818C74.8459 57.8727 77.0842 58.3444 78.4068 56.9478C79.0265 56.2911 79.3225 55.3662 79.304 54.469C79.2855 53.1556 78.7398 51.6849 77.5651 51.0005C76.557 50.4178 75.3453 50.7415 74.5129 51.4815C73.7174 52.1937 73.3475 53.2573 73.3752 54.3118L73.366 54.321Z" fill="#191919"/>
<path d="M51.6765 53.9235C51.695 54.6172 51.88 55.3017 52.2222 55.8844C53.1564 57.4753 55.3947 57.947 56.7174 56.5503C57.3371 55.8936 57.6331 54.9687 57.6146 54.0715C57.5961 52.7581 57.0504 51.2875 55.8757 50.603C54.8675 50.0203 53.6559 50.3441 52.8234 51.084C52.028 51.7962 51.658 52.8599 51.6858 53.9143L51.6765 53.9235Z" fill="#191919"/>
<path d="M65.5412 63.3579C63.1919 63.3579 61.4715 62.3682 60.6576 61.7763C59.7327 61.1103 59.5199 59.8062 60.1951 58.8812C60.8703 57.9563 62.1652 57.7436 63.0902 58.4188C63.4971 58.7147 64.3666 59.2142 65.5412 59.2142C66.7159 59.2142 67.5853 58.7147 67.9923 58.4188C68.9172 57.7436 70.2121 57.9563 70.8873 58.8812C71.5625 59.8062 71.3498 61.1103 70.4249 61.7763C69.6109 62.3682 67.8905 63.3579 65.5412 63.3579Z" fill="#191919"/>
<path opacity="0.6" d="M43.1856 67.566C47.3131 67.566 50.659 64.22 50.659 60.0926C50.659 55.9651 47.3131 52.6191 43.1856 52.6191C39.0581 52.6191 35.7122 55.9651 35.7122 60.0926C35.7122 64.22 39.0581 67.566 43.1856 67.566Z" fill="#60C172"/>
<path opacity="0.6" d="M87.9706 67.566C92.0981 67.566 95.4441 64.22 95.4441 60.0926C95.4441 55.9651 92.0981 52.6191 87.9706 52.6191C83.8432 52.6191 80.4972 55.9651 80.4972 60.0926C80.4972 64.22 83.8432 67.566 87.9706 67.566Z" fill="#60C172"/>
</g>
<defs>
<clipPath id="clip0_399_1850">
<rect width="129" height="129" fill="white" transform="translate(0.5)"/>
</clipPath>
</defs>
</svg>
