<svg width="77" height="121" viewBox="0 0 77 121" fill="none" xmlns="http://www.w3.org/2000/svg">
<g clip-path="url(#clip0_100_5476)">
<path d="M30.0518 97.0503L28.6621 96.9214C24.363 96.5226 20.5969 100.208 20.2502 105.154L19.8803 110.43C19.5337 115.375 22.7378 119.707 27.0369 120.106L28.4266 120.235C32.7257 120.634 36.4919 116.948 36.8385 112.003L37.2084 106.726C37.555 101.781 34.3509 97.449 30.0518 97.0503Z" fill="#90DD83"/>
<path d="M29.0625 121C28.8344 121 28.6063 120.99 28.3782 120.967L26.9868 120.839C22.345 120.41 18.8722 115.713 19.2457 110.374L19.6164 105.097C19.7989 102.509 20.8453 100.157 22.5617 98.4747C24.281 96.7922 26.4622 95.9821 28.7146 96.192L30.106 96.3199C34.7478 96.7528 38.2206 101.446 37.8471 106.786L37.4764 112.063C37.12 117.14 33.4163 121 29.0625 121ZM28.4808 119.501C32.4183 119.855 35.8854 116.477 36.2019 111.945L36.5726 106.668C36.8891 102.135 33.9437 98.15 30.0034 97.7859L28.612 97.658C26.7045 97.4776 24.8484 98.1697 23.3914 99.5964C21.9316 101.023 21.0448 103.02 20.8909 105.215L20.5202 110.492C20.3662 112.689 20.965 114.821 22.2053 116.5C23.4456 118.176 25.182 119.199 27.0894 119.377L28.4808 119.504V119.501Z" fill="#212820"/>
<path d="M48.9107 120.232L50.3004 120.103C54.5995 119.704 57.8036 115.372 57.457 110.427L57.0871 105.151C56.7405 100.205 52.9743 96.5196 48.6752 96.9183L47.2855 97.0472C42.9864 97.446 39.7823 101.778 40.1289 106.723L40.4988 112C40.8455 116.945 44.6116 120.631 48.9107 120.232Z" fill="#90DD83"/>
<path d="M48.2796 121C43.9258 121 40.2221 117.14 39.8657 112.063L39.495 106.786C39.1215 101.446 42.5943 96.7495 47.2361 96.3198L48.6275 96.1919C50.8771 95.9853 53.0611 96.7954 54.7804 98.4746C56.4997 100.157 57.5461 102.509 57.7257 105.096L58.0964 110.374C58.2789 112.961 57.5718 115.474 56.1119 117.451C54.6493 119.429 52.6049 120.633 50.3553 120.839L48.9639 120.967C48.733 120.987 48.5049 121 48.2796 121ZM49.3203 97.6285C49.1236 97.6285 48.9297 97.6383 48.733 97.6547L47.3416 97.7826C43.4012 98.1467 40.4531 102.135 40.7724 106.664L41.1431 111.941C41.4595 116.474 44.9266 119.852 48.8642 119.498L50.2555 119.37C52.1659 119.193 53.8994 118.173 55.1397 116.494C56.38 114.814 56.9787 112.683 56.8248 110.485L56.4541 105.208C56.3001 103.014 55.4134 101.016 53.9536 99.5897C52.6449 98.3106 51.0197 97.6252 49.3203 97.6252V97.6285Z" fill="#212820"/>
<path d="M64.4033 66.5364C66.7841 69.2291 69.4043 72.0136 70.6332 75.6771C72.17 80.2654 70.924 85.6573 66.3906 86.9004C64.3263 87.4678 61.9883 86.8643 60.3603 85.2867C58.3388 83.3254 57.261 80.3474 56.2745 77.6056C55.8753 76.497 55.5075 75.3753 55.1568 74.2438" fill="#90DD83"/>
<path d="M63.9528 67.0545C67.2089 70.7344 71.6026 75.3917 70.4593 81.2493C70.0288 83.4533 68.7429 85.2506 66.8611 85.982C64.3548 86.9561 61.6946 86.0345 59.9469 83.801C58.9575 82.535 58.2561 80.9968 57.6488 79.4553C56.9531 77.6908 56.3401 75.8804 55.7727 74.0535C55.4961 73.168 54.2615 73.5517 54.5409 74.4438C55.0969 76.228 55.7014 77.9892 56.3629 79.7242C56.9474 81.2526 57.606 82.7482 58.4956 84.0765C59.4051 85.4343 60.5171 86.533 61.9028 87.189C63.2543 87.8285 64.7569 87.9925 66.1939 87.6973C68.5746 87.2086 70.5163 85.372 71.3888 82.7875C72.2356 80.2785 71.9676 77.4087 71.0695 74.9719C69.7493 71.3937 67.2203 68.6879 64.8538 66.0116C64.2664 65.3491 63.3626 66.3855 63.95 67.0513L63.9528 67.0545Z" fill="#212820"/>
<path d="M21.7833 73.0139C18.6099 71.8168 15.2597 70.4131 11.8639 70.8362C7.61275 71.3675 4.02022 75.1162 5.13789 80.3212C5.64541 82.6892 7.18222 84.8046 9.14956 85.7459C11.5931 86.9135 14.3872 86.6511 16.9562 86.4019C17.994 86.3002 19.0319 86.1625 20.064 86.005" fill="#90DD83"/>
<path d="M21.9544 72.3054C18.9407 71.1674 15.8357 69.8751 12.6138 70.0358C10.2587 70.1539 7.87224 71.1149 6.20713 73.0958C4.56482 75.0506 3.96892 77.7465 4.49639 80.3835C5.09515 83.3877 7.11666 85.7983 9.64569 86.7331C11.2709 87.3365 13.0215 87.4087 14.7152 87.3169C16.5057 87.2218 18.2934 87.0053 20.0697 86.7363C20.4119 86.6839 20.7084 86.4346 20.7084 86.0017C20.7084 85.6442 20.4147 85.2145 20.0697 85.267C18.5957 85.4933 17.1187 85.6671 15.6361 85.7852C14.2618 85.8967 12.8562 85.9623 11.4904 85.7196C10.253 85.4999 9.02983 85.044 8.03476 84.1453C7.14518 83.3418 6.41811 82.2464 6.00754 81.0296C5.28333 78.8781 5.47151 76.4248 6.75171 74.6013C8.00624 72.8171 9.98214 71.7905 11.9438 71.5576C15.2797 71.1673 18.5044 72.5383 21.618 73.719C22.402 74.0142 22.7385 72.594 21.9573 72.3021L21.9544 72.3054Z" fill="#212820"/>
<path fill-rule="evenodd" clip-rule="evenodd" d="M54.0676 65.3721H22.9409C22.3706 65.3721 21.8489 65.864 21.7063 66.5397L13.8712 103.575C13.626 104.726 14.1762 105.788 15.0231 105.788C20.5402 108.311 29.0026 111.131 39.5863 110.925C49.1037 110.741 56.7649 108.176 61.9855 105.788C62.0653 105.788 62.627 105.775 62.972 105.113C63.183 104.703 63.26 104.152 63.1374 103.578L55.3022 66.5429C55.1597 65.8673 54.6379 65.3753 54.0676 65.3753V65.3721Z" fill="#785536"/>
<path d="M38.4801 111.669C30.337 111.669 22.4077 109.937 14.8891 106.517C14.3958 106.474 13.9539 106.199 13.6345 105.733C13.2154 105.119 13.0728 104.247 13.2496 103.401L21.0848 66.3659C21.2958 65.3623 22.077 64.6375 22.9409 64.6375H54.0677C54.9316 64.6375 55.71 65.3656 55.9238 66.3659L63.7589 103.401C63.9158 104.136 63.8274 104.896 63.5223 105.487C63.163 106.179 62.59 106.467 62.1252 106.517C54.9572 109.78 47.3787 111.508 39.5977 111.659C39.2242 111.666 38.8536 111.669 38.4801 111.669ZM22.9409 66.1068C22.6643 66.1068 22.3992 66.3659 22.3279 66.7135L14.4928 103.749C14.4072 104.155 14.4642 104.565 14.6382 104.824C14.7408 104.975 14.872 105.054 15.0231 105.054H15.1457L15.2597 105.106C22.9951 108.645 31.1724 110.367 39.5778 110.19C47.239 110.042 54.7006 108.33 61.7517 105.106L61.8657 105.054H61.9883C62.034 105.054 62.2678 105.037 62.4246 104.736C62.5614 104.473 62.5957 104.113 62.5187 103.749L54.6835 66.7135C54.6094 66.3692 54.3471 66.1068 54.0705 66.1068H22.9409Z" fill="#212820"/>
<path d="M52.1516 85.4541C47.8577 85.4541 43.7063 83.2829 40.7638 79.5013C39.8457 78.3206 39.0645 76.9989 38.4401 75.5722C38.135 76.2708 37.7986 76.9333 37.4308 77.5138C34.3486 82.3941 29.6612 85.195 24.5718 85.195C19.4823 85.195 15.0744 82.5646 12.0378 77.9795C8.34834 72.4072 7.99194 64.8047 11.1254 58.6093C11.8183 57.2383 12.6708 55.9724 13.6573 54.8507C12.9844 54.7359 12.3315 54.5686 11.7384 54.3456C6.81724 52.5057 3.07359 48.3141 1.4712 42.8435C-0.12833 37.3926 0.615838 31.5119 3.50982 26.7071C6.34108 22.0072 10.8603 19.3113 15.9155 19.3113C17.0303 19.3113 18.1508 19.449 19.2457 19.7212C20.5915 20.0558 21.9002 20.5969 23.1348 21.3283C23.0236 20.5576 22.958 19.7901 22.958 19.0718C22.958 8.7898 29.8351 0.731445 38.6169 0.731445C40.1765 0.731445 41.739 0.997106 43.2644 1.52515C49.0951 3.53892 53.2721 9.44903 53.9023 16.5792C54.042 18.1568 53.9992 19.7573 53.774 21.3316C54.3756 20.9741 54.9886 20.6658 55.5845 20.4428C57.2724 19.8131 58.9974 19.4916 60.7138 19.4916C69.296 19.4916 76.1731 27.2843 76.367 37.2351C76.5039 44.2374 72.9085 50.6296 67.2089 53.5257C65.9458 54.1652 64.6114 54.6113 63.24 54.854C63.7219 55.4017 64.1666 55.9756 64.5344 56.5594C67.5767 61.3741 68.4606 67.2974 66.9637 72.8074C65.4725 78.2977 61.8657 82.5515 57.07 84.4833C55.4761 85.1261 53.8224 85.4508 52.1602 85.4508L52.1516 85.4541ZM32.8631 36.6382C33.2366 39.0619 33.1368 41.3348 32.558 43.3879C31.9935 45.3853 30.9015 47.2548 29.3076 48.9373C31.4347 49.262 33.2851 50.0754 34.8048 51.3446C36.2817 52.5811 37.4878 54.3522 38.3888 56.6119C39.3154 54.385 40.5586 52.6139 42.0783 51.3413C43.5552 50.1049 45.3942 49.3341 47.5412 49.0488C45.9873 47.3499 44.9067 45.4411 44.325 43.3847C43.7605 41.3873 43.692 39.1374 44.1169 36.6972C42.2322 37.8714 40.3191 38.465 38.4372 38.465C36.5554 38.465 34.7392 37.8484 32.8574 36.6349L32.8631 36.6382Z" fill="#FFF183"/>
<path d="M38.6111 1.46933C40.0767 1.46933 41.5764 1.71531 43.0761 2.23351C48.944 4.2604 52.6847 10.1508 53.2607 16.6579C53.3947 18.1567 53.3548 19.6916 53.1381 21.2167C53.0697 21.6956 53.3947 22.0957 53.7654 22.0957C53.8623 22.0957 53.9649 22.0695 54.0619 22.0072C54.635 21.6497 55.2081 21.3578 55.7755 21.1479C57.4406 20.5247 59.0971 20.2328 60.7052 20.2328C68.7428 20.2328 75.5287 27.527 75.7197 37.258C75.8566 44.3062 72.1443 50.2163 66.9408 52.8565C65.7405 53.4666 64.4631 53.8962 63.1345 54.1291C62.607 54.2209 62.3789 54.9621 62.7667 55.3852C63.24 55.9001 63.6562 56.438 64.0069 56.9923C70.1827 66.7692 66.4333 79.9309 56.8504 83.7912C55.2851 84.4209 53.7026 84.7161 52.1516 84.7161C47.966 84.7161 44.0056 82.5645 41.24 79.006C40.3675 77.8811 39.6148 76.6184 39.0103 75.2343C38.8877 74.9555 38.6539 74.8145 38.4201 74.8145C38.1863 74.8145 37.9696 74.949 37.8584 75.2212C37.579 75.9001 37.2625 76.52 36.9118 77.0742C33.7897 82.0168 29.1708 84.4504 24.5689 84.4504C19.967 84.4504 15.5847 82.1185 12.5424 77.5236C8.83016 71.9152 8.81306 64.621 11.6728 58.9667C12.3315 57.6646 13.1469 56.4511 14.1021 55.3623C14.4813 54.9293 14.2874 54.1783 13.7571 54.0963C13.1098 53.9979 12.4968 53.847 11.9323 53.6338C1.94162 49.908 -1.75356 36.7267 4.02871 27.1236C6.85712 22.427 11.3478 20.0459 15.9097 20.0459C16.9761 20.0459 18.0482 20.1771 19.1031 20.4394C20.3833 20.7576 21.6407 21.2725 22.8325 21.9809C22.9323 22.04 23.0378 22.0662 23.1376 22.0662C23.5139 22.0662 23.8475 21.689 23.7705 21.2102C23.6508 20.4722 23.5881 19.7572 23.5881 19.0718C23.5881 8.84878 30.5707 1.46933 38.6083 1.46933M38.3859 57.3432C38.614 57.3432 38.8449 57.2088 38.959 56.9333C39.7972 54.9326 40.952 53.1943 42.4546 51.9382C43.9115 50.7214 45.6936 50.0359 47.6181 49.7801C48.1456 49.7112 48.368 48.9471 47.9831 48.524C46.5888 46.989 45.5082 45.1885 44.9351 43.155C44.3792 41.1872 44.3649 39.0225 44.747 36.8415C44.8296 36.3659 44.4932 35.9658 44.1168 35.9658C44.0199 35.9658 43.9173 35.992 43.8203 36.0511C42.121 37.1039 40.2962 37.727 38.4401 37.727C36.5839 37.727 34.8475 37.0743 33.1625 35.9822C33.0627 35.9166 32.96 35.8904 32.8574 35.8904C32.4867 35.8904 32.1503 36.2806 32.2244 36.7529C32.5694 38.9372 32.5209 41.1248 31.9478 43.1583C31.3919 45.1261 30.297 46.8874 28.8742 48.3928C28.4836 48.806 28.6917 49.5735 29.2192 49.6555C31.1324 49.9539 32.9258 50.6821 34.4284 51.9382C35.8854 53.155 37.0002 54.8965 37.8071 56.9201C37.9183 57.1989 38.1521 57.34 38.3859 57.34M38.6111 0C34.3086 0 30.2514 1.91538 27.1892 5.39192C24.0443 8.96357 22.3136 13.8209 22.3136 19.0751C22.3136 19.4063 22.3278 19.7474 22.3535 20.0951C21.3926 19.6228 20.3947 19.2554 19.3768 19.0029C18.2392 18.7208 17.0759 18.5765 15.9126 18.5765C10.6464 18.5765 5.93333 21.3873 2.98231 26.2872C-0.0314234 31.2856 -0.804104 37.4023 0.861008 43.0763C2.53182 48.77 6.42374 53.132 11.5388 55.0441C11.8125 55.1458 12.0977 55.2376 12.3942 55.3163C11.707 56.2216 11.094 57.1989 10.5694 58.2353C7.30476 64.6899 7.68112 72.6138 11.5274 78.4222C14.6866 83.1943 19.4395 85.9296 24.5717 85.9296C29.7039 85.9296 34.7449 83.0204 37.9497 77.9467C38.1179 77.6777 38.2832 77.3924 38.4401 77.0939C38.9761 78.127 39.5948 79.0978 40.2905 79.9899C43.3527 83.9289 47.678 86.1887 52.1544 86.1887C53.8908 86.1887 55.6158 85.8509 57.2752 85.1818C62.2648 83.1746 66.0142 78.7436 67.5681 73.0303C69.1277 67.294 68.2068 61.1346 65.0448 56.1297C64.8766 55.8608 64.6912 55.5951 64.4916 55.3295C65.5124 55.0638 66.5046 54.6833 67.4598 54.2012C73.3988 51.1871 77.1425 44.5227 76.9999 37.2219C76.7975 26.8678 69.6409 18.7602 60.7081 18.7602C58.9261 18.7602 57.1327 19.0915 55.382 19.7474C55.1083 19.8491 54.8289 19.9704 54.5494 20.1049C54.6435 18.9078 54.6378 17.7041 54.5323 16.5103C53.8766 9.08164 49.5227 2.92554 43.444 0.826498C41.8558 0.278779 40.2306 0 38.6111 0ZM30.6334 48.4551C31.8309 46.9563 32.6806 45.336 33.1653 43.6142C33.6643 41.853 33.8268 39.9441 33.6586 37.9271C35.2667 38.7733 36.8719 39.2029 38.4429 39.2029C40.0139 39.2029 41.6819 38.7929 43.2957 37.9861C43.0933 40.0065 43.233 41.8956 43.7205 43.6142C44.2166 45.3754 45.0606 47.0284 46.2267 48.5469C44.4932 48.9503 42.9764 49.6883 41.7047 50.7509C40.4017 51.8398 39.2954 53.2698 38.4001 55.0179C37.5334 53.2468 36.4528 51.8136 35.1811 50.7509C33.8781 49.662 32.3527 48.8913 30.6306 48.4551H30.6334Z" fill="#212820"/>
<path d="M38.5029 74.5553C52.1475 74.5553 63.2087 61.8317 63.2087 46.1362C63.2087 30.4408 52.1475 17.7172 38.5029 17.7172C24.8582 17.7172 13.7971 30.4408 13.7971 46.1362C13.7971 61.8317 24.8582 74.5553 38.5029 74.5553Z" fill="#90DD83"/>
<path d="M38.5029 75.2933C24.529 75.2933 13.1584 62.2136 13.1584 46.1396C13.1584 30.0655 24.529 16.9825 38.5029 16.9825C52.4767 16.9825 63.8473 30.0622 63.8473 46.1363C63.8473 62.2104 52.4767 75.29 38.5029 75.29V75.2933ZM38.5029 18.4552C25.2333 18.4552 14.4357 30.8723 14.4357 46.1396C14.4357 61.4068 25.2304 73.824 38.5029 73.824C51.7753 73.824 62.57 61.4035 62.57 46.1396C62.57 30.8756 51.7753 18.4552 38.5029 18.4552Z" fill="#212820"/>
<path d="M32.1247 43.132C32.119 43.4469 32.0448 43.7585 31.908 44.0274C31.5402 44.7489 30.6534 44.9687 30.1288 44.3324C29.8836 44.034 29.7667 43.6141 29.7724 43.2009C29.781 42.6007 29.9948 41.9349 30.4624 41.6201C30.8616 41.3511 31.3434 41.502 31.6713 41.8398C31.985 42.1645 32.1332 42.6466 32.1218 43.1287L32.1247 43.132Z" fill="#212820"/>
<path d="M47.373 43.132C47.3673 43.4469 47.2931 43.7585 47.1563 44.0274C46.7885 44.7489 45.9017 44.9687 45.3771 44.3324C45.1319 44.034 45.015 43.6141 45.0207 43.2009C45.0293 42.6007 45.2431 41.9349 45.7107 41.6201C46.1099 41.3511 46.5917 41.502 46.9196 41.8398C47.2333 42.1645 47.3815 42.6466 47.3701 43.1287L47.373 43.132Z" fill="#212820"/>
<path d="M38.6853 49.79C36.2276 49.79 34.494 48.36 33.844 47.7237C33.576 47.4614 33.5446 46.9956 33.7727 46.6873C34.0008 46.379 34.4057 46.3397 34.6737 46.6053C35.2382 47.1596 36.7864 48.4453 38.9733 48.3141C40.7952 48.2157 42.0811 47.2023 42.6856 46.6086C42.9536 46.3462 43.3556 46.379 43.5866 46.6906C43.8175 46.9989 43.7862 47.4646 43.5182 47.727C42.7911 48.4453 41.24 49.6654 39.036 49.7867C38.9191 49.7933 38.8022 49.7965 38.6853 49.7965V49.79Z" fill="#212820"/>
<g opacity="0.6">
<path d="M52.4596 53.9618C55.2688 53.9618 57.5461 51.3422 57.5461 48.1107C57.5461 44.8793 55.2688 42.2596 52.4596 42.2596C49.6503 42.2596 47.373 44.8793 47.373 48.1107C47.373 51.3422 49.6503 53.9618 52.4596 53.9618Z" fill="#60C172"/>
</g>
<g opacity="0.6">
<path d="M24.6887 53.9618C27.4979 53.9618 29.7753 51.3422 29.7753 48.1107C29.7753 44.8793 27.4979 42.2596 24.6887 42.2596C21.8794 42.2596 19.6021 44.8793 19.6021 48.1107C19.6021 51.3422 21.8794 53.9618 24.6887 53.9618Z" fill="#60C172"/>
</g>
</g>
<defs>
<clipPath id="clip0_100_5476">
<rect width="77" height="121" fill="white"/>
</clipPath>
</defs>
</svg>
