<svg width="88" height="131" viewBox="0 0 88 131" fill="none" xmlns="http://www.w3.org/2000/svg">
<g clip-path="url(#clip0_100_5506)">
<path d="M17.1019 75.7455C11.1261 75.7455 5.95569 72.2427 3.26731 66.3765C-0.189177 58.8356 -0.2379 49.1695 3.14694 41.7493C6.23083 34.9853 11.8655 30.6664 19.0135 29.5892C19.3345 29.5402 19.6641 29.5173 19.9937 29.5173C23.5591 29.5173 27.6834 32.4456 31.0253 37.3488C35.3301 43.6656 37.2733 51.4905 35.9721 57.2817C34.6824 63.0304 32.0456 67.6464 27.9156 71.3907C24.8202 74.1982 20.9797 75.7423 17.1019 75.7423V75.7455Z" fill="#FFF183"/>
<path d="M19.9937 30.2518C28.1362 30.2518 37.8007 46.189 35.3502 57.1054C34.1063 62.6484 31.5927 67.1273 27.5172 70.8227C24.4132 73.6367 20.7131 75.0143 17.1047 75.0143C11.728 75.0143 6.55183 71.9587 3.83765 66.0402C-2.10659 53.0705 2.04062 32.8895 19.0995 30.3204C19.3947 30.2747 19.6957 30.2551 19.9966 30.2551M19.9966 28.7926C19.6383 28.7926 19.2801 28.8187 18.9304 28.871C11.5703 29.9809 5.76079 34.4369 2.57944 41.4196C-0.897106 49.0421 -0.851249 58.9759 2.69982 66.7225C5.49998 72.8336 10.8853 76.4833 17.1047 76.4833C21.1287 76.4833 25.1125 74.8804 28.3197 71.9718C32.5643 68.123 35.2699 63.3797 36.5969 57.471C37.944 51.4676 35.9578 43.3946 31.5354 36.9081C28.0187 31.7502 23.8142 28.7926 19.9966 28.7926Z" fill="#212820"/>
<path d="M72.162 74.9817C68.1323 74.9817 64.0281 73.2678 60.6003 70.16C56.6996 66.6214 53.3606 63.21 52.0278 57.285C50.7267 51.4938 52.6698 43.6689 56.9747 37.3521C60.3165 32.4489 64.4437 29.5206 68.0062 29.5206C68.3358 29.5206 68.6654 29.5435 68.9864 29.5924C76.1344 30.6697 81.7691 34.9886 84.853 41.7526C88.235 49.1728 88.1891 58.8389 84.7326 66.3798C82.2277 71.8478 77.6448 74.9849 72.162 74.9849V74.9817Z" fill="#FFF183"/>
<path d="M68.0062 30.2518C68.3072 30.2518 68.6081 30.2747 68.9033 30.3171C85.9593 32.8863 90.1094 53.0672 84.1652 66.037C81.6144 71.6062 77.0458 74.2471 72.1621 74.2471C68.3645 74.2471 64.3778 72.6475 60.9987 69.5855C56.9231 65.8901 53.8937 62.6419 52.6498 57.1021C50.1993 46.1857 59.8609 30.2486 68.0062 30.2486M68.0062 28.7861C64.1886 28.7861 59.9812 31.7437 56.4646 36.9016C52.0422 43.3913 50.056 51.4611 51.4031 57.4645C52.7845 63.6115 56.2009 67.1077 60.1962 70.7313C63.7387 73.9435 67.9862 75.7096 72.1592 75.7096C77.8913 75.7096 82.6805 72.4288 85.3001 66.7127C88.8512 58.9661 88.8971 49.0356 85.4205 41.4098C82.2363 34.4271 76.4296 29.9711 69.0696 28.8612C68.7199 28.809 68.3616 28.7828 68.0034 28.7828L68.0062 28.7861Z" fill="#212820"/>
<path d="M7.65237 65.3742C6.5776 68.1458 7.53773 71.4363 9.91084 73.111L24.2556 82.3952L29.0734 68.087L14.1928 62.0706C11.5101 61.199 8.72715 62.6059 7.65237 65.3775V65.3742Z" fill="#90DD83"/>
<path d="M24.588 83.4529L9.59274 73.7476C6.94735 71.8836 5.8697 68.1653 7.06486 65.0804C8.26001 61.9988 11.4041 60.4024 14.3705 61.3654L29.9104 67.6463L24.588 83.4529ZM8.23995 65.6713C7.30274 68.0903 8.16543 71.0218 10.2491 72.4875L23.9231 81.3375L28.2366 68.5244L13.9778 62.7594C11.662 62.0085 9.17716 63.2556 8.23995 65.6713Z" fill="#212820"/>
<path d="M14.637 65.1164C13.8087 63.8041 13.8374 62.1686 14.703 61.4602C15.5685 60.7518 16.9414 61.2415 17.7697 62.5505L18.9648 64.4439" fill="#90DD83"/>
<path d="M14.637 65.8476C14.4364 65.8476 14.2415 65.7431 14.1154 65.544C13.6339 64.7834 13.3759 63.8955 13.3931 63.0467C13.4103 62.1326 13.7514 61.3394 14.3275 60.866C14.9064 60.3927 15.6774 60.2784 16.4398 60.5494C17.1506 60.804 17.8069 61.3622 18.2884 62.1228L19.4836 64.0162C19.6899 64.3427 19.624 64.803 19.3374 65.038C19.0479 65.2731 18.6467 65.198 18.4403 64.8715L17.2451 62.9781C16.9299 62.4787 16.4971 62.1033 16.0557 61.9466C15.835 61.8682 15.4137 61.7768 15.0755 62.0543C14.7373 62.3318 14.68 62.8149 14.6743 63.0793C14.6657 63.6049 14.8405 64.1925 15.1558 64.692C15.3621 65.0184 15.2962 65.4787 15.0096 65.7138C14.895 65.8052 14.766 65.8509 14.6342 65.8509L14.637 65.8476Z" fill="#212820"/>
<path d="M80.0868 65.3743C81.1616 68.1459 80.2015 71.4365 77.8284 73.1111L63.4836 82.3953L58.6658 68.0871L73.5464 62.0707C76.2291 61.1991 79.012 62.6061 80.0868 65.3776V65.3743Z" fill="#90DD83"/>
<path d="M63.1512 83.4529L57.8289 67.6464L73.3286 61.3786C76.338 60.3992 79.4763 61.9956 80.6715 65.0772C81.8666 68.1589 80.789 71.8804 78.1637 73.7313L63.1483 83.4497L63.1512 83.4529ZM59.4998 68.5245L63.8132 81.3376L77.5073 72.4745C79.5709 71.0186 80.4336 68.0903 79.4964 65.6714C78.5592 63.2524 76.0743 62.0053 73.7184 62.7725L59.4969 68.5245H59.4998Z" fill="#212820"/>
<path d="M73.0993 65.1164C73.9276 63.8041 73.8989 62.1686 73.0333 61.4602C72.1678 60.7518 70.7949 61.2415 69.9666 62.5505L68.7715 64.4439" fill="#90DD83"/>
<path d="M73.0993 65.8476C72.9703 65.8476 72.8385 65.8019 72.7239 65.7105C72.4372 65.4755 72.3713 65.0185 72.5777 64.6888C72.8929 64.1893 73.0678 63.6017 73.0592 63.0761C73.0535 62.8117 72.9961 62.3285 72.6579 62.0511C72.0904 61.5875 71.0988 62.0119 70.4883 62.9782L69.2932 64.8716C69.0868 65.198 68.6855 65.2731 68.3961 65.0381C68.1095 64.803 68.0436 64.346 68.2499 64.0163L69.4451 62.1229C70.4797 60.4874 72.2567 59.9194 73.406 60.8628C73.9849 61.3361 74.326 62.1294 74.3403 63.0435C74.3546 63.8922 74.0996 64.7802 73.6181 65.5408C73.492 65.7399 73.2971 65.8444 73.0964 65.8444L73.0993 65.8476Z" fill="#212820"/>
<path d="M30.6551 130.134L31.7864 130.238C36.1079 130.635 39.8937 126.966 40.2421 122.044L40.8676 113.21C41.216 108.287 37.9952 103.975 33.6737 103.578L32.5424 103.475C28.2209 103.078 24.4352 106.746 24.0867 111.668L23.4613 120.503C23.1128 125.425 26.3336 129.737 30.6551 130.134Z" fill="#90DD83"/>
<path d="M32.4297 131C32.1975 131 31.9654 130.99 31.7332 130.967L30.6011 130.863C28.3398 130.654 26.2848 129.456 24.8145 127.491C23.3442 125.522 22.6363 123.022 22.8197 120.446L23.4445 111.612C23.82 106.298 27.9271 102.335 32.5902 102.749L33.7223 102.854C38.3882 103.285 41.8791 107.956 41.5037 113.271L40.8789 122.104C40.6983 124.68 39.6436 127.021 37.9182 128.695C36.3677 130.197 34.4416 131 32.4297 131ZM31.9052 104.179C28.1907 104.179 25.0295 107.44 24.7257 111.727L24.1008 120.56C23.9461 122.747 24.548 124.869 25.7947 126.541C27.0414 128.209 28.7869 129.227 30.7043 129.404L31.8364 129.508C33.7538 129.688 35.6196 128.999 37.0842 127.579C38.5516 126.159 39.443 124.171 39.5977 121.987L40.2225 113.153C40.5407 108.642 37.58 104.675 33.6191 104.313L32.487 104.208C32.2921 104.192 32.0943 104.182 31.9023 104.182L31.9052 104.179Z" fill="#212820"/>
<path d="M55.9506 103.477L54.8193 103.581C50.4978 103.978 47.277 108.29 47.6254 113.212L48.2509 122.047C48.5993 126.969 52.3851 130.637 56.7066 130.24L57.8379 130.136C62.1594 129.74 65.3802 125.428 65.0317 120.505L64.4063 111.671C64.0579 106.749 60.2721 103.08 55.9506 103.477Z" fill="#90DD83"/>
<path d="M56.0576 131C54.0456 131 52.1196 130.197 50.5691 128.695C48.8408 127.021 47.789 124.68 47.6084 122.104L46.9836 113.271C46.6081 107.956 50.099 103.281 54.765 102.854L55.8971 102.749C60.5602 102.328 64.6673 106.298 65.0427 111.612L65.6675 120.446C65.851 123.022 65.1402 125.522 63.6699 127.491C62.1996 129.459 60.1446 130.657 57.8833 130.863L56.7512 130.967C56.519 130.99 56.2869 131 56.0547 131H56.0576ZM56.5821 104.179C56.3872 104.179 56.1923 104.189 55.9974 104.205L54.8653 104.31C50.9044 104.672 47.9409 108.642 48.2619 113.15L48.8867 121.984C49.0414 124.167 49.9328 126.156 51.4002 127.576C52.8676 128.996 54.7335 129.688 56.648 129.505L57.7801 129.4C59.7004 129.224 61.4429 128.209 62.6897 126.537C63.9364 124.869 64.5383 122.744 64.3835 120.557L63.7587 111.723C63.4549 107.437 60.2937 104.176 56.5792 104.176L56.5821 104.179Z" fill="#212820"/>
<path fill-rule="evenodd" clip-rule="evenodd" d="M59.6717 66.3569H27.9127C27.2793 66.3569 26.7003 66.8629 26.5398 67.5583L16.4111 107.92C16.1388 109.105 16.7493 110.196 17.6894 110.196C23.8228 112.791 33.2264 115.69 44.9945 115.477C55.5732 115.288 64.0912 112.65 69.8921 110.196C69.9809 110.196 70.6058 110.182 70.9869 109.5C71.222 109.079 71.3079 108.511 71.1704 107.92L61.0417 67.5583C60.884 66.8629 60.3022 66.3569 59.6688 66.3569H59.6717Z" fill="#785536"/>
<path d="M43.7649 116.222C34.7225 116.222 25.9121 114.443 17.5633 110.924C17.0101 110.884 16.5057 110.577 16.1589 110.068C15.7347 109.445 15.5943 108.57 15.7863 107.734L25.9207 67.3559C26.1472 66.3602 26.9869 65.6224 27.9127 65.6224H59.6717C60.5945 65.6224 61.4343 66.3602 61.6664 67.3722L71.7923 107.718C71.97 108.495 71.8754 109.281 71.5315 109.892C71.1388 110.594 70.5169 110.878 70.0239 110.92C62.0648 114.276 53.6472 116.055 45.0059 116.209C44.5932 116.215 44.1805 116.218 43.7678 116.218L43.7649 116.222ZM27.9127 67.0882C27.5687 67.0882 27.2477 67.3689 27.1618 67.7443L17.0273 108.123C16.9385 108.508 16.9929 108.906 17.1763 109.177C17.2652 109.311 17.4286 109.468 17.6894 109.468H17.804L17.9129 109.513C26.5226 113.156 35.6224 114.909 44.983 114.749C53.5125 114.596 61.8183 112.833 69.6685 109.513L69.7774 109.468H69.8921C69.9523 109.468 70.2561 109.451 70.4452 109.112C70.5971 108.844 70.6344 108.478 70.5484 108.11L60.4226 67.7639C60.3337 67.3755 60.0099 67.0914 59.6688 67.0914H27.9127V67.0882Z" fill="#212820"/>
<path d="M43.7707 75.1611C58.479 75.1611 70.4023 62.2366 70.4023 46.2934C70.4023 30.3502 58.479 17.4257 43.7707 17.4257C29.0625 17.4257 17.1392 30.3502 17.1392 46.2934C17.1392 62.2366 29.0625 75.1611 43.7707 75.1611Z" fill="#90DD83"/>
<path d="M43.7707 75.8924C28.7324 75.8924 16.4943 62.6158 16.4943 46.2934C16.4943 29.9711 28.7324 16.6945 43.7707 16.6945C58.809 16.6945 71.0443 29.9711 71.0443 46.2934C71.0443 62.6158 58.809 75.8924 43.7707 75.8924ZM43.7707 18.1569C29.4403 18.1569 17.7811 30.7774 17.7811 46.2934C17.7811 61.8095 29.4403 74.4299 43.7707 74.4299C58.1011 74.4299 69.7603 61.8095 69.7603 46.2934C69.7603 30.7774 58.1011 18.1569 43.7707 18.1569Z" fill="#212820"/>
<path d="M43.5845 3.26773C66.7596 -6.86846 86.1371 23.2104 72.4258 38.9941C64.9281 47.6221 49.5287 43.7015 43.0657 35.2041C36.5998 43.7015 21.53 48.1281 14.5569 38.9941C1.64232 22.0776 21.5501 -8.26239 43.5845 3.26773Z" fill="#FFF183"/>
<path d="M25.4193 44.7886C20.6501 44.7886 16.7265 42.9507 14.0725 39.474C7.37732 30.7056 9.48675 19.0156 14.5454 11.3212C20.3635 2.47448 31.5842 -3.6562 43.6074 2.47774C56.9002 -3.17959 68.6999 4.25035 74.0652 13.6096C79.2155 22.5902 78.7512 32.7557 72.8815 39.5099C69.8864 42.9572 65.3724 44.7527 60.179 44.5535C53.6644 44.3087 47.0381 41.0932 43.0628 36.2977C38.8554 41.3968 31.8737 44.7853 25.4336 44.7886H25.4164H25.4193ZM33.7853 1.47229C26.1501 1.47229 19.5381 6.16986 15.5714 12.1993C10.8223 19.4236 8.81609 30.3596 15.0383 38.511C18.0735 42.4871 22.3554 43.3228 25.4164 43.3228H25.4307C31.6759 43.3163 38.7265 39.7809 42.5756 34.7242C42.8192 34.4043 43.3036 34.4043 43.5472 34.7242C47.1728 39.4903 53.8737 42.8495 60.2192 43.0878C65.06 43.2771 69.2244 41.6318 71.9643 38.4783C77.3898 32.2334 77.7911 22.786 72.9847 14.4061C67.8573 5.468 56.542 -1.6159 43.8109 3.95002C43.6504 4.01858 43.4698 4.01531 43.3122 3.93043C40.042 2.21985 36.8291 1.46902 33.7796 1.46902L33.7853 1.47229Z" fill="#212820"/>
<path d="M37.5485 49.6918C37.5399 50.0444 37.4597 50.3969 37.3049 50.6973C36.8864 51.5101 35.8776 51.755 35.2843 51.0401C35.0063 50.7038 34.8745 50.2305 34.8802 49.7669C34.8888 49.0944 35.1324 48.3436 35.6655 47.991C36.1212 47.6907 36.6657 47.8572 37.0383 48.2391C37.3966 48.6048 37.5628 49.1467 37.5514 49.6886L37.5485 49.6918Z" fill="#212820"/>
<path d="M52.4406 49.6918C52.432 50.0444 52.3517 50.3969 52.197 50.6973C51.7785 51.5101 50.7697 51.755 50.1764 51.0401C49.8984 50.7038 49.7665 50.2305 49.7723 49.7669C49.7809 49.0944 50.0245 48.3436 50.5576 47.991C51.0133 47.6907 51.5578 47.8572 51.9304 48.2391C52.2887 48.6048 52.4549 49.1467 52.4435 49.6886L52.4406 49.6918Z" fill="#212820"/>
<path d="M46.6367 52.2903C47.5481 52.2903 48.0211 53.2337 48.0211 54.2718C48.0211 57.1217 46.5565 59.3154 43.7735 59.3154C40.9906 59.3154 39.526 57.4743 39.526 54.2718C39.526 53.2337 39.996 52.2903 40.9103 52.2903H46.6396H46.6367Z" fill="white"/>
<path d="M43.7707 60.0467C40.6639 60.0467 38.8783 57.9411 38.8783 54.2719C38.8783 52.6723 39.7123 51.5591 40.9046 51.5591H46.6339C47.8262 51.5591 48.6602 52.6755 48.6602 54.2719C48.6602 57.7812 46.7399 60.0467 43.7678 60.0467H43.7707ZM40.9046 53.0216C40.1852 53.0216 40.1623 54.1445 40.1623 54.2719C40.1623 57.174 41.3431 58.581 43.7678 58.581C46.4275 58.581 47.3733 56.3546 47.3733 54.2719C47.3733 54.1445 47.3533 53.0216 46.631 53.0216H40.9017H40.9046Z" fill="black"/>
<path d="M43.0628 35.9352C42.9167 35.9352 42.7705 35.8798 42.6501 35.7655C42.2403 35.3738 41.1913 34.0157 40.5579 32.3117C40.4203 31.9395 40.5722 31.5119 40.899 31.3519C41.2257 31.1952 41.604 31.3683 41.7416 31.7404C42.2861 33.2127 43.2033 34.3814 43.4756 34.6425C43.7478 34.9004 43.7822 35.364 43.5558 35.6741C43.4297 35.8471 43.2463 35.9352 43.0628 35.9352Z" fill="#212820"/>
<g opacity="0.6">
<path d="M56.5276 59.6321C58.7848 59.6321 60.6146 57.5479 60.6146 54.9769C60.6146 52.406 58.7848 50.3218 56.5276 50.3218C54.2704 50.3218 52.4406 52.406 52.4406 54.9769C52.4406 57.5479 54.2704 59.6321 56.5276 59.6321Z" fill="#60C172"/>
</g>
<g opacity="0.6">
<path d="M31.4982 59.6321C33.7554 59.6321 35.5852 57.5479 35.5852 54.9769C35.5852 52.406 33.7554 50.3218 31.4982 50.3218C29.241 50.3218 27.4111 52.406 27.4111 54.9769C27.4111 57.5479 29.241 59.6321 31.4982 59.6321Z" fill="#60C172"/>
</g>
<path fill-rule="evenodd" clip-rule="evenodd" d="M70.7404 30.0038C71.7292 29.2008 72.3597 27.8689 72.311 26.3835C72.2365 24.0364 70.5054 22.1985 68.4447 22.2833C67.1406 22.3356 66.0171 23.1452 65.3866 24.3269C64.6815 23.2007 63.5122 22.4825 62.2081 22.538C60.1474 22.6228 58.5338 24.5946 58.6083 26.9417C58.6542 28.4271 59.365 29.7068 60.4025 30.4249C59.4137 31.228 58.7831 32.5599 58.8319 34.0452C58.9064 36.3924 60.6375 38.2303 62.6982 38.1454C64.0023 38.0932 65.1258 37.2836 65.7563 36.1019C66.4614 37.2281 67.6307 37.9463 68.9348 37.8908C70.9955 37.8059 72.6091 35.8342 72.5346 33.487C72.4887 32.0017 71.7779 30.722 70.7404 30.0038ZM65.6101 31.4304C65.3149 30.957 64.9395 30.5588 64.5038 30.2584C64.9194 29.9222 65.2691 29.4946 65.5328 28.9984C65.828 29.4717 66.2034 29.87 66.6391 30.1703C66.2235 30.5065 65.8738 30.9342 65.6101 31.4304Z" fill="#FFA969"/>
<path d="M62.5635 38.8799C61.4544 38.8799 60.4025 38.4098 59.5857 37.5447C58.7287 36.6372 58.2358 35.4032 58.1928 34.0746C58.1498 32.7231 58.5883 31.4303 59.3879 30.4706C58.5281 29.5761 58.0122 28.3258 57.9692 26.9743C57.9262 25.6424 58.3418 24.3726 59.1414 23.3997C59.9382 22.4237 61.0216 21.8622 62.1881 21.8132C63.3804 21.761 64.5067 22.2637 65.3522 23.1745C66.1375 22.1952 67.2381 21.6076 68.4247 21.5586C69.594 21.5129 70.7089 21.983 71.563 22.8905C72.42 23.798 72.9129 25.032 72.9559 26.3606C72.9989 27.7121 72.5604 29.0048 71.7608 29.9646C72.6206 30.8591 73.1365 32.1126 73.1795 33.4608C73.2655 36.2095 71.3739 38.524 68.9606 38.622C67.7741 38.6709 66.6391 38.1715 65.7965 37.2607C65.0112 38.24 63.9106 38.8276 62.724 38.8766C62.6696 38.8766 62.6151 38.8799 62.5635 38.8799ZM62.3457 23.2692C62.3085 23.2692 62.2712 23.2692 62.2339 23.2692C61.4085 23.3018 60.6433 23.7001 60.0815 24.3889C59.5198 25.0777 59.2246 25.9754 59.2532 26.9156C59.2905 28.1006 59.8465 29.1811 60.7407 29.7981C60.9241 29.9254 61.0417 30.1507 61.0502 30.3955C61.0588 30.6403 60.9557 30.8754 60.7808 31.019C59.9296 31.7111 59.4424 32.8308 59.4796 34.0158C59.5083 34.956 59.858 35.8276 60.4627 36.4674C61.0674 37.1105 61.8585 37.45 62.681 37.4109C63.7214 37.3684 64.6701 36.7351 65.2118 35.7166C65.3236 35.5044 65.5213 35.3738 65.7363 35.364C65.9512 35.3445 66.1576 35.4718 66.2837 35.6709C66.8913 36.6437 67.8801 37.1921 68.9148 37.153C70.6201 37.0844 71.9557 35.4456 71.8955 33.5066C71.8582 32.3215 71.3022 31.2443 70.408 30.624C70.2246 30.4967 70.1071 30.2715 70.0985 30.0266C70.0899 29.7818 70.193 29.5467 70.3679 29.4031C71.2191 28.711 71.7063 27.5913 71.6691 26.4063C71.6404 25.4662 71.2907 24.5945 70.686 23.9547C70.0813 23.3116 69.2931 22.9852 68.4677 23.0113C67.4273 23.0537 66.4786 23.687 65.934 24.7055C65.8223 24.9177 65.6245 25.0483 65.4096 25.0581C65.1975 25.0875 64.9882 24.9504 64.8621 24.7512C64.2775 23.8143 63.3431 23.2659 62.3429 23.2659L62.3457 23.2692ZM65.613 32.1649C65.4067 32.1649 65.2089 32.0506 65.0886 31.858C64.8421 31.463 64.5354 31.1365 64.1714 30.8852C63.988 30.7579 63.8705 30.5326 63.8619 30.2878C63.8533 30.0429 63.9564 29.8079 64.1313 29.6643C64.4781 29.3835 64.7647 29.031 64.9854 28.6196C65.0972 28.4107 65.2949 28.2769 65.5099 28.2671C65.7334 28.2508 65.9312 28.3748 66.0573 28.5739C66.3038 28.9689 66.6133 29.2954 66.9744 29.5467C67.1579 29.6741 67.2754 29.8993 67.284 30.1474C67.2926 30.3922 67.1894 30.6273 67.0146 30.7709C66.6678 31.0517 66.3812 31.401 66.1605 31.8156C66.0487 32.0245 65.8509 32.1583 65.6331 32.1681C65.6245 32.1681 65.6188 32.1681 65.6102 32.1681L65.613 32.1649ZM65.5242 30.2192C65.5414 30.2388 65.5586 30.2551 65.5758 30.2747C65.593 30.2551 65.6073 30.2356 65.6245 30.216C65.6073 30.1964 65.5901 30.1801 65.5729 30.1605C65.5557 30.1801 65.5414 30.1996 65.5242 30.2192Z" fill="#212820"/>
<path d="M65.4239 33.0724C66.8469 33.0724 68.0005 31.7585 68.0005 30.1376C68.0005 28.5168 66.8469 27.2029 65.4239 27.2029C64.0009 27.2029 62.8473 28.5168 62.8473 30.1376C62.8473 31.7585 64.0009 33.0724 65.4239 33.0724Z" fill="white"/>
<path d="M65.4239 33.8036C63.7014 33.8036 62.2712 32.2432 62.2081 30.2715C62.1766 29.2921 62.4833 28.3585 63.068 27.6436C63.6526 26.9287 64.4494 26.5141 65.3092 26.4782C66.1691 26.439 66.9888 26.7916 67.6164 27.4575C68.247 28.1267 68.6081 29.031 68.6396 30.0103C68.6711 30.9897 68.3645 31.9233 67.7798 32.6382C67.1951 33.3531 66.3983 33.7677 65.5385 33.8036C65.4984 33.8036 65.4611 33.8036 65.421 33.8036H65.4239ZM65.4267 27.9374C65.4038 27.9374 65.378 27.9374 65.3551 27.9374C64.8392 27.9602 64.3606 28.2083 64.008 28.6392C63.6555 29.0702 63.4721 29.6284 63.4921 30.216C63.5294 31.4304 64.4179 32.3771 65.4927 32.3379C66.0086 32.315 66.4872 32.0669 66.8369 31.636C67.1865 31.2051 67.3728 30.6469 67.3527 30.0593C67.3356 29.4717 67.1149 28.9265 66.7394 28.525C66.3783 28.143 65.914 27.9341 65.4239 27.9341L65.4267 27.9374Z" fill="#212820"/>
<path fill-rule="evenodd" clip-rule="evenodd" d="M30.902 15.2288C31.8908 14.4257 32.5214 13.0938 32.4726 11.6085C32.3981 9.26134 30.667 7.42344 28.6063 7.50832C27.3022 7.56055 26.1787 8.37014 25.5482 9.55188C24.8432 8.42564 23.6738 7.70745 22.3697 7.76295C20.309 7.84782 18.6954 9.81956 18.7699 12.1667C18.8158 13.6521 19.5266 14.9317 20.5641 15.6499C19.5753 16.453 18.9448 17.7849 18.9935 19.2702C19.068 21.6174 20.7991 23.4553 22.8598 23.3704C24.1639 23.3182 25.2874 22.5086 25.9179 21.3268C26.623 22.4531 27.7923 23.1713 29.0964 23.1158C31.1571 23.0309 32.7707 21.0591 32.6962 18.712C32.6503 17.2267 31.9396 15.947 30.902 15.2288ZM25.7718 16.6554C25.4766 16.182 25.1011 15.7838 24.6655 15.4834C25.081 15.1472 25.4307 14.7195 25.6944 14.2233C25.9896 14.6967 26.365 15.095 26.8007 15.3953C26.3851 15.7315 26.0354 16.1592 25.7718 16.6554Z" fill="#6DC6F7"/>
<path d="M22.7251 24.1049C21.6159 24.1049 20.564 23.6348 19.7472 22.7697C18.8903 21.8622 18.3973 20.6282 18.3543 19.2996C18.3113 17.9481 18.7498 16.6554 19.5495 15.6956C18.6896 14.8011 18.1737 13.5476 18.1307 12.1961C18.0448 9.4474 19.9364 7.13289 22.3496 7.03496C23.5362 6.98273 24.6683 7.48546 25.5138 8.39624C26.2991 7.4169 27.3996 6.8293 28.5862 6.78033C29.7584 6.72483 30.8705 7.20471 31.7245 8.11224C32.5815 9.01976 33.0745 10.2537 33.1175 11.5824C33.1605 12.9339 32.7219 14.2266 31.9223 15.1863C32.7821 16.0808 33.298 17.3344 33.341 18.6859C33.427 21.4345 31.5354 23.7491 29.1222 23.847C27.9356 23.8992 26.8006 23.3965 25.958 22.4857C25.1727 23.465 24.075 24.0527 22.8856 24.1016C22.8311 24.1016 22.7767 24.1049 22.7251 24.1049ZM22.5072 8.49418C22.47 8.49418 22.4327 8.49418 22.3955 8.49418C20.6902 8.56273 19.3546 10.1982 19.4148 12.1406C19.452 13.3256 20.008 14.4061 20.9022 15.0231C21.0857 15.1504 21.2032 15.3757 21.2118 15.6238C21.2204 15.8686 21.1172 16.1037 20.9424 16.2473C20.0911 16.9361 19.6039 18.0591 19.6412 19.2441C19.6698 20.1843 20.0195 21.0559 20.6242 21.6957C21.229 22.3355 22.0229 22.6783 22.8426 22.6391C23.8858 22.5967 24.8316 21.9634 25.3762 20.9449C25.488 20.7327 25.6857 20.6021 25.9007 20.5923C26.1128 20.5793 26.322 20.7 26.4481 20.8992C27.0557 21.872 28.0445 22.4204 29.0792 22.3812C30.7845 22.3127 32.1201 20.6772 32.0599 18.7348C32.0226 17.5498 31.4666 16.4693 30.5724 15.8523C30.389 15.725 30.2714 15.4997 30.2628 15.2516C30.2542 15.0068 30.3574 14.7718 30.5323 14.6281C31.3835 13.9393 31.8707 12.8163 31.8335 11.6313C31.8048 10.6912 31.4551 9.81955 30.8504 9.17972C30.2457 8.53662 29.4575 8.21017 28.6321 8.23628C27.5917 8.27872 26.643 8.91203 26.1013 9.93055C25.9895 10.1427 25.7918 10.2733 25.5768 10.2831C25.3619 10.2962 25.1555 10.1754 25.0294 9.97625C24.4447 9.03935 23.5104 8.49091 22.5101 8.49091L22.5072 8.49418ZM25.7746 17.3899C25.5682 17.3899 25.3705 17.2756 25.2501 17.083C25.0036 16.688 24.6969 16.3616 24.3329 16.1102C24.1495 15.9829 24.032 15.7576 24.0234 15.5095C24.0148 15.2647 24.118 15.0297 24.2928 14.886C24.6396 14.6053 24.9262 14.256 25.1469 13.8414C25.2587 13.6325 25.4564 13.4986 25.6743 13.4888C25.8921 13.4725 26.0956 13.5965 26.2217 13.7957C26.4682 14.1907 26.7748 14.5171 27.1388 14.7685C27.3223 14.8958 27.4398 15.1211 27.4484 15.3692C27.457 15.614 27.3538 15.849 27.179 15.9927C26.8322 16.2734 26.5455 16.6227 26.3249 17.0373C26.2131 17.2462 26.0153 17.3801 25.7975 17.3899C25.7889 17.3899 25.7832 17.3899 25.7746 17.3899ZM25.6857 15.4442C25.7029 15.4638 25.7201 15.4801 25.7402 15.4997C25.7574 15.4801 25.7717 15.4606 25.7889 15.441C25.7717 15.4214 25.7545 15.4051 25.7344 15.3855C25.7173 15.4051 25.7029 15.4247 25.6857 15.4442Z" fill="#212820"/>
<path d="M25.5854 18.2974C27.0084 18.2974 28.162 16.9834 28.162 15.3626C28.162 13.7418 27.0084 12.4279 25.5854 12.4279C24.1624 12.4279 23.0088 13.7418 23.0088 15.3626C23.0088 16.9834 24.1624 18.2974 25.5854 18.2974Z" fill="white"/>
<path d="M25.5826 19.0286C24.7686 19.0286 23.9948 18.6826 23.3958 18.046C22.7652 17.3768 22.4041 16.4725 22.3726 15.4932C22.341 14.5138 22.6477 13.5802 23.2324 12.8653C23.8171 12.1503 24.6138 11.7358 25.4737 11.6998C26.3278 11.6607 27.1532 12.0132 27.7809 12.6792C28.4114 13.3451 28.7725 14.2527 28.804 15.2287C28.8356 16.2081 28.5289 17.1417 27.9442 17.8566C27.3595 18.5716 26.5628 18.9861 25.703 19.0221C25.6628 19.0221 25.6227 19.0221 25.5826 19.0221V19.0286ZM25.5883 13.1623C25.5654 13.1623 25.5425 13.1623 25.5167 13.1623C25.0008 13.1852 24.5221 13.4333 24.1725 13.8642C23.8199 14.2951 23.6365 14.8533 23.6566 15.4409C23.6738 16.0285 23.8945 16.5737 24.2699 16.9752C24.6482 17.3768 25.1412 17.5792 25.6571 17.5628C26.173 17.54 26.6516 17.2919 27.0042 16.861C27.3567 16.4301 27.5401 15.8718 27.52 15.2842C27.5028 14.6966 27.2822 14.1515 26.9067 13.7532C26.5456 13.3713 26.0813 13.1623 25.5912 13.1623H25.5883Z" fill="#212820"/>
</g>
<defs>
<clipPath id="clip0_100_5506">
<rect width="88" height="131" fill="white"/>
</clipPath>
</defs>
</svg>
