<svg width="55" height="103" viewBox="0 0 55 103" fill="none" xmlns="http://www.w3.org/2000/svg">
<g clip-path="url(#clip0_100_5453)">
<path d="M50.7433 63.4633C50.6489 60.6062 50.543 57.7524 50.483 54.9083C50.3714 49.4419 50.5087 43.0851 48.3145 38.0754C45.5111 31.6697 40.2102 26.9893 34.2055 25.052L32.6693 17.4786H22.9114L21.401 24.8922C21.3867 24.99 20.128 25.3096 19.9821 25.3651C19.4986 25.5445 19.0209 25.7402 18.5489 25.9554C17.6163 26.3794 16.7066 26.8687 15.8283 27.4264C14.109 28.5157 12.5099 29.853 11.091 31.4055C7.56946 35.2639 5.361 40.303 4.79458 45.8281C3.77616 55.7954 2.52889 65.8182 3.74184 75.854C4.53425 82.4228 7.11461 89.9309 13.1536 92.2564V94.8754C13.1536 98.9589 16.0572 102.273 19.6417 102.273C23.2261 102.273 26.1297 98.9622 26.1297 94.8754V93.1631C26.7076 93.1761 30.2892 93.1925 30.8671 93.2088V94.8754C30.8671 98.9589 33.7707 102.273 37.3552 102.273C40.9396 102.273 43.8433 98.9622 43.8433 94.8754C43.8433 94.1872 43.5915 92.5401 43.9091 91.9433C43.972 91.8259 44.0721 91.7378 44.1665 91.653C46.2634 89.82 48.0571 88.212 49.2471 85.4495C50.2598 83.0979 50.8377 80.2865 50.8377 77.6609C51.0208 72.9447 50.8978 68.1991 50.7404 63.4601L50.7433 63.4633Z" fill="#90DD83"/>
<path d="M37.3552 103C33.4246 103 30.2263 99.3535 30.2263 94.8721V93.9296C29.7171 93.923 28.999 93.9198 28.301 93.9132C27.7375 93.91 27.1882 93.9035 26.7734 93.9002V94.8721C26.7734 99.3535 23.5751 103 19.6445 103C15.7139 103 12.5156 99.3535 12.5156 94.8721V92.7684C9.41748 91.4084 4.49992 87.4488 3.11248 75.9551C1.98822 66.6564 2.96372 57.2827 3.90775 48.2156L4.16236 45.7433C4.74594 40.029 6.9916 34.8888 10.6504 30.8771C12.098 29.2887 13.7372 27.9156 15.5194 26.7871C16.4148 26.2196 17.3531 25.7108 18.3143 25.277C18.7977 25.0585 19.2955 24.853 19.7876 24.6704C19.8333 24.6541 19.9706 24.6117 20.148 24.5627C20.3139 24.5171 20.6343 24.4258 20.8603 24.3507C21.0062 23.6169 21.3724 21.8198 22.2907 17.3123C22.3593 16.9796 22.6168 16.748 22.9143 16.748H32.6693C32.9668 16.748 33.2272 16.9829 33.293 17.3156L34.7433 24.4714C40.974 26.598 46.1147 31.4185 48.8867 37.7525C50.9235 42.4035 51.0151 48.1503 51.0923 53.2188C51.1009 53.783 51.1095 54.344 51.1209 54.892C51.1667 57.1588 51.2468 59.4745 51.3212 61.7151L51.3784 63.434C51.53 68.0165 51.6616 72.8925 51.4756 77.6935C51.4756 80.3745 50.872 83.3295 49.8193 85.7724C48.5348 88.7567 46.601 90.4462 44.5527 92.2336C44.5184 92.2629 44.4612 92.3151 44.444 92.3347C44.3296 92.576 44.404 93.6328 44.4383 94.0861C44.4612 94.396 44.4783 94.6732 44.4783 94.8754C44.4783 99.3568 41.2801 103.003 37.3495 103.003L37.3552 103ZM26.1326 92.4292H26.1469C26.4158 92.4358 27.3427 92.4423 28.3096 92.4488C29.4167 92.4553 30.5782 92.4651 30.8842 92.4749C31.2333 92.4847 31.5079 92.8108 31.5079 93.2055V94.8721C31.5079 98.5479 34.1312 101.536 37.3523 101.536C40.5735 101.536 43.1967 98.5447 43.1967 94.8721C43.1967 94.7025 43.1796 94.4677 43.1596 94.2035C43.0795 93.0685 43.0423 92.152 43.3569 91.5617C43.4828 91.3236 43.6573 91.1703 43.7717 91.0724C45.697 89.3927 47.5136 87.8044 48.6693 85.1266C49.6391 82.8794 50.194 80.156 50.194 77.6609C50.38 72.8827 50.2484 68.0393 50.0968 63.4894L50.0396 61.7706C49.9623 59.5266 49.8851 57.2044 49.8365 54.9246C49.825 54.3734 49.8164 53.8124 49.8078 53.2449C49.7306 48.3297 49.6448 42.759 47.7367 38.4048C45.0734 32.3187 40.0757 27.7101 34.0282 25.7565C33.8022 25.6847 33.6305 25.476 33.579 25.2183L32.1601 18.2092H23.4235C23.0716 19.9313 22.0418 24.9867 22.0304 25.0552C21.9503 25.5575 21.6356 25.6488 20.457 25.9815C20.3254 26.0174 20.2224 26.0468 20.1795 26.0631C19.7189 26.2359 19.2469 26.4284 18.7892 26.6371C17.8823 27.048 16.9926 27.5308 16.143 28.0657C14.4581 29.1322 12.9075 30.4335 11.5401 31.9339C8.09583 35.7042 5.98463 40.5411 5.43537 45.9129L5.18077 48.3852C4.24818 57.361 3.28126 66.6401 4.38263 75.7529C4.96622 80.5898 6.9115 89.0764 13.3624 91.5617C13.6227 91.6628 13.7972 91.94 13.7972 92.2531V94.8721C13.7972 98.5479 16.4205 101.536 19.6417 101.536C22.8628 101.536 25.4861 98.5447 25.4861 94.8721V93.1598C25.4861 92.9641 25.5547 92.775 25.6778 92.638C25.7979 92.5043 25.9581 92.4292 26.1269 92.4292H26.1326ZM20.806 24.6378C20.7945 24.6769 20.7831 24.7193 20.7745 24.7617H20.7802C20.7859 24.7323 20.7945 24.6899 20.8031 24.6378H20.806Z" fill="#212820"/>
<path d="M39.2776 22.658C34.7262 22.658 30.2549 20.6 27.1996 18.9725L27.0681 19.0475C22.8256 21.4187 19.0523 22.57 15.5365 22.57C13.1621 22.57 10.8707 22.0286 8.72805 20.962C3.88773 18.555 -0.217389 13.4115 1.51906 7.35155C2.67193 3.33005 6.62257 0.730591 11.5859 0.730591C13.4282 0.730591 15.302 1.07958 17.15 1.76777C21.5583 3.40833 25.1628 9.13236 27.1939 13.0593C29.225 9.13236 32.8295 3.40833 37.2379 1.76777C39.0859 1.07958 40.9597 0.730591 42.802 0.730591C47.7653 0.730591 51.7159 3.33005 52.8688 7.35155C53.5268 9.64443 53.3236 12.0612 52.2823 14.3411C50.7547 17.6907 47.4563 20.6554 43.8804 21.8981C42.4329 22.4004 40.8824 22.6548 39.2776 22.6548V22.658Z" fill="#FFF183"/>
<path d="M42.8019 1.46118C47.3533 1.46118 51.1552 3.7247 52.2594 7.5766C54.0703 13.8975 48.4862 19.5335 43.6945 21.1969C42.2355 21.7024 40.7565 21.9242 39.2804 21.9242C35.0895 21.9242 30.9071 20.1564 27.1968 18.1571C27.1796 18.1571 26.9851 18.2778 26.9851 18.2778C26.9193 18.3136 26.8563 18.3495 26.7905 18.3854C23.1746 20.4043 19.3727 21.8361 15.5365 21.8361C13.3538 21.8361 11.1596 21.373 8.98549 20.2902C4.63721 18.1277 0.451989 13.4278 2.12836 7.57986C3.2326 3.7247 7.03448 1.46118 11.5859 1.46118C13.3023 1.46118 15.1246 1.78407 16.9526 2.46248C21.5783 4.18458 25.3316 10.7012 27.1939 14.5335C29.0591 10.7044 32.8123 4.18784 37.4352 2.46248C39.2604 1.78081 41.0826 1.46118 42.8019 1.46118ZM42.8019 0C40.891 0 38.9514 0.362033 37.0376 1.07305C35.0494 1.81343 31.2647 4.16827 27.1939 11.6438C23.1231 4.17153 19.3384 1.81343 17.3502 1.07305C15.4364 0.362033 13.4968 0 11.5859 0C6.34219 0 2.15125 2.79516 0.909702 7.1265C-0.95262 13.6203 3.36705 19.0932 8.47056 21.6339C10.6933 22.7428 13.0706 23.3038 15.5365 23.3038C19.1124 23.3038 22.9314 22.1525 27.2082 19.7846C30.2949 21.4089 34.7319 23.3919 39.2775 23.3919C40.9453 23.3919 42.5588 23.1244 44.0664 22.6026C47.7996 21.3078 51.2467 18.1962 52.8516 14.6835C53.973 12.2243 54.1904 9.61181 53.4781 7.12977C52.2394 2.79842 48.0485 0 42.8019 0Z" fill="#212820"/>
<g opacity="0.6">
<path d="M36.4454 58.5385C38.7553 58.5385 40.6278 56.4036 40.6278 53.7701C40.6278 51.1366 38.7553 49.0017 36.4454 49.0017C34.1356 49.0017 32.2631 51.1366 32.2631 53.7701C32.2631 56.4036 34.1356 58.5385 36.4454 58.5385Z" fill="#60C172"/>
</g>
<g opacity="0.6">
<path d="M15.4621 58.5385C17.772 58.5385 19.6445 56.4036 19.6445 53.7701C19.6445 51.1366 17.772 49.0017 15.4621 49.0017C13.1523 49.0017 11.2798 51.1366 11.2798 53.7701C11.2798 56.4036 13.1523 58.5385 15.4621 58.5385Z" fill="#60C172"/>
</g>
<path d="M20.6658 49.2626C20.66 49.5333 20.5971 49.8008 20.4798 50.0323C20.1594 50.6553 19.3899 50.8412 18.935 50.2933C18.7205 50.0356 18.6204 49.6736 18.6261 49.3213C18.6318 48.806 18.8178 48.232 19.224 47.9645C19.5701 47.7362 19.9878 47.8634 20.2739 48.1537C20.5456 48.4309 20.6744 48.8484 20.6658 49.2626Z" fill="#191919"/>
<path d="M32.8581 49.2626C32.8524 49.5333 32.7894 49.8008 32.6721 50.0323C32.3517 50.6553 31.5822 50.8412 31.1274 50.2933C30.9128 50.0356 30.8127 49.6736 30.8184 49.3213C30.8241 48.806 31.0101 48.232 31.4163 47.9645C31.7624 47.7362 32.1801 47.8634 32.4662 48.1537C32.7379 48.4309 32.8667 48.8484 32.8581 49.2626Z" fill="#191919"/>
<path d="M28.2037 51.0074C29.0105 51.0074 29.4253 51.8391 29.4253 52.7589C29.4253 55.2801 28.1322 57.2175 25.672 57.2175C23.2118 57.2175 21.9188 55.5899 21.9188 52.7589C21.9188 51.8391 22.3336 51.0074 23.1403 51.0074H28.2009H28.2037Z" fill="white"/>
<path d="M25.6749 57.948C22.8828 57.948 21.2808 56.0563 21.2808 52.7589C21.2808 51.3206 22.0647 50.2769 23.1431 50.2769H28.2037C29.2822 50.2769 30.0661 51.3206 30.0661 52.7589C30.0661 55.8639 28.301 57.948 25.672 57.948H25.6749ZM23.146 51.738C22.5824 51.738 22.5653 52.6545 22.5653 52.7589C22.5653 55.267 23.5837 56.4836 25.6749 56.4836C27.623 56.4836 28.7845 55.0909 28.7845 52.7589C28.7845 52.6545 28.7673 51.738 28.2037 51.738H23.1431H23.146Z" fill="black"/>
<path d="M2.89218 69.0178C1.41606 67.648 0.560704 65.9552 0.646525 63.9331C0.723764 62.1196 1.48185 60.5182 2.37725 59.1027C3.78186 56.8848 6.57392 54.4876 9.44035 55.4302C12.7302 56.513 13.74 61.0335 12.8846 63.9266C11.7203 67.8698 7.10601 72.6121 2.89218 69.0178Z" fill="#90DD83"/>
<path d="M6.06756 71.0237C4.82315 71.0237 3.61593 70.5475 2.50884 69.6049L2.48881 69.5854C0.75236 67.9709 -0.0829674 66.0564 0.0057146 63.8939C0.0972573 61.6859 1.10709 59.8561 1.85659 58.6689C3.55013 55.9912 6.60823 53.7309 9.6177 54.7224C11.0852 55.2052 12.2553 56.3206 13.0048 57.9514C13.8744 59.8464 14.0632 62.224 13.494 64.1549C12.7731 66.5978 10.6933 69.6897 7.83262 70.7041C7.24045 70.9161 6.64828 71.0205 6.0647 71.0205L6.06756 71.0237ZM3.28981 68.4406C4.58571 69.5397 5.9846 69.8332 7.455 69.3114C9.7779 68.4862 11.6402 65.8607 12.281 63.6917C12.7359 62.1523 12.5757 60.166 11.8719 58.6363C11.4657 57.7524 10.6847 56.6011 9.26583 56.1347C6.50811 55.228 3.9678 57.8438 2.90075 59.53C1.85945 61.1738 1.34739 62.5861 1.29017 63.969C1.21866 65.6356 1.89378 67.1425 3.28981 68.4438V68.4406Z" fill="#212820"/>
<path d="M49.619 57.1196C52.3224 60.7661 55.2031 64.481 54.116 69.5983C53.6011 72.0184 51.7359 73.4894 49.5961 73.6068C46.0288 73.7992 43.397 70.3028 42.473 66.7151" fill="#90DD83"/>
<path d="M49.167 57.6383C51.4585 60.7302 54.2276 64.2723 53.6326 68.6493C53.378 70.5116 52.454 72.0282 50.8348 72.6186C49.2157 73.2089 47.5021 72.7752 46.1375 71.6695C44.6357 70.4529 43.6144 68.509 43.0909 66.5227C42.8534 65.6226 41.6148 66.0074 41.855 66.9109C42.9707 71.1574 46.2634 75.0354 50.4315 74.2331C52.3195 73.871 53.933 72.4131 54.5881 70.3518C55.3204 68.0491 55.0172 65.4399 54.179 63.2416C53.2264 60.7465 51.5986 58.6624 50.0739 56.6043C49.5389 55.8835 48.6378 56.924 49.167 57.6383Z" fill="#212820"/>
<path d="M25.6377 93.9035C24.8367 93.9035 23.3119 93.8219 22.0675 93.2675C21.7385 93.1207 21.5755 92.6967 21.7042 92.3216C21.8329 91.9465 22.2048 91.7574 22.5338 91.9074C23.6895 92.4195 25.3173 92.4814 26.0983 92.4325C26.4473 92.4064 26.7534 92.7228 26.7734 93.124C26.7934 93.5284 26.5216 93.8709 26.1669 93.8937C26.104 93.897 25.9152 93.9067 25.6377 93.9067V93.9035Z" fill="#212820"/>
</g>
<defs>
<clipPath id="clip0_100_5453">
<rect width="55" height="103" fill="white"/>
</clipPath>
</defs>
</svg>
